<?xml version="1.0" encoding="UTF-8" standalone="no"?>
<svg
   width="230pt"
   height="360pt"
   viewBox="0 0 230 360"
   version="1.1"
   id="svg343"
   sodipodi:docname="pframe3.svg"
   inkscape:version="1.2 (dc2aedaf03, 2022-05-15)"
   xmlns:inkscape="http://www.inkscape.org/namespaces/inkscape"
   xmlns:sodipodi="http://sodipodi.sourceforge.net/DTD/sodipodi-0.dtd"
   xmlns:xlink="http://www.w3.org/1999/xlink"
   xmlns="http://www.w3.org/2000/svg"
   xmlns:svg="http://www.w3.org/2000/svg"
   xmlns:rdf="http://www.w3.org/1999/02/22-rdf-syntax-ns#"
   xmlns:cc="http://creativecommons.org/ns#"
   xmlns:dc="http://purl.org/dc/elements/1.1/">
  <sodipodi:namedview
     id="namedview345"
     pagecolor="#ffffff"
     bordercolor="#000000"
     borderopacity="0.25"
     inkscape:showpageshadow="2"
     inkscape:pageopacity="0.0"
     inkscape:pagecheckerboard="0"
     inkscape:deskcolor="#d1d1d1"
     inkscape:document-units="pt"
     showgrid="false"
     inkscape:zoom="0.49166667"
     inkscape:cx="144.40678"
     inkscape:cy="240"
     inkscape:window-width="1280"
     inkscape:window-height="731"
     inkscape:window-x="0"
     inkscape:window-y="0"
     inkscape:window-maximized="1"
     inkscape:current-layer="svg343" />
  <metadata
     id="metadata2">
    <rdf:RDF>
      <cc:Work>
        <dc:type
           rdf:resource="http://purl.org/dc/dcmitype/StillImage" />
        <dc:date>2022-06-19T16:49:22.664927</dc:date>
        <dc:format>image/svg+xml</dc:format>
        <dc:creator>
          <cc:Agent>
            <dc:title>Matplotlib v3.5.2, https://matplotlib.org/</dc:title>
          </cc:Agent>
        </dc:creator>
      </cc:Work>
    </rdf:RDF>
  </metadata>
  <defs
     id="defs6">
    <style
       type="text/css"
       id="style4">*{stroke-linejoin: round; stroke-linecap: butt}</style>
  </defs>
  <g
     id="figure_1"
     transform="translate(28.5)">
    <g
       id="patch_1">
      <path
         d="M 0,360 H 216 V 0 H 0 Z"
         style="fill:none"
         id="path8" />
    </g>
    <g
       id="axes_1">
      <g
         id="patch_2">
        <path
           d="M 27,315 H 194.4 V 43.2 H 27 Z"
           style="fill:#ffffff"
           id="path11" />
      </g>
      <g
         id="matplotlib.axis_1">
        <g
           id="xtick_1">
          <g
             id="line2d_1">
            <defs
               id="defs15">
              <path
                 id="m0d7b41102b"
                 d="M 0,0 V 3.5"
                 style="stroke:#000000;stroke-width:0.8" />
            </defs>
            <g
               id="g19">
              <use
                 xlink:href="#m0d7b41102b"
                 x="34.609093"
                 y="315"
                 style="stroke:#000000;stroke-width:0.8"
                 id="use17" />
            </g>
          </g>
          <g
             id="text_1">
            <!-- 0.0 -->
            <g
               transform="matrix(0.12,0,0,-0.12,27.109091,330.3325)"
               id="g32">
              <defs
                 id="defs24">
                <path
                   id="TimesNewRomanPSMT-30"
                   d="m 231,2094 q 0,725 219,1248 219,524 581,780 282,203 582,203 487,0 875,-497 484,-615 484,-1669 0,-737 -213,-1253 Q 2547,391 2217,158 1888,-75 1581,-75 975,-75 572,641 231,1244 231,2094 Z m 613,-78 q 0,-875 215,-1428 179,-466 532,-466 168,0 349,151 182,152 276,508 143,538 143,1516 0,725 -150,1209 -112,360 -290,510 -128,103 -310,103 -212,0 -378,-191 -225,-259 -306,-816 -81,-556 -81,-1096 z"
                   transform="scale(0.015625)" />
                <path
                   id="TimesNewRomanPSMT-2e"
                   d="M 800,606 Q 947,606 1047,504 1147,403 1147,259 1147,116 1045,14 944,-88 800,-88 656,-88 554,14 453,116 453,259 q 0,147 101,247 102,100 246,100 z"
                   transform="scale(0.015625)" />
              </defs>
              <use
                 xlink:href="#TimesNewRomanPSMT-30"
                 id="use26" />
              <use
                 xlink:href="#TimesNewRomanPSMT-2e"
                 x="50"
                 id="use28" />
              <use
                 xlink:href="#TimesNewRomanPSMT-30"
                 x="75"
                 id="use30" />
            </g>
          </g>
        </g>
        <g
           id="xtick_2">
          <g
             id="line2d_2">
            <g
               id="g38">
              <use
                 xlink:href="#m0d7b41102b"
                 x="110.7"
                 y="315"
                 style="stroke:#000000;stroke-width:0.8"
                 id="use36" />
            </g>
          </g>
          <g
             id="text_2">
            <!-- 0.5 -->
            <g
               transform="matrix(0.12,0,0,-0.12,103.2,330.3325)"
               id="g50">
              <defs
                 id="defs42">
                <path
                   id="TimesNewRomanPSMT-35"
                   d="M 2778,4238 2534,3706 H 1259 L 981,3138 q 828,-122 1313,-616 415,-425 415,-1000 0,-334 -136,-619 Q 2438,619 2231,419 2025,219 1772,97 1413,-75 1034,-75 653,-75 479,54 306,184 306,341 q 0,87 72,154 72,68 181,68 82,0 143,-25 61,-25 207,-129 235,-162 475,-162 366,0 642,276 277,277 277,674 0,384 -247,717 -247,333 -681,514 -341,141 -928,163 l 812,1647 z"
                   transform="scale(0.015625)" />
              </defs>
              <use
                 xlink:href="#TimesNewRomanPSMT-30"
                 id="use44" />
              <use
                 xlink:href="#TimesNewRomanPSMT-2e"
                 x="50"
                 id="use46" />
              <use
                 xlink:href="#TimesNewRomanPSMT-35"
                 x="75"
                 id="use48" />
            </g>
          </g>
        </g>
        <g
           id="xtick_3">
          <g
             id="line2d_3">
            <g
               id="g56">
              <use
                 xlink:href="#m0d7b41102b"
                 x="186.79091"
                 y="315"
                 style="stroke:#000000;stroke-width:0.8"
                 id="use54" />
            </g>
          </g>
          <g
             id="text_3">
            <!-- 1.0 -->
            <g
               transform="matrix(0.12,0,0,-0.12,179.29091,330.3325)"
               id="g68">
              <defs
                 id="defs60">
                <path
                   id="TimesNewRomanPSMT-31"
                   d="m 750,3822 1031,503 h 103 V 747 q 0,-356 30,-444 30,-87 123,-134 94,-47 382,-53 V 0 H 825 v 116 q 300,6 387,51 88,46 122,122 35,77 35,458 v 2287 q 0,463 -31,594 -22,100 -80,147 -58,47 -139,47 -116,0 -322,-97 z"
                   transform="scale(0.015625)" />
              </defs>
              <use
                 xlink:href="#TimesNewRomanPSMT-31"
                 id="use62" />
              <use
                 xlink:href="#TimesNewRomanPSMT-2e"
                 x="50"
                 id="use64" />
              <use
                 xlink:href="#TimesNewRomanPSMT-30"
                 x="75"
                 id="use66" />
            </g>
          </g>
        </g>
        <g
           id="text_4">
          <!-- Time (Seconds) -->
          <g
             transform="matrix(0.12,0,0,-0.12,72.75375,345.23187)"
             id="g115">
            <defs
               id="defs85">
              <path
                 id="TimesNewRomanPSMT-54"
                 d="m 3703,4238 47,-994 h -119 q -34,262 -93,375 -97,181 -258,267 -161,86 -424,86 H 2259 V 734 q 0,-390 85,-487 119,-131 365,-131 h 147 V 0 H 1059 v 116 h 150 q 269,0 382,162 68,100 68,456 V 3972 H 1150 Q 853,3972 728,3928 566,3869 450,3700 334,3531 313,3244 H 194 l 50,994 z"
                 transform="scale(0.015625)" />
              <path
                 id="TimesNewRomanPSMT-69"
                 d="m 928,4444 q 131,0 223,-93 93,-92 93,-223 0,-131 -93,-225 -92,-94 -223,-94 -131,0 -225,94 -94,94 -94,225 0,131 92,223 93,93 227,93 z M 1188,2947 V 647 q 0,-269 39,-358 39,-89 115,-133 77,-43 280,-43 V 0 H 231 v 113 q 210,0 281,40 72,41 114,134 43,94 43,360 v 1103 q 0,466 -28,603 -22,100 -69,139 -47,39 -128,39 -88,0 -213,-47 l -43,113 862,350 z"
                 transform="scale(0.015625)" />
              <path
                 id="TimesNewRomanPSMT-6d"
                 d="m 1050,2338 q 313,312 369,359 140,119 302,184 163,66 323,66 269,0 462,-157 194,-156 260,-452 322,375 543,492 222,117 457,117 228,0 404,-117 177,-117 280,-383 69,-181 69,-569 V 647 q 0,-269 40,-369 32,-69 116,-117 84,-48 275,-48 V 0 H 3538 v 113 h 59 q 184,0 287,71 72,50 104,160 12,53 12,303 v 1231 q 0,350 -84,494 -122,200 -391,200 -166,0 -333,-83 -167,-83 -404,-308 l -7,-34 7,-134 V 647 q 0,-294 32,-366 33,-72 123,-120 91,-48 310,-48 V 0 H 1806 v 113 q 238,0 327,56 89,56 123,169 16,53 16,309 v 1231 q 0,350 -103,503 -138,200 -385,200 -168,0 -334,-90 -259,-138 -400,-310 V 647 q 0,-281 39,-366 39,-84 115,-126 77,-42 312,-42 V 0 H 100 v 113 q 197,0 275,42 78,42 118,134 41,92 41,358 v 1094 q 0,472 -28,609 -22,103 -69,142 -46,39 -128,39 -87,0 -209,-47 l -47,113 863,350 h 134 z"
                 transform="scale(0.015625)" />
              <path
                 id="TimesNewRomanPSMT-65"
                 d="m 681,1784 q -3,-637 310,-1000 312,-362 734,-362 281,0 489,154 208,155 349,530 l 96,-62 Q 2594,616 2278,264 1963,-88 1488,-88 972,-88 605,314 238,716 238,1394 q 0,734 376,1145 377,411 945,411 482,0 791,-317 309,-317 309,-849 z m 0,182 h 1325 q -15,275 -65,387 -78,175 -233,275 -155,100 -324,100 -259,0 -464,-202 -204,-201 -239,-560 z"
                 transform="scale(0.015625)" />
              <path
                 id="TimesNewRomanPSMT-20"
                 transform="scale(0.015625)"
                 d="" />
              <path
                 id="TimesNewRomanPSMT-28"
                 d="m 1988,-1253 v -116 q -472,238 -788,556 -450,454 -694,1069 -243,616 -243,1278 0,969 478,1767 478,799 1247,1143 V 4313 Q 1603,4100 1356,3731 1109,3363 987,2797 866,2231 866,1616 866,947 969,400 q 81,-431 196,-692 116,-261 311,-501 196,-241 512,-460 z"
                 transform="scale(0.015625)" />
              <path
                 id="TimesNewRomanPSMT-53"
                 d="M 2934,4334 V 2869 h -115 q -56,422 -202,672 -145,250 -414,396 -269,147 -556,147 -325,0 -538,-198 -212,-198 -212,-452 0,-193 134,-353 194,-234 922,-625 594,-318 811,-489 217,-170 334,-402 118,-231 118,-484 0,-481 -374,-830 -373,-348 -961,-348 -184,0 -347,28 -96,16 -401,114 Q 828,144 747,144 669,144 623,97 578,50 556,-97 H 441 v 1453 h 115 q 82,-456 219,-683 138,-226 420,-376 283,-150 621,-150 390,0 616,206 227,206 227,488 0,156 -86,315 -85,160 -267,297 -122,94 -666,398 -543,305 -773,486 -229,182 -348,400 -119,219 -119,482 0,456 350,785 350,330 891,330 337,0 715,-165 175,-78 247,-78 81,0 133,48 52,49 83,195 z"
                 transform="scale(0.015625)" />
              <path
                 id="TimesNewRomanPSMT-63"
                 d="M 2631,1088 Q 2516,522 2178,217 1841,-88 1431,-88 944,-88 581,321 219,731 219,1428 q 0,675 401,1097 402,422 964,422 422,0 694,-224 272,-223 272,-464 0,-118 -77,-192 -76,-73 -214,-73 -184,0 -278,119 -53,65 -70,249 -17,185 -127,282 -109,94 -303,94 -312,0 -503,-232 -253,-306 -253,-809 0,-513 251,-905 252,-392 680,-392 307,0 550,209 172,144 335,522 z"
                 transform="scale(0.015625)" />
              <path
                 id="TimesNewRomanPSMT-6f"
                 d="m 1600,2947 q 650,0 1044,-494 334,-422 334,-969 0,-384 -185,-778 Q 2609,313 2286,112 1963,-88 1566,-88 919,-88 538,428 216,863 216,1403 q 0,394 195,783 195,389 514,575 319,186 675,186 z m -97,-203 q -165,0 -333,-99 -167,-98 -270,-345 -103,-247 -103,-634 0,-625 248,-1079 249,-453 655,-453 303,0 500,250 197,250 197,860 0,762 -328,1200 -222,300 -566,300 z"
                 transform="scale(0.015625)" />
              <path
                 id="TimesNewRomanPSMT-6e"
                 d="m 1034,2341 q 504,606 960,606 234,0 403,-117 169,-117 269,-386 68,-188 68,-575 V 647 q 0,-272 44,-369 35,-78 111,-122 77,-43 283,-43 V 0 H 1756 v 113 h 60 q 200,0 279,60 80,61 111,180 13,47 13,294 v 1172 q 0,390 -102,567 -101,177 -342,177 -372,0 -741,-407 V 647 q 0,-291 35,-359 44,-91 120,-133 77,-42 311,-42 V 0 H 84 v 113 h 63 q 219,0 295,110 77,111 77,424 v 1062 q 0,516 -24,628 -23,113 -72,153 -48,41 -129,41 -88,0 -210,-47 l -46,113 862,350 h 134 z"
                 transform="scale(0.015625)" />
              <path
                 id="TimesNewRomanPSMT-64"
                 d="M 2222,322 Q 2013,103 1813,7 1613,-88 1381,-88 913,-88 563,304 213,697 213,1313 q 0,615 387,1126 388,511 997,511 378,0 625,-241 v 529 q 0,490 -24,602 -23,113 -73,153 -50,41 -125,41 -81,0 -216,-50 l -40,110 853,350 h 141 V 1134 q 0,-503 23,-614 23,-111 75,-155 52,-43 120,-43 85,0 225,53 l 35,-109 -850,-354 h -144 z m 0,219 v 1475 q -19,212 -113,387 -93,175 -248,264 -155,89 -302,89 -275,0 -490,-247 -285,-325 -285,-950 0,-631 275,-967 275,-336 613,-336 284,0 550,285 z"
                 transform="scale(0.015625)" />
              <path
                 id="TimesNewRomanPSMT-73"
                 d="m 2050,2947 v -975 h -103 q -119,459 -305,625 -186,166 -473,166 -219,0 -354,-116 -134,-116 -134,-256 0,-175 100,-300 97,-128 394,-272 l 456,-222 Q 2266,1288 2266,781 2266,391 1970,151 1675,-88 1309,-88 1047,-88 709,6 606,38 541,38 469,38 428,-44 H 325 V 978 H 428 Q 516,541 762,319 1009,97 1316,97 q 215,0 351,126 136,127 136,305 0,216 -152,363 -151,147 -604,372 -453,225 -594,406 -140,178 -140,450 0,353 242,590 242,238 626,238 169,0 410,-72 159,-47 212,-47 50,0 78,22 28,22 66,97 z"
                 transform="scale(0.015625)" />
              <path
                 id="TimesNewRomanPSMT-29"
                 d="m 144,4313 v 131 q 475,-235 790,-553 447,-457 691,-1071 244,-614 244,-1279 0,-969 -477,-1767 -476,-799 -1248,-1143 v 116 q 384,215 632,583 249,367 369,934 121,567 121,1183 0,666 -103,1216 -79,431 -196,690 -117,260 -311,500 -193,241 -512,460 z"
                 transform="scale(0.015625)" />
            </defs>
            <use
               xlink:href="#TimesNewRomanPSMT-54"
               id="use87" />
            <use
               xlink:href="#TimesNewRomanPSMT-69"
               x="57.583984"
               id="use89" />
            <use
               xlink:href="#TimesNewRomanPSMT-6d"
               x="85.367188"
               id="use91" />
            <use
               xlink:href="#TimesNewRomanPSMT-65"
               x="163.15039"
               id="use93" />
            <use
               xlink:href="#TimesNewRomanPSMT-20"
               x="207.53516"
               id="use95" />
            <use
               xlink:href="#TimesNewRomanPSMT-28"
               x="232.53516"
               id="use97" />
            <use
               xlink:href="#TimesNewRomanPSMT-53"
               x="265.83594"
               id="use99" />
            <use
               xlink:href="#TimesNewRomanPSMT-65"
               x="321.45117"
               id="use101" />
            <use
               xlink:href="#TimesNewRomanPSMT-63"
               x="365.83594"
               id="use103" />
            <use
               xlink:href="#TimesNewRomanPSMT-6f"
               x="410.2207"
               id="use105" />
            <use
               xlink:href="#TimesNewRomanPSMT-6e"
               x="460.2207"
               id="use107" />
            <use
               xlink:href="#TimesNewRomanPSMT-64"
               x="510.2207"
               id="use109" />
            <use
               xlink:href="#TimesNewRomanPSMT-73"
               x="560.2207"
               id="use111" />
            <use
               xlink:href="#TimesNewRomanPSMT-29"
               x="599.13672"
               id="use113" />
          </g>
        </g>
      </g>
      <g
         id="matplotlib.axis_2">
        <g
           id="ytick_1">
          <g
             id="line2d_4">
            <defs
               id="defs120">
              <path
                 id="me3aefa970a"
                 d="M 0,0 H -3.5"
                 style="stroke:#000000;stroke-width:0.8" />
            </defs>
            <g
               id="g124">
              <use
                 xlink:href="#me3aefa970a"
                 x="27"
                 y="315"
                 style="stroke:#000000;stroke-width:0.8"
                 id="use122" />
            </g>
          </g>
          <g
             id="text_5">
            <!-- −1.00 -->
            <g
               transform="matrix(0.12,0,0,-0.12,-7.766875,319.16625)"
               id="g140">
              <defs
                 id="defs128">
                <path
                   id="TimesNewRomanPSMT-2212"
                   d="M 3484,2000 H 116 v 256 h 3368 z"
                   transform="scale(0.015625)" />
              </defs>
              <use
                 xlink:href="#TimesNewRomanPSMT-2212"
                 id="use130" />
              <use
                 xlink:href="#TimesNewRomanPSMT-31"
                 x="56.396484"
                 id="use132" />
              <use
                 xlink:href="#TimesNewRomanPSMT-2e"
                 x="106.39648"
                 id="use134" />
              <use
                 xlink:href="#TimesNewRomanPSMT-30"
                 x="131.39648"
                 id="use136" />
              <use
                 xlink:href="#TimesNewRomanPSMT-30"
                 x="181.39648"
                 id="use138" />
            </g>
          </g>
        </g>
        <g
           id="ytick_2">
          <g
             id="line2d_5">
            <g
               id="g146">
              <use
                 xlink:href="#me3aefa970a"
                 x="27"
                 y="281.02499"
                 style="stroke:#000000;stroke-width:0.8"
                 id="use144" />
            </g>
          </g>
          <g
             id="text_6">
            <!-- −0.75 -->
            <g
               transform="matrix(0.12,0,0,-0.12,-7.766875,285.19125)"
               id="g162">
              <defs
                 id="defs150">
                <path
                   id="TimesNewRomanPSMT-37"
                   d="M 644,4238 H 2916 V 4119 L 1503,-88 H 1153 L 2419,3728 H 1253 q -353,0 -503,-84 -262,-144 -422,-444 l -90,34 z"
                   transform="scale(0.015625)" />
              </defs>
              <use
                 xlink:href="#TimesNewRomanPSMT-2212"
                 id="use152" />
              <use
                 xlink:href="#TimesNewRomanPSMT-30"
                 x="56.396484"
                 id="use154" />
              <use
                 xlink:href="#TimesNewRomanPSMT-2e"
                 x="106.39648"
                 id="use156" />
              <use
                 xlink:href="#TimesNewRomanPSMT-37"
                 x="131.39648"
                 id="use158" />
              <use
                 xlink:href="#TimesNewRomanPSMT-35"
                 x="181.39648"
                 id="use160" />
            </g>
          </g>
        </g>
        <g
           id="ytick_3">
          <g
             id="line2d_6">
            <g
               id="g168">
              <use
                 xlink:href="#me3aefa970a"
                 x="27"
                 y="247.05"
                 style="stroke:#000000;stroke-width:0.8"
                 id="use166" />
            </g>
          </g>
          <g
             id="text_7">
            <!-- −0.50 -->
            <g
               transform="matrix(0.12,0,0,-0.12,-7.766875,251.21625)"
               id="g181">
              <use
                 xlink:href="#TimesNewRomanPSMT-2212"
                 id="use171" />
              <use
                 xlink:href="#TimesNewRomanPSMT-30"
                 x="56.396484"
                 id="use173" />
              <use
                 xlink:href="#TimesNewRomanPSMT-2e"
                 x="106.39648"
                 id="use175" />
              <use
                 xlink:href="#TimesNewRomanPSMT-35"
                 x="131.39648"
                 id="use177" />
              <use
                 xlink:href="#TimesNewRomanPSMT-30"
                 x="181.39648"
                 id="use179" />
            </g>
          </g>
        </g>
        <g
           id="ytick_4">
          <g
             id="line2d_7">
            <g
               id="g187">
              <use
                 xlink:href="#me3aefa970a"
                 x="27"
                 y="213.075"
                 style="stroke:#000000;stroke-width:0.8"
                 id="use185" />
            </g>
          </g>
          <g
             id="text_8">
            <!-- −0.25 -->
            <g
               transform="matrix(0.12,0,0,-0.12,-7.766875,217.24125)"
               id="g203">
              <defs
                 id="defs191">
                <path
                   id="TimesNewRomanPSMT-32"
                   d="M 2934,816 2638,0 H 138 v 116 q 1103,1006 1553,1643 450,638 450,1166 0,403 -247,662 -247,260 -591,260 -312,0 -561,-183 Q 494,3481 375,3128 H 259 q 79,578 402,887 323,310 808,310 515,0 860,-331 346,-331 346,-781 0,-322 -150,-644 Q 2294,2063 1775,1497 997,647 803,472 h 1106 q 338,0 474,25 136,25 245,101 110,77 191,218 z"
                   transform="scale(0.015625)" />
              </defs>
              <use
                 xlink:href="#TimesNewRomanPSMT-2212"
                 id="use193" />
              <use
                 xlink:href="#TimesNewRomanPSMT-30"
                 x="56.396484"
                 id="use195" />
              <use
                 xlink:href="#TimesNewRomanPSMT-2e"
                 x="106.39648"
                 id="use197" />
              <use
                 xlink:href="#TimesNewRomanPSMT-32"
                 x="131.39648"
                 id="use199" />
              <use
                 xlink:href="#TimesNewRomanPSMT-35"
                 x="181.39648"
                 id="use201" />
            </g>
          </g>
        </g>
        <g
           id="ytick_5">
          <g
             id="line2d_8">
            <g
               id="g209">
              <use
                 xlink:href="#me3aefa970a"
                 x="27"
                 y="179.10001"
                 style="stroke:#000000;stroke-width:0.8"
                 id="use207" />
            </g>
          </g>
          <g
             id="text_9">
            <!-- 0.00 -->
            <g
               transform="matrix(0.12,0,0,-0.12,-1,183.26625)"
               id="g220">
              <use
                 xlink:href="#TimesNewRomanPSMT-30"
                 id="use212" />
              <use
                 xlink:href="#TimesNewRomanPSMT-2e"
                 x="50"
                 id="use214" />
              <use
                 xlink:href="#TimesNewRomanPSMT-30"
                 x="75"
                 id="use216" />
              <use
                 xlink:href="#TimesNewRomanPSMT-30"
                 x="125"
                 id="use218" />
            </g>
          </g>
        </g>
        <g
           id="ytick_6">
          <g
             id="line2d_9">
            <g
               id="g226">
              <use
                 xlink:href="#me3aefa970a"
                 x="27"
                 y="145.125"
                 style="stroke:#000000;stroke-width:0.8"
                 id="use224" />
            </g>
          </g>
          <g
             id="text_10">
            <!-- 0.25 -->
            <g
               transform="matrix(0.12,0,0,-0.12,-1,149.29125)"
               id="g237">
              <use
                 xlink:href="#TimesNewRomanPSMT-30"
                 id="use229" />
              <use
                 xlink:href="#TimesNewRomanPSMT-2e"
                 x="50"
                 id="use231" />
              <use
                 xlink:href="#TimesNewRomanPSMT-32"
                 x="75"
                 id="use233" />
              <use
                 xlink:href="#TimesNewRomanPSMT-35"
                 x="125"
                 id="use235" />
            </g>
          </g>
        </g>
        <g
           id="ytick_7">
          <g
             id="line2d_10">
            <g
               id="g243">
              <use
                 xlink:href="#me3aefa970a"
                 x="27"
                 y="111.15"
                 style="stroke:#000000;stroke-width:0.8"
                 id="use241" />
            </g>
          </g>
          <g
             id="text_11">
            <!-- 0.50 -->
            <g
               transform="matrix(0.12,0,0,-0.12,-1,115.31625)"
               id="g254">
              <use
                 xlink:href="#TimesNewRomanPSMT-30"
                 id="use246" />
              <use
                 xlink:href="#TimesNewRomanPSMT-2e"
                 x="50"
                 id="use248" />
              <use
                 xlink:href="#TimesNewRomanPSMT-35"
                 x="75"
                 id="use250" />
              <use
                 xlink:href="#TimesNewRomanPSMT-30"
                 x="125"
                 id="use252" />
            </g>
          </g>
        </g>
        <g
           id="ytick_8">
          <g
             id="line2d_11">
            <g
               id="g260">
              <use
                 xlink:href="#me3aefa970a"
                 x="27"
                 y="77.175003"
                 style="stroke:#000000;stroke-width:0.8"
                 id="use258" />
            </g>
          </g>
          <g
             id="text_12">
            <!-- 0.75 -->
            <g
               transform="matrix(0.12,0,0,-0.12,-1,81.34125)"
               id="g271">
              <use
                 xlink:href="#TimesNewRomanPSMT-30"
                 id="use263" />
              <use
                 xlink:href="#TimesNewRomanPSMT-2e"
                 x="50"
                 id="use265" />
              <use
                 xlink:href="#TimesNewRomanPSMT-37"
                 x="75"
                 id="use267" />
              <use
                 xlink:href="#TimesNewRomanPSMT-35"
                 x="125"
                 id="use269" />
            </g>
          </g>
        </g>
        <g
           id="ytick_9">
          <g
             id="line2d_12">
            <g
               id="g277">
              <use
                 xlink:href="#me3aefa970a"
                 x="27"
                 y="43.200001"
                 style="stroke:#000000;stroke-width:0.8"
                 id="use275" />
            </g>
          </g>
          <g
             id="text_13">
            <!-- 1.00 -->
            <g
               transform="matrix(0.12,0,0,-0.12,-1,47.36625)"
               id="g288">
              <use
                 xlink:href="#TimesNewRomanPSMT-31"
                 id="use280" />
              <use
                 xlink:href="#TimesNewRomanPSMT-2e"
                 x="50"
                 id="use282" />
              <use
                 xlink:href="#TimesNewRomanPSMT-30"
                 x="75"
                 id="use284" />
              <use
                 xlink:href="#TimesNewRomanPSMT-30"
                 x="125"
                 id="use286" />
            </g>
          </g>
        </g>
        <g
           id="text_14">
          <!-- Amplitude -->
          <g
             transform="matrix(0,-0.12,-0.12,0,-14.33375,204.76406)"
             id="g317">
            <defs
               id="defs297">
              <path
                 id="TimesNewRomanPSMT-41"
                 d="M 2928,1419 H 1288 L 1000,750 Q 894,503 894,381 q 0,-97 92,-170 92,-73 398,-95 V 0 H 50 v 116 q 266,47 344,122 159,150 353,609 l 1491,3487 h 109 L 3822,809 Q 4000,384 4145,257 4291,131 4550,116 V 0 H 2878 v 116 q 253,12 342,84 89,72 89,175 0,138 -125,434 z m -87,231 -719,1713 -738,-1713 z"
                 transform="scale(0.015625)" />
              <path
                 id="TimesNewRomanPSMT-70"
                 d="m -6,2578 881,356 h 119 v -668 q 222,378 445,529 224,152 470,152 432,0 719,-338 353,-412 353,-1075 0,-740 -425,-1225 -350,-397 -881,-397 -231,0 -400,66 -125,47 -281,188 v -872 q 0,-294 36,-373 36,-80 125,-127 89,-47 323,-47 v -116 H -22 v 116 h 78 q 172,-3 294,65 59,35 92,112 33,76 33,388 v 2707 q 0,278 -25,353 -25,75 -80,112 -54,38 -148,38 -75,0 -191,-44 z M 994,2081 V 1013 q 0,-347 28,-457 44,-181 214,-319 170,-137 430,-137 312,0 506,244 253,319 253,897 0,656 -287,1009 -200,244 -475,244 -150,0 -297,-75 -113,-56 -372,-338 z"
                 transform="scale(0.015625)" />
              <path
                 id="TimesNewRomanPSMT-6c"
                 d="M 1184,4444 V 647 q 0,-269 39,-357 40,-87 121,-132 81,-45 303,-45 V 0 H 244 v 113 q 197,0 268,40 72,41 113,134 41,94 41,360 v 2600 q 0,484 -22,595 -22,111 -71,151 -48,41 -123,41 -81,0 -206,-50 l -53,110 853,350 z"
                 transform="scale(0.015625)" />
              <path
                 id="TimesNewRomanPSMT-74"
                 d="m 1031,3803 v -940 h 669 V 2644 H 1031 V 788 q 0,-279 80,-376 80,-96 205,-96 103,0 200,64 97,64 150,189 h 122 Q 1678,263 1478,108 1278,-47 1066,-47 922,-47 784,33 647,113 581,261 516,409 516,719 V 2644 H 63 v 103 q 171,69 351,233 180,164 320,389 72,119 200,434 z"
                 transform="scale(0.015625)" />
              <path
                 id="TimesNewRomanPSMT-75"
                 d="M 2709,2863 V 1128 q 0,-497 23,-608 24,-111 75,-155 52,-43 121,-43 97,0 219,53 L 3191,266 2334,-88 H 2194 V 519 Q 1825,119 1631,15 1438,-88 1222,-88 981,-88 804,51 628,191 559,409 491,628 491,1028 v 1278 q 0,203 -44,281 -44,79 -130,121 -86,42 -311,39 v 116 H 1009 V 947 q 0,-400 139,-525 140,-125 336,-125 135,0 305,84 170,85 405,322 v 1622 q 0,244 -89,330 -89,86 -371,92 v 116 z"
                 transform="scale(0.015625)" />
            </defs>
            <use
               xlink:href="#TimesNewRomanPSMT-41"
               id="use299" />
            <use
               xlink:href="#TimesNewRomanPSMT-6d"
               x="72.216797"
               id="use301" />
            <use
               xlink:href="#TimesNewRomanPSMT-70"
               x="150"
               id="use303" />
            <use
               xlink:href="#TimesNewRomanPSMT-6c"
               x="200"
               id="use305" />
            <use
               xlink:href="#TimesNewRomanPSMT-69"
               x="227.7832"
               id="use307" />
            <use
               xlink:href="#TimesNewRomanPSMT-74"
               x="255.56641"
               id="use309" />
            <use
               xlink:href="#TimesNewRomanPSMT-75"
               x="283.34961"
               id="use311" />
            <use
               xlink:href="#TimesNewRomanPSMT-64"
               x="333.34961"
               id="use313" />
            <use
               xlink:href="#TimesNewRomanPSMT-65"
               x="383.34961"
               id="use315" />
          </g>
        </g>
      </g>
      <g
         id="line2d_13">
        <path
           d="m 34.609091,179.1 h 3.623377 3.623376 3.623377 3.623376 3.623377 l 3.623377,63.77912 3.623376,-141.4762 3.623377,38.44947 3.623377,9.97614 3.623376,29.27147 h 3.623377 3.623376 3.623377 3.623377 3.623376 3.623377 3.623377 3.623376 3.62338 3.62337 3.62338 3.62338 3.62337 3.62338 3.62338 3.62337 3.62338 3.62338 l 3.62337,-86.312812 3.62338,104.167962 3.62338,-42.39009 3.62337,24.53494 h 3.62338 3.62338 3.62337 3.62338 3.62338 3.62337 3.62338 3.62338 3.62337 3.62338"
           clip-path="url(#pf97b0471ce)"
           style="fill:none;stroke:#1f77b4;stroke-width:1.5;stroke-linecap:square"
           id="path321" />
      </g>
      <g
         id="patch_3">
        <path
           d="M 27,315 V 43.2"
           style="fill:none;stroke:#000000;stroke-width:0.8;stroke-linecap:square;stroke-linejoin:miter"
           id="path324" />
      </g>
      <g
         id="patch_4">
        <path
           d="M 194.4,315 V 43.2"
           style="fill:none;stroke:#000000;stroke-width:0.8;stroke-linecap:square;stroke-linejoin:miter"
           id="path327" />
      </g>
      <g
         id="patch_5">
        <path
           d="M 27,315 H 194.4"
           style="fill:none;stroke:#000000;stroke-width:0.8;stroke-linecap:square;stroke-linejoin:miter"
           id="path330" />
      </g>
      <g
         id="patch_6">
        <path
           d="M 27,43.2 H 194.4"
           style="fill:none;stroke:#000000;stroke-width:0.8;stroke-linecap:square;stroke-linejoin:miter"
           id="path333" />
      </g>
    </g>
  </g>
  <defs
     id="defs341">
    <clipPath
       id="pf97b0471ce">
      <rect
         x="27"
         y="43.200001"
         width="167.39999"
         height="271.79999"
         id="rect338" />
    </clipPath>
  </defs>
</svg>
