<svg xmlns="http://www.w3.org/2000/svg" xmlns:xlink="http://www.w3.org/1999/xlink" xmlns:lucid="lucid" width="1220" height="406.33"><g transform="translate(-80 -149)" lucid:page-tab-id="0_0"><path d="M282 240h80v100h-80z" stroke="#000" stroke-width="2" fill-opacity="0"/><use xlink:href="#a" transform="matrix(1,0,0,1,287,245) translate(28.28884548611111 51.564670138888886)"/><path d="M280.5 221a.5.5 0 0 1 .5-.5h78a.5.5 0 0 1 .5.5.5.5 0 0 1-.5.5h-78a.5.5 0 0 1-.5-.5zM280.5 171a.5.5 0 0 1 .5.5v48a.5.5 0 0 1-.5.5.5.5 0 0 1-.5-.5v-48a.5.5 0 0 1 .5-.5zM360.5 171a.5.5 0 0 1 .5.5v49a.5.5 0 0 1-.5.5.5.5 0 0 1-.5-.5v-49a.5.5 0 0 1 .5-.5z" stroke="#000" fill="none"/><path d="M281 359h80v100h-80z" stroke="#000" stroke-width="2" fill-opacity="0"/><use xlink:href="#a" transform="matrix(1,0,0,1,286,364) translate(28.28884548611111 51.564670138888886)"/><path d="M362.5 479a.5.5 0 0 1-.5.5h-78a.5.5 0 0 1-.5-.5.5.5 0 0 1 .5-.5h78a.5.5 0 0 1 .5.5zM362.5 529a.5.5 0 0 1-.5-.5v-48a.5.5 0 0 1 .5-.5.5.5 0 0 1 .5.5v48a.5.5 0 0 1-.5.5zM282.5 529a.5.5 0 0 1-.5-.5v-49a.5.5 0 0 1 .5-.5.5.5 0 0 1 .5.5v49a.5.5 0 0 1-.5.5z" stroke="#000" fill="none"/><path d="M440 180h100v100H440z" stroke="#000" stroke-width="2" fill-opacity="0"/><use xlink:href="#b" transform="matrix(1,0,0,1,445,185) translate(23.184678819444443 51.564670138888886)"/><path d="M440 300h100v100H440z" stroke="#000" stroke-width="2" fill-opacity="0"/><use xlink:href="#b" transform="matrix(1,0,0,1,445,305) translate(23.184678819444443 51.564670138888886)"/><path d="M440 420h100v100H440z" stroke="#000" stroke-width="2" fill-opacity="0"/><use xlink:href="#b" transform="matrix(1,0,0,1,445,425) translate(23.184678819444443 51.564670138888886)"/><path d="M420.5 202.6l-59.98.7" stroke="#3a414a" stroke-width="2" fill="none"/><path d="M435.76 202.43l-14.2 4.8-.1-9.27z" stroke="#3a414a" stroke-width="2" fill="#3a414a"/><path d="M359.52 204.3l-3 .04-.02-2 3.02-.03z" stroke="#3a414a" stroke-width=".05" fill="#3a414a"/><path d="M364 256.93h36.66a.34.34 0 0 1 .34.34.34.34 0 0 0 .34.33h19.16" stroke="#3a414a" stroke-width="2" fill="none"/><path d="M364.03 257.93H363v-2h1.03z" stroke="#3a414a" stroke-width=".05" fill="#3a414a"/><path d="M435.76 257.6l-14.26 4.64v-9.27z" stroke="#3a414a" stroke-width="2" fill="#3a414a"/><path d="M364 319.02h36.67a.33.33 0 0 0 .33-.33.33.33 0 0 1 .33-.34h19.17" stroke="#3a414a" stroke-width="2" fill="none"/><path d="M364.03 320.02H363v-2h1.03z" stroke="#3a414a" stroke-width=".05" fill="#3a414a"/><path d="M435.76 318.36L421.5 323v-9.28z" stroke="#3a414a" stroke-width="2" fill="#3a414a"/><path d="M363 378.3h37.17a.33.33 0 0 1 .33.32.33.33 0 0 0 .33.33h19.67" stroke="#3a414a" stroke-width="2" fill="none"/><path d="M363.03 379.3H362v-2h1.03z" stroke="#3a414a" stroke-width=".05" fill="#3a414a"/><path d="M435.76 378.95l-14.26 4.64v-9.28z" stroke="#3a414a" stroke-width="2" fill="#3a414a"/><path d="M363 441.73h37.16a.34.34 0 0 0 .34-.34.34.34 0 0 1 .34-.35h19.66" stroke="#3a414a" stroke-width="2" fill="none"/><path d="M363.03 442.73H362v-2h1.03z" stroke="#3a414a" stroke-width=".05" fill="#3a414a"/><path d="M435.76 441.05l-14.26 4.63v-9.27z" stroke="#3a414a" stroke-width="2" fill="#3a414a"/><path d="M420.5 497.6h-19.2a.05.05 0 0 0-.06.05.05.05 0 0 1-.05.05h-36.72" stroke="#3a414a" stroke-width="2" fill="none"/><path d="M435.76 497.6l-14.26 4.64v-9.27z" stroke="#3a414a" stroke-width="2" fill="#3a414a"/><path d="M361.5 498.7h-1.02v-2h1.03zm3 0h-1.02v-2h1.03z" stroke="#3a414a" stroke-width=".05" fill="#3a414a"/><path d="M100 176a6 6 0 0 1 6-6h90a6 6 0 0 1 6 6v98a6 6 0 0 1-6 6h-90a6 6 0 0 1-6-6z" fill="none"/><path d="M202 280c-5.52 0-10-4.48-10-10v-35c0-5.52-4.48-10-10-10 5.52 0 10-4.48 10-10v-35c0-5.52 4.48-10 10-10" stroke="#3a414a" stroke-width="2" fill="none"/><use xlink:href="#c" transform="matrix(1,0,0,1,105,175) translate(3.6775173611111 44.759114583333336)"/><use xlink:href="#d" transform="matrix(1,0,0,1,105,175) translate(3.818576388888893 70.62717013888889)"/><path d="M120 296a6 6 0 0 1 6-6h70a6 6 0 0 1 6 6v98a6 6 0 0 1-6 6h-70a6 6 0 0 1-6-6z" fill="none"/><path d="M202 400c-5.52 0-10-4.48-10-10v-35c0-5.52-4.48-10-10-10 5.52 0 10-4.48 10-10v-35c0-5.52 4.48-10 10-10" stroke="#3a414a" stroke-width="2" fill="none"/><use xlink:href="#c" transform="matrix(1,0,0,1,125,295) translate(-16.3224826388889 44.759114583333336)"/><use xlink:href="#d" transform="matrix(1,0,0,1,125,295) translate(-16.181423611111107 70.62717013888889)"/><path d="M100 421a6 6 0 0 1 6-6h90a6 6 0 0 1 6 6v98a6 6 0 0 1-6 6h-90a6 6 0 0 1-6-6z" fill="none"/><path d="M202 525c-5.52 0-10-4.48-10-10v-35c0-5.52-4.48-10-10-10 5.52 0 10-4.48 10-10v-35c0-5.52 4.48-10 10-10" stroke="#3a414a" stroke-width="2" fill="none"/><use xlink:href="#c" transform="matrix(1,0,0,1,105,420) translate(3.6775173611111 44.759114583333336)"/><use xlink:href="#d" transform="matrix(1,0,0,1,105,420) translate(3.818576388888893 70.62717013888889)"/><path d="M194 202.4l67.02.72M194.03 202.4l-4.03-.03" stroke="#3a414a" stroke-width="2" fill="none"/><path d="M276.28 203.3l-14.3 4.47.08-9.27z" stroke="#3a414a" stroke-width="2" fill="#3a414a"/><path d="M194 259.06l68.5-.6M194.03 259.06l-4.03.04" stroke="#3a414a" stroke-width="2" fill="none"/><path d="M277.76 258.3l-14.22 4.77-.08-9.27z" stroke="#3a414a" stroke-width="2" fill="#3a414a"/><path d="M194 314.2l68.5.6M194.03 314.2l-4.03-.04" stroke="#3a414a" stroke-width="2" fill="none"/><path d="M277.76 314.94l-14.3 4.5.08-9.26z" stroke="#3a414a" stroke-width="2" fill="#3a414a"/><path d="M194 376.48l67.5-.7M194.03 376.48l-4.03.04" stroke="#3a414a" stroke-width="2" fill="none"/><path d="M276.76 375.63l-14.2 4.78-.1-9.26z" stroke="#3a414a" stroke-width="2" fill="#3a414a"/><path d="M194 442.35l67.5.57M194.03 442.35l-4.03-.04" stroke="#3a414a" stroke-width="2" fill="none"/><path d="M276.76 443.05l-14.3 4.52.08-9.27z" stroke="#3a414a" stroke-width="2" fill="#3a414a"/><path d="M194 500.36l70.98.06M194.03 500.36H190" stroke="#3a414a" stroke-width="2" fill="none"/><path d="M280.25 500.44l-14.27 4.62v-9.27z" stroke="#3a414a" stroke-width="2" fill="#3a414a"/><path d="M600 175a6 6 0 0 1 6-6h168a6 6 0 0 1 6 6v348a6 6 0 0 1-6 6H606a6 6 0 0 1-6-6z" stroke="#000" stroke-opacity="0" stroke-width="2" fill-opacity="0"/><use xlink:href="#e" transform="matrix(-1.8369701987210297e-16,-1,1,-1.8369701987210297e-16,605,524) translate(88.77495659722221 79.06467013888889)"/><use xlink:href="#f" transform="matrix(-1.8369701987210297e-16,-1,1,-1.8369701987210297e-16,605,524) translate(185.66080729166669 79.06467013888889)"/><use xlink:href="#g" transform="matrix(-1.8369701987210297e-16,-1,1,-1.8369701987210297e-16,605,524) translate(46.16427951388886 104.93272569444444)"/><use xlink:href="#h" transform="matrix(-1.8369701987210297e-16,-1,1,-1.8369701987210297e-16,605,524) translate(131.10351562499997 104.93272569444444)"/><use xlink:href="#i" transform="matrix(-1.8369701987210297e-16,-1,1,-1.8369701987210297e-16,605,524) translate(180.50672743055554 104.93272569444444)"/><path d="M542 230h39.5" stroke="#3a414a" stroke-width="2" fill="none"/><path d="M542.03 231H541v-2h1.03z" stroke="#3a414a" stroke-width=".05" fill="#3a414a"/><path d="M596.77 230l-14.26 4.64v-9.28z" stroke="#3a414a" stroke-width="2" fill="#3a414a"/><path d="M542 350h39.54" stroke="#3a414a" stroke-width="2" fill="none"/><path d="M542.03 351H541v-2h1.03z" stroke="#3a414a" stroke-width=".05" fill="#3a414a"/><path d="M596.8 350l-14.26 4.64v-9.28z" stroke="#3a414a" stroke-width="2" fill="#3a414a"/><path d="M542 470h39.56" stroke="#3a414a" stroke-width="2" fill="none"/><path d="M542.03 471H541v-2h1.03z" stroke="#3a414a" stroke-width=".05" fill="#3a414a"/><path d="M596.83 470l-14.27 4.64v-9.28z" stroke="#3a414a" stroke-width="2" fill="#3a414a"/><path d="M840 180h100v100H840z" stroke="#000" stroke-width="2" fill-opacity="0"/><use xlink:href="#j" transform="matrix(1,0,0,1,845,185) translate(16.424696180555554 51.564670138888886)"/><path d="M840 300h100v100H840z" stroke="#000" stroke-width="2" fill-opacity="0"/><use xlink:href="#j" transform="matrix(1,0,0,1,845,305) translate(16.424696180555554 51.564670138888886)"/><path d="M840 420h100v100H840z" stroke="#000" stroke-width="2" fill-opacity="0"/><use xlink:href="#j" transform="matrix(1,0,0,1,845,425) translate(16.424696180555554 51.564670138888886)"/><path d="M1022 241.33h80v100h-80z" stroke="#000" stroke-width="2" fill-opacity="0"/><use xlink:href="#k" transform="matrix(1,0,0,1,1027,246.33333333333337) translate(21.52886284722222 51.564670138888886)"/><path d="M1020.5 222.33a.5.5 0 0 1 .5-.5h78a.5.5 0 0 1 .5.5.5.5 0 0 1-.5.5h-78a.5.5 0 0 1-.5-.5zM1020.5 172.33a.5.5 0 0 1 .5.5v48a.5.5 0 0 1-.5.5.5.5 0 0 1-.5-.5v-48a.5.5 0 0 1 .5-.5zM1100.5 172.33a.5.5 0 0 1 .5.5v49a.5.5 0 0 1-.5.5.5.5 0 0 1-.5-.5v-49a.5.5 0 0 1 .5-.5z" stroke="#000" fill="none"/><path d="M1021 360.33h80v100h-80z" stroke="#000" stroke-width="2" fill-opacity="0"/><use xlink:href="#k" transform="matrix(1,0,0,1,1026,365.33333333333326) translate(21.52886284722222 51.564670138888886)"/><path d="M1102.5 480.33a.5.5 0 0 1-.5.5h-78a.5.5 0 0 1-.5-.5.5.5 0 0 1 .5-.5h78a.5.5 0 0 1 .5.5zM1102.5 530.33a.5.5 0 0 1-.5-.5v-48a.5.5 0 0 1 .5-.5.5.5 0 0 1 .5.5v48a.5.5 0 0 1-.5.5zM1022.5 530.33a.5.5 0 0 1-.5-.5v-49a.5.5 0 0 1 .5-.5.5.5 0 0 1 .5.5v49a.5.5 0 0 1-.5.5z" stroke="#000" fill="none"/><path d="M820.5 230h-39.56" stroke="#3a414a" stroke-width="2" fill="none"/><path d="M835.76 230l-14.26 4.64v-9.28z" stroke="#3a414a" stroke-width="2" fill="#3a414a"/><path d="M780.96 231h-1.02v-2h1.02z" stroke="#3a414a" stroke-width=".05" fill="#3a414a"/><path d="M820.5 350h-39.54" stroke="#3a414a" stroke-width="2" fill="none"/><path d="M835.76 350l-14.26 4.64v-9.28z" stroke="#3a414a" stroke-width="2" fill="#3a414a"/><path d="M781 351h-1.04v-2H781z" stroke="#3a414a" stroke-width=".05" fill="#3a414a"/><path d="M820.5 470H781" stroke="#3a414a" stroke-width="2" fill="none"/><path d="M835.76 470l-14.26 4.64v-9.28z" stroke="#3a414a" stroke-width="2" fill="#3a414a"/><path d="M781 471h-1v-2h1z" stroke="#3a414a" stroke-width=".05" fill="#3a414a"/><path d="M942 195.66h37.84a.42.42 0 0 1 .42.42.42.42 0 0 0 .4.4h20.35" stroke="#3a414a" stroke-width="2" fill="none"/><path d="M942.03 196.66H941v-2h1.03z" stroke="#3a414a" stroke-width=".05" fill="#3a414a"/><path d="M1016.28 196.5l-14.27 4.63v-9.27z" stroke="#3a414a" stroke-width="2" fill="#3a414a"/><path d="M942 258.95h38.66a.34.34 0 0 0 .34-.34.34.34 0 0 1 .34-.34h21.16" stroke="#3a414a" stroke-width="2" fill="none"/><path d="M942.03 259.95H941v-2h1.03z" stroke="#3a414a" stroke-width=".05" fill="#3a414a"/><path d="M1017.76 258.26l-14.26 4.64v-9.27z" stroke="#3a414a" stroke-width="2" fill="#3a414a"/><path d="M942 318.36h38.68a.32.32 0 0 1 .32.32.32.32 0 0 0 .32.32h21.18" stroke="#3a414a" stroke-width="2" fill="none"/><path d="M942.03 319.36H941v-2h1.03z" stroke="#3a414a" stroke-width=".05" fill="#3a414a"/><path d="M1017.76 319l-14.26 4.64v-9.27z" stroke="#3a414a" stroke-width="2" fill="#3a414a"/><path d="M942 380.3h38.16a.34.34 0 0 0 .34-.34.34.34 0 0 1 .34-.33h20.66" stroke="#3a414a" stroke-width="2" fill="none"/><path d="M942.03 381.3H941v-2h1.03z" stroke="#3a414a" stroke-width=".05" fill="#3a414a"/><path d="M1016.76 379.63l-14.26 4.63V375z" stroke="#3a414a" stroke-width="2" fill="#3a414a"/><path d="M942 439.7h38.17a.33.33 0 0 1 .33.33.33.33 0 0 0 .33.34h20.67" stroke="#3a414a" stroke-width="2" fill="none"/><path d="M942.03 440.7H941v-2h1.03z" stroke="#3a414a" stroke-width=".05" fill="#3a414a"/><path d="M1016.76 440.37L1002.5 445v-9.27z" stroke="#3a414a" stroke-width="2" fill="#3a414a"/><path d="M942 496.26l62.98.04" stroke="#3a414a" stroke-width="2" fill="none"/><path d="M942.03 495.26v2H941v-2z" stroke="#3a414a" stroke-width=".05" fill="#3a414a"/><path d="M1020.25 496.3l-14.27 4.64v-9.27z" stroke="#3a414a" stroke-width="2" fill="#3a414a"/><path d="M1180 175a6 6 0 0 1 6-6h88a6 6 0 0 1 6 6v99a6 6 0 0 1-6 6h-88a6 6 0 0 1-6-6z" fill="none"/><path d="M1180 280c5.52 0 10-4.48 10-10v-35.5c0-5.52 4.48-10 10-10-5.52 0-10-4.48-10-10V179c0-5.52-4.48-10-10-10" stroke="#3a414a" stroke-width="2" fill="none"/><use xlink:href="#c" transform="matrix(1,0,0,1,1215,174) translate(0 45.259114583333336)"/><use xlink:href="#d" transform="matrix(1,0,0,1,1215,174) translate(0 71.12717013888889)"/><path d="M1180 300.5a6 6 0 0 1 6-6h88a6 6 0 0 1 6 6v99a6 6 0 0 1-6 6h-88a6 6 0 0 1-6-6z" fill="none"/><path d="M1180 405.5c5.52 0 10-4.48 10-10V360c0-5.52 4.48-10 10-10-5.52 0-10-4.48-10-10v-35.5c0-5.52-4.48-10-10-10" stroke="#3a414a" stroke-width="2" fill="none"/><use xlink:href="#c" transform="matrix(1,0,0,1,1215,299.5) translate(0 45.259114583333336)"/><use xlink:href="#d" transform="matrix(1,0,0,1,1215,299.5) translate(0 71.12717013888889)"/><path d="M1180 430.33a6 6 0 0 1 6-6h68a6 6 0 0 1 6 6v99a6 6 0 0 1-6 6h-68a6 6 0 0 1-6-6z" fill="none"/><path d="M1180 535.33c5.52 0 10-4.47 10-10v-35.5c0-5.52 4.48-10 10-10-5.52 0-10-4.47-10-10v-35.5c0-5.52-4.48-10-10-10" stroke="#3a414a" stroke-width="2" fill="none"/><use xlink:href="#c" transform="matrix(1,0,0,1,1215,429.33333333333326) translate(0 45.259114583333336)"/><use xlink:href="#d" transform="matrix(1,0,0,1,1215,429.33333333333326) translate(0 71.12717013888889)"/><path d="M1170.5 198.52l-70 .67" stroke="#3a414a" stroke-width="2" fill="none"/><path d="M1185.76 198.38l-14.22 4.77-.1-9.27z" stroke="#3a414a" stroke-width="2" fill="#3a414a"/><path d="M1099.5 200.2l-2.98.03-.02-2 3-.03z" stroke="#3a414a" stroke-width=".05" fill="#3a414a"/><path d="M1104 259.6h42.97a.03.03 0 0 0 .03-.02.03.03 0 0 1 .03-.03h25.47" stroke="#3a414a" stroke-width="2" fill="none"/><path d="M1104.03 260.6H1103v-2h1.03z" stroke="#3a414a" stroke-width=".05" fill="#3a414a"/><path d="M1187.76 259.55l-14.26 4.64v-9.28z" stroke="#3a414a" stroke-width="2" fill="#3a414a"/><path d="M1104 310.9h42.87a.13.13 0 0 1 .13.13.13.13 0 0 0 .13.13h25.37" stroke="#3a414a" stroke-width="2" fill="none"/><path d="M1104.03 311.9H1103v-2h1.03z" stroke="#3a414a" stroke-width=".05" fill="#3a414a"/><path d="M1187.76 311.16l-14.26 4.64v-9.27z" stroke="#3a414a" stroke-width="2" fill="#3a414a"/><path d="M1103 387.72h43.4a.1.1 0 0 0 .1-.1.1.1 0 0 1 .1-.1h25.9" stroke="#3a414a" stroke-width="2" fill="none"/><path d="M1103.03 388.72H1102v-2h1.03z" stroke="#3a414a" stroke-width=".05" fill="#3a414a"/><path d="M1187.76 387.52l-14.26 4.63v-9.27z" stroke="#3a414a" stroke-width="2" fill="#3a414a"/><path d="M1103 445.77h43.42a.08.08 0 0 1 .08.07.08.08 0 0 0 .08.08h25.92" stroke="#3a414a" stroke-width="2" fill="none"/><path d="M1103.03 446.77H1102v-2h1.03z" stroke="#3a414a" stroke-width=".05" fill="#3a414a"/><path d="M1187.76 445.92l-14.26 4.63v-9.27z" stroke="#3a414a" stroke-width="2" fill="#3a414a"/><path d="M1170.5 503.04h-24.22a.04.04 0 0 0-.04.04.04.04 0 0 1-.04.04h-41.7" stroke="#3a414a" stroke-width="2" fill="none"/><path d="M1185.76 503.04l-14.26 4.64v-9.27z" stroke="#3a414a" stroke-width="2" fill="#3a414a"/><path d="M1101.5 504.12h-1v-2h1zm3 0h-1v-2h1z" stroke="#3a414a" stroke-width=".05" fill="#3a414a"/><defs><path fill="#3a414a" d="M479-223C473-90 582-80 715-86V0H78v-86c122 7 194-27 194-147v-1004c3-115-76-146-194-139v-86h575c309 2 504 125 504 428 0 321-213 462-549 465H479v346zm457-803c0-225-92-342-318-338H479v698h109c246 7 348-114 348-360" id="l"/><use transform="matrix(0.010850694444444444,0,0,0.010850694444444444,0,0)" xlink:href="#l" id="a"/><path fill="#3a414a" d="M705-1462c450 9 667 274 667 729S1160 0 705 0H78v-86c122 7 194-27 194-147v-1004c3-115-76-146-194-139v-86h627zm440 729c2-374-134-623-486-627H479v1256h178c362-7 486-260 488-629" id="m"/><path fill="#3a414a" d="M1141-289c47 27 51 110 13 159C1076-28 927 20 739 20c-439 0-622-310-622-753 0-346 130-585 372-695 199-90 579-71 673 84 39 64 27 161-25 196-32 21-74 38-127 38-5-158-78-264-240-264-349 0-426 285-426 641 0 266 62 478 232 573 54 30 119 45 194 45 183 1 293-72 371-174" id="n"/><path fill="#3a414a" d="M307-86c126 7 215-13 215-137v-1137c-117 7-264-23-322 50-39 48-42 130-53 206H41l10-358h1153l10 358h-106c-10-135-29-256-180-256H729v1127c-5 128 84 155 215 147V0H307v-86" id="o"/><g id="b"><use transform="matrix(0.010850694444444444,0,0,0.010850694444444444,0,0)" xlink:href="#m"/><use transform="matrix(0.010850694444444444,0,0,0.010850694444444444,16.15668402777778,0)" xlink:href="#n"/><use transform="matrix(0.010850694444444444,0,0,0.010850694444444444,30.013020833333336,0)" xlink:href="#o"/></g><path fill="#3a414a" d="M582-1376c-110-11-194 23-165 133 93 347 204 685 288 1042 85-436 219-833 327-1247h148c114 414 249 815 344 1247 74-363 203-697 282-1053 24-107-68-129-180-122v-86h500v86c-89-7-140 16-165 77-9 21-20 48-30 82L1585 0h-184l-334-1147L754 0H565L190-1268c-20-78-67-116-172-108v-86h564v86" id="p"/><path fill="#3a414a" d="M467-106c176 0 267-107 272-285v-166c-189 6-378 9-423 154-10 31-15 66-15 106 0 123 47 191 166 191zm272-535c5-199 13-375-190-375-142 0-190 83-187 223-106-2-174-27-174-129 0-169 191-191 369-196 250-7 375 104 375 354v531c-3 100 32 153 133 147V0H788l-32-176h-17C664-76 596 23 420 20 213 16 102-97 102-307c0-109 41-186 116-242 100-75 325-89 521-92" id="q"/><path fill="#3a414a" d="M886-871c30-101-37-149-145-141v-86h439v86c-127-12-147 70-181 160L676 0H489L160-903c-24-68-57-114-152-109v-86h512v86c-124-19-174 64-133 174 84 228 172 444 229 695h7c82-248 190-477 263-728" id="r"/><path fill="#3a414a" d="M786-645c-4-191-36-363-223-363-76 0-134 30-175 92s-66 152-73 271h471zm123 393c43 21 51 90 17 136C862-29 744 20 588 20c-331 0-471-225-475-561-4-348 134-577 454-577 327 0 443 231 426 583H311c7 242 67 426 305 426 140 0 234-60 293-143" id="s"/><g id="c"><use transform="matrix(0.010850694444444444,0,0,0.010850694444444444,0,0)" xlink:href="#p"/><use transform="matrix(0.010850694444444444,0,0,0.010850694444444444,21.92925347222222,0)" xlink:href="#q"/><use transform="matrix(0.010850694444444444,0,0,0.010850694444444444,33.77821180555556,0)" xlink:href="#r"/><use transform="matrix(0.010850694444444444,0,0,0.010850694444444444,46.430121527777786,0)" xlink:href="#s"/></g><path fill="#3a414a" d="M272-1237c3-115-76-146-194-139v-86c450 26 1075-122 1075 366 0 189-111 274-254 322v8c190 36 315 149 315 371 0 294-205 395-526 395H78v-86c122 7 194-27 194-147v-1004zm723 836c0-219-94-319-313-314H479v613h199c216 6 317-83 317-299zm-61-695c0-206-113-269-318-264H479v543h142c209 5 313-71 313-279" id="t"/><path fill="#3a414a" d="M414-233c-4 120 72 154 194 147V0H27v-86c122 7 194-28 194-147v-1098c3-115-76-146-194-139v-86h387v1323" id="u"/><path fill="#3a414a" d="M594-1118c338 0 472 222 475 567 2 360-143 571-481 571S115-205 113-551c-2-359 142-567 481-567zm-4 108c-241 0-279 212-279 459 0 249 39 465 281 465s278-216 278-465c0-248-38-459-280-459" id="v"/><path fill="#3a414a" d="M893-256c39 28 47 103 13 150C845-22 730 20 580 20c-332 0-467-220-467-563 0-349 119-575 456-575 140 0 259 39 325 116 44 51 42 161-14 193-31 18-76 29-137 29-1-134-38-239-174-236-232 6-258 224-258 471 0 264 65 427 310 432 127 2 227-62 272-143" id="w"/><path fill="#3a414a" d="M769-940c21-67-28-74-95-72v-86h452v86c-47 0-94 17-140 50-98 70-204 208-292 303l273 405c63 88 106 163 233 168V0c-163 2-281-2-352-92-100-127-191-290-283-428L414-408v185c-3 108 66 141 174 137V0H37v-86c117 6 184-31 184-147v-1098c2-112-70-144-184-139v-86h377c-3 350 7 709-8 1048 114-131 245-251 345-394 9-13 15-27 18-38" id="x"/><g id="d"><use transform="matrix(0.010850694444444444,0,0,0.010850694444444444,0,0)" xlink:href="#t"/><use transform="matrix(0.010850694444444444,0,0,0.010850694444444444,14.52907986111111,0)" xlink:href="#u"/><use transform="matrix(0.010850694444444444,0,0,0.010850694444444444,21.419270833333332,0)" xlink:href="#v"/><use transform="matrix(0.010850694444444444,0,0,0.010850694444444444,34.244791666666664,0)" xlink:href="#w"/><use transform="matrix(0.010850694444444444,0,0,0.010850694444444444,45.182291666666664,0)" xlink:href="#x"/></g><path fill="#3a414a" d="M272-1229c4-120-72-154-194-147v-86h1032l10 358h-106c-7-141-39-256-191-256H479v545h494v100H479v613h395c120 0 178-65 195-168l14-88h107L1176 0H78v-86c117 6 194-21 194-137v-1006" id="y"/><path fill="#3a414a" d="M434-223c-3 108 66 141 174 137V0H57v-86c118 6 185-31 185-147v-639c2-108-66-143-174-140v-86h331l27 166h10c63-113 148-188 320-186 244 3 343 152 344 401v484c-4 110 54 152 164 147V0H907v-707c0-170-55-282-225-280-187 3-248 145-248 332v432" id="z"/><path fill="#3a414a" d="M844-1331c2-112-71-145-185-139v-86h377v1331c-2 112 71 145 185 139V0H874l-22-184h-8C786-68 701 20 530 20c-321 0-417-237-417-567 0-331 95-571 417-571 163 0 254 76 314 180h12c-10-128-14-255-12-393zM563-987c-219 0-252 212-252 442 0 145 20 254 59 326s104 108 195 108c242 2 279-192 279-436s-41-440-281-440" id="A"/><g id="e"><use transform="matrix(0.010850694444444444,0,0,0.010850694444444444,0,0)" xlink:href="#y"/><use transform="matrix(0.010850694444444444,0,0,0.010850694444444444,13.84548611111111,0)" xlink:href="#z"/><use transform="matrix(0.010850694444444444,0,0,0.010850694444444444,28.17925347222222,0)" xlink:href="#w"/><use transform="matrix(0.010850694444444444,0,0,0.010850694444444444,39.11675347222222,0)" xlink:href="#v"/><use transform="matrix(0.010850694444444444,0,0,0.010850694444444444,51.94227430555556,0)" xlink:href="#A"/><use transform="matrix(0.010850694444444444,0,0,0.010850694444444444,65.58159722222223,0)" xlink:href="#s"/><use transform="matrix(0.010850694444444444,0,0,0.010850694444444444,77.47395833333334,0)" xlink:href="#A"/></g><path fill="#3a414a" d="M1010-391c0 288-209 411-504 411-227 0-400-72-408-288-3-85 58-140 148-138 13 184 83 323 276 326 176 3 296-86 293-258-4-208-164-249-317-319-197-90-377-181-377-455 0-256 189-371 448-371 165 0 292 46 357 143 39 57 33 148-18 186-30 22-68 34-117 34-4-156-72-260-230-260-155 0-250 80-250 233 0 217 160 262 318 332 152 68 291 135 355 283 17 42 26 88 26 141" id="B"/><path fill="#3a414a" d="M387-291c-2 124 47 200 156 203 51 1 88-6 131-14v90C626 8 560 18 492 20 278 25 195-83 195-297v-684H39v-82c170-8 224-133 254-287h94v252h268v117H387v690" id="C"/><path fill="#3a414a" d="M434-223C430-95 529-79 659-86V0H68v-86c112 4 174-35 174-147v-639c2-108-66-143-174-140v-86h315l39 203h10c50-120 106-223 281-223 151 0 257 68 211 208-21 64-90 87-181 87-2-101-16-160-108-160-128 0-157 140-183 255-33 148-12 333-18 505" id="D"/><path fill="#3a414a" d="M434-223c-3 108 66 141 174 137V0H57v-86c121 8 185-28 185-147v-639c3-106-58-144-164-140v-86h321l27 166h10c60-112 141-188 309-186 158 2 252 69 297 186h17c61-114 150-188 321-186 240 3 333 155 334 401v484c-3 110 54 152 164 147V0h-356v-707c0-166-49-282-215-280-172 2-228 132-228 305v449c-3 110 54 152 164 147V0H887v-707c0-166-49-282-215-280-182 3-238 148-238 332v432" id="E"/><g id="f"><use transform="matrix(0.010850694444444444,0,0,0.010850694444444444,0,0)" xlink:href="#B"/><use transform="matrix(0.010850694444444444,0,0,0.010850694444444444,11.870659722222221,0)" xlink:href="#C"/><use transform="matrix(0.010850694444444444,0,0,0.010850694444444444,19.694010416666664,0)" xlink:href="#D"/><use transform="matrix(0.010850694444444444,0,0,0.010850694444444444,30.164930555555554,0)" xlink:href="#s"/><use transform="matrix(0.010850694444444444,0,0,0.010850694444444444,42.057291666666664,0)" xlink:href="#q"/><use transform="matrix(0.010850694444444444,0,0,0.010850694444444444,54.56814236111111,0)" xlink:href="#E"/></g><path fill="#3a414a" d="M674-1376c-119-7-195 23-195 139v1135h404c178-1 180-179 200-338h107L1176 0H78v-86c122 7 194-27 194-147v-996c4-120-72-154-194-147v-86h596v86" id="F"/><path fill="#3a414a" d="M946-553c0-230-32-430-254-434-242-4-278 193-278 436s40 440 280 440c221 0 252-212 252-442zm-219-565c321 0 418 237 418 567 0 331-96 571-418 571-163 0-254-75-313-180h-8c7 140 10 280 8 428-2 108 66 142 174 138v86H37v-86c118 6 184-32 184-148V-872c3-116-76-146-194-140v-86h358l21 185h8c57-116 142-205 313-205" id="G"/><g id="g"><use transform="matrix(0.010850694444444444,0,0,0.010850694444444444,0,0)" xlink:href="#F"/><use transform="matrix(0.010850694444444444,0,0,0.010850694444444444,13.84548611111111,0)" xlink:href="#q"/><use transform="matrix(0.010850694444444444,0,0,0.010850694444444444,26.35633680555556,0)" xlink:href="#G"/><use transform="matrix(0.010850694444444444,0,0,0.010850694444444444,39.99565972222222,0)" xlink:href="#G"/><use transform="matrix(0.010850694444444444,0,0,0.010850694444444444,53.634982638888886,0)" xlink:href="#s"/><use transform="matrix(0.010850694444444444,0,0,0.010850694444444444,65.52734375,0)" xlink:href="#A"/></g><g id="h"><use transform="matrix(0.010850694444444444,0,0,0.010850694444444444,0,0)" xlink:href="#m"/><use transform="matrix(0.010850694444444444,0,0,0.010850694444444444,16.15668402777778,0)" xlink:href="#n"/><use transform="matrix(0.010850694444444444,0,0,0.010850694444444444,30.013020833333336,0)" xlink:href="#o"/></g><path fill="#3a414a" d="M442-233C435-92 546-78 688-86V0H55v-86c123 7 195-27 195-147v-768H63v-97h187v-102c4-240 124-377 362-377 124 0 225 14 272 85 33 50 8 123-32 144-31 17-72 29-121 29-2-96-37-164-135-164-176 0-152 207-154 385h289v97H442v768" id="H"/><path fill="#3a414a" d="M434-233c-3 120 73 154 195 147V0H47v-86c118 6 195-21 195-137v-649c2-108-66-143-174-140v-86h366v865zM330-1303c-79 0-117-45-117-127s37-126 117-126c79 0 116 46 116 126 0 81-37 127-116 127" id="I"/><path fill="#3a414a" d="M834-301C834-70 665 20 430 20 250 20 92-26 92-197c0-88 47-135 129-141 1 157 63 257 221 260 156 3 257-97 214-252-47-85-142-109-240-157-153-75-310-122-310-340 0-212 169-289 386-289 130 0 232 36 280 116 31 53 24 126-20 162-26 22-62 33-109 33 0-130-49-217-176-217-120 1-195 48-195 164 0 149 143 163 254 217 154 74 308 124 308 340" id="J"/><g id="i"><use transform="matrix(0.010850694444444444,0,0,0.010850694444444444,0,0)" xlink:href="#n"/><use transform="matrix(0.010850694444444444,0,0,0.010850694444444444,13.194444444444445,0)" xlink:href="#v"/><use transform="matrix(0.010850694444444444,0,0,0.010850694444444444,26.01996527777778,0)" xlink:href="#s"/><use transform="matrix(0.010850694444444444,0,0,0.010850694444444444,37.912326388888886,0)" xlink:href="#H"/><use transform="matrix(0.010850694444444444,0,0,0.010850694444444444,46.115451388888886,0)" xlink:href="#H"/><use transform="matrix(0.010850694444444444,0,0,0.010850694444444444,54.318576388888886,0)" xlink:href="#I"/><use transform="matrix(0.010850694444444444,0,0,0.010850694444444444,61.42578125,0)" xlink:href="#w"/><use transform="matrix(0.010850694444444444,0,0,0.010850694444444444,72.36328125,0)" xlink:href="#I"/><use transform="matrix(0.010850694444444444,0,0,0.010850694444444444,79.47048611111111,0)" xlink:href="#s"/><use transform="matrix(0.010850694444444444,0,0,0.010850694444444444,91.36284722222221,0)" xlink:href="#z"/><use transform="matrix(0.010850694444444444,0,0,0.010850694444444444,105.47960069444446,0)" xlink:href="#C"/><use transform="matrix(0.010850694444444444,0,0,0.010850694444444444,113.3029513888889,0)" xlink:href="#J"/></g><path fill="#3a414a" d="M51-481v-154h533v154H51" id="K"/><path fill="#3a414a" d="M709-233C699-82 828-79 977-86V0H197v-86h137c108 3 168-38 168-147v-1076c-64 75-120 150-204 197-78 44-169-10-163-94 181-48 304-168 443-264h131v1237" id="L"/><g id="j"><use transform="matrix(0.010850694444444444,0,0,0.010850694444444444,0,0)" xlink:href="#m"/><use transform="matrix(0.010850694444444444,0,0,0.010850694444444444,16.15668402777778,0)" xlink:href="#n"/><use transform="matrix(0.010850694444444444,0,0,0.010850694444444444,30.013020833333336,0)" xlink:href="#o"/><use transform="matrix(0.00759548611111111,0,0,0.00759548611111111,43.630642361111114,-7.21950954861111)" xlink:href="#K"/><use transform="matrix(0.00759548611111111,0,0,0.00759548611111111,48.45377604166667,-7.21950954861111)" xlink:href="#L"/></g><g id="k"><use transform="matrix(0.010850694444444444,0,0,0.010850694444444444,0,0)" xlink:href="#l"/><use transform="matrix(0.00759548611111111,0,0,0.00759548611111111,13.422309027777777,-7.21950954861111)" xlink:href="#K"/><use transform="matrix(0.00759548611111111,0,0,0.00759548611111111,18.245442708333332,-7.21950954861111)" xlink:href="#L"/></g></defs></g></svg>