<?xml version="1.0" encoding="UTF-8" standalone="no"?>
<!-- Created with Inkscape (http://www.inkscape.org/) -->

<svg
   width="260mm"
   height="100mm"
   viewBox="0 0 260 100"
   version="1.1"
   id="svg4719"
   inkscape:version="1.2 (dc2aedaf03, 2022-05-15)"
   sodipodi:docname="idct.svg"
   xmlns:inkscape="http://www.inkscape.org/namespaces/inkscape"
   xmlns:sodipodi="http://sodipodi.sourceforge.net/DTD/sodipodi-0.dtd"
   xmlns:xlink="http://www.w3.org/1999/xlink"
   xmlns="http://www.w3.org/2000/svg"
   xmlns:svg="http://www.w3.org/2000/svg">
  <sodipodi:namedview
     id="namedview4721"
     pagecolor="#ffffff"
     bordercolor="#000000"
     borderopacity="0.25"
     inkscape:showpageshadow="2"
     inkscape:pageopacity="0.0"
     inkscape:pagecheckerboard="0"
     inkscape:deskcolor="#d1d1d1"
     inkscape:document-units="mm"
     showgrid="false"
     inkscape:zoom="0.63234634"
     inkscape:cx="322.60802"
     inkscape:cy="279.9099"
     inkscape:window-width="1680"
     inkscape:window-height="981"
     inkscape:window-x="0"
     inkscape:window-y="0"
     inkscape:window-maximized="1"
     inkscape:current-layer="layer1" />
  <defs
     id="defs4716">
    <clipPath
       id="pa320b4f80f"
       style="stroke-linecap:butt;stroke-linejoin:round">
      <rect
         height="217.44"
         width="669.59998"
         x="108"
         y="34.560001"
         id="rect366"
         style="stroke-linecap:butt;stroke-linejoin:round" />
    </clipPath>
    <path
       d="M 0,0 V 3.5"
       id="m70c4d0b9d0"
       style="stroke:#000000;stroke-width:0.8;stroke-linecap:butt;stroke-linejoin:round"
       inkscape:connector-curvature="0" />
    <path
       d="m 42,31.84375 c 0,6.125 -0.09375,16.578125 -4.296875,24.609375 C 34,63.484375 28.09375,66 22.90625,66 18.09375,66 12,63.78125 8.203125,56.5625 4.203125,49.015625 3.796875,39.671875 3.796875,31.84375 3.796875,26.109375 3.90625,17.375 7,9.734375 11.296875,-0.609375 19,-2 22.90625,-2 27.5,-2 34.5,-0.109375 38.59375,9.4375 41.59375,16.375 42,24.5 42,31.84375 Z m -19.09375,-32.25 C 16.5,-0.40625 12.703125,5.125 11.296875,12.75 c -1.09375,5.9375 -1.09375,14.578125 -1.09375,20.203125 0,7.734375 0,14.15625 1.296875,20.28125 1.90625,8.546875 7.5,11.15625 11.40625,11.15625 4.09375,0 9.390625,-2.71875 11.296875,-10.953125 C 35.5,47.71875 35.59375,40.984375 35.59375,32.953125 c 0,-6.53125 0,-14.578125 -1.1875,-20.5 -2.109375,-10.953125 -8,-12.859375 -11.5,-12.859375 z"
       id="CMR17-48"
       inkscape:connector-curvature="0"
       style="stroke-linecap:butt;stroke-linejoin:round" />
    <path
       d="M 18.40625,4.796875 C 18.40625,7.6875 16,9.6875 13.59375,9.6875 10.703125,9.6875 8.703125,7.296875 8.703125,4.890625 8.703125,2 11.09375,0 13.5,0 c 2.90625,0 4.90625,2.390625 4.90625,4.796875 z"
       id="CMMI12-58"
       inkscape:connector-curvature="0"
       style="stroke-linecap:butt;stroke-linejoin:round" />
    <path
       d="M 26.59375,63.796875 C 26.59375,65.890625 26.5,66 25.09375,66 21.203125,61.359375 15.296875,59.890625 9.703125,59.6875 c -0.296875,0 -0.796875,0 -0.90625,-0.1875 C 8.703125,59.296875 8.703125,59.09375 8.703125,57 11.796875,57 17,57.59375 21,59.984375 v -52.6875 c 0,-3.5 -0.203125,-4.703125 -8.796875,-4.703125 h -3 V 0 C 14,0.09375 19,0.1875 23.796875,0.1875 28.59375,0.1875 33.59375,0.09375 38.40625,0 v 2.59375 h -3 c -8.609375,0 -8.8125,1.09375 -8.8125,4.703125 z"
       id="CMR17-49"
       inkscape:connector-curvature="0"
       style="stroke-linecap:butt;stroke-linejoin:round" />
    <path
       d="M 41.703125,15.46875 H 39.90625 c -1,-7.078125 -1.8125,-8.28125 -2.203125,-8.875 C 37.203125,5.796875 30,5.796875 28.59375,5.796875 H 9.40625 C 13,9.6875 20,16.765625 28.5,24.9375 34.59375,30.71875 41.703125,37.5 41.703125,47.390625 41.703125,59.1875 32.296875,66 21.796875,66 c -11,0 -17.703125,-9.703125 -17.703125,-18.703125 0,-3.90625 2.90625,-4.40625 4.109375,-4.40625 1,0 4,0.59375 4,4.09375 C 12.203125,50.09375 9.59375,51 8.203125,51 7.59375,51 7,50.890625 6.59375,50.6875 c 1.90625,8.5 7.703125,12.703125 13.8125,12.703125 8.6875,0 14.390625,-6.890625 14.390625,-16 0,-8.6875 -5.09375,-16.171875 -10.796875,-22.65625 L 4.09375,2.296875 V 0 h 35.203125 z"
       id="CMR17-50"
       inkscape:connector-curvature="0"
       style="stroke-linecap:butt;stroke-linejoin:round" />
    <path
       d="M 22.09375,34 C 31,34 34.90625,26.140625 34.90625,17.09375 34.90625,5.03125 28.5,0.390625 22.703125,0.390625 c -5.296875,0 -13.90625,2.625 -16.609375,10.40625 0.5,-0.203125 1,-0.203125 1.5,-0.203125 2.40625,0 4.203125,1.59375 4.203125,4.203125 C 11.796875,17.6875 9.59375,19 7.59375,19 5.90625,19 3.296875,18.1875 3.296875,14.484375 3.296875,5.234375 12.296875,-2 22.90625,-2 34,-2 42.5,6.75 42.5,16.984375 42.5,26.84375 34.5,34 25,35.09375 32.59375,36.671875 39.90625,43.375 39.90625,52.390625 39.90625,60.25 32,66 23,66 13.90625,66 5.90625,60.34375 5.90625,52.296875 c 0,-3.5 2.59375,-4.109375 3.890625,-4.109375 2.109375,0 3.90625,1.296875 3.90625,3.90625 C 13.703125,54.6875 11.90625,56 9.796875,56 9.40625,56 8.90625,56 8.5,55.796875 c 2.90625,6.6875 10.796875,7.890625 14.296875,7.890625 3.5,0 10.109375,-1.71875 10.109375,-11.390625 0,-2.8125 -0.40625,-7.75 -3.8125,-12.078125 -3,-3.828125 -6.390625,-4.03125 -9.6875,-4.328125 -0.5,0 -2.8125,-0.203125 -3.203125,-0.203125 C 15.5,35.59375 15.09375,35.5 15.09375,34.796875 15.09375,34.09375 15.203125,34 17.203125,34 Z"
       id="CMR17-51"
       inkscape:connector-curvature="0"
       style="stroke-linecap:butt;stroke-linejoin:round" />
    <path
       d="M 33.59375,64.796875 C 33.59375,66.890625 33.5,67 31.703125,67 L 2,19.59375 V 17 H 27.796875 V 7.1875 c 0,-3.59375 -0.203125,-4.59375 -7.203125,-4.59375 H 18.703125 V 0 c 3.203125,0.1875 8.59375,0.1875 12,0.1875 3.390625,0 8.796875,0 12,-0.1875 v 2.59375 h -1.90625 c -7,0 -7.203125,1 -7.203125,4.59375 V 17 h 10.203125 v 2.59375 H 33.59375 Z m -5.5,-6.625 V 19.59375 H 4 Z"
       id="CMR17-52"
       inkscape:connector-curvature="0"
       style="stroke-linecap:butt;stroke-linejoin:round" />
    <path
       d="m 11.40625,58.59375 c 1,-0.40625 5.09375,-1.703125 9.296875,-1.703125 9.296875,0 14.390625,5 17.296875,7.796875 C 38,65.484375 38,66 37.40625,66 c -0.109375,0 -0.3125,0 -1.109375,-0.40625 -3.5,-1.5 -7.59375,-2.59375 -12.59375,-2.59375 -3,0 -7.5,0.359375 -12.40625,2.484375 C 10.203125,66 10,66 9.90625,66 9.40625,66 9.296875,65.890625 9.296875,63.90625 V 34.859375 c 0,-1.84375 0,-2.359375 1,-2.359375 0.5,0 0.703125,0.203125 1.203125,0.921875 C 14.703125,38.046875 19.09375,40 24.09375,40 c 3.5,0 11,-2.265625 11,-19.796875 0,-3.21875 0,-9.015625 -3,-13.609375 -2.5,-4.109375 -6.390625,-6.203125 -10.6875,-6.203125 -6.609375,0 -13.3125,4.59375 -15.109375,12.296875 C 6.703125,12.59375 7.5,12.390625 7.90625,12.390625 c 1.296875,0 3.796875,0.703125 3.796875,3.796875 C 11.703125,18.890625 9.796875,20 7.90625,20 5.59375,20 4.09375,18.59375 4.09375,15.796875 4.09375,7.09375 11,-2 21.59375,-2 c 10.3125,0 20.109375,8.890625 20.109375,21.796875 0,12.296875 -7.796875,21.796875 -17.5,21.796875 -5.109375,0 -9.40625,-1.90625 -12.796875,-5.59375 z"
       id="CMR17-53"
       inkscape:connector-curvature="0"
       style="stroke-linecap:butt;stroke-linejoin:round" />
    <path
       d="M 62.203125,67.6875 H 4.5 l -1.703125,-22 H 4.59375 c 1.3125,16.515625 2.703125,19.40625 18.109375,19.40625 1.796875,0 4.703125,0 5.5,-0.109375 C 30.09375,64.6875 30.09375,63.5 30.09375,61.203125 V 7.265625 C 30.09375,3.6875 29.796875,2.59375 21.5,2.59375 H 18.703125 V 0 C 23.5,0.09375 28.5,0.1875 33.40625,0.1875 38.296875,0.1875 43.296875,0.09375 48.09375,0 v 2.59375 h -2.796875 c -8.296875,0 -8.59375,1.09375 -8.59375,4.671875 v 53.9375 c 0,2.1875 0,3.390625 1.796875,3.78125 0.796875,0.109375 3.703125,0.109375 5.5,0.109375 15.296875,0 16.796875,-2.890625 18.09375,-19.40625 h 1.8125 z"
       id="CMR17-84"
       inkscape:connector-curvature="0"
       style="stroke-linecap:butt;stroke-linejoin:round" />
    <path
       d="M 15.5,61.890625 C 15.5,64.09375 13.703125,66 11.40625,66 9.203125,66 7.296875,64.1875 7.296875,61.890625 c 0,-2.203125 1.796875,-4.09375 4.109375,-4.09375 2.1875,0 4.09375,1.796875 4.09375,4.09375 z m -11.703125,-19 v -2.59375 c 5.609375,0 6.40625,-0.609375 6.40625,-5.4375 V 6.921875 C 10.203125,3.09375 9.796875,2.59375 3.40625,2.59375 V 0 c 2.390625,0.1875 6.6875,0.1875 9.1875,0.1875 2.40625,0 6.5,0 8.8125,-0.1875 v 2.59375 c -5.90625,0 -6.109375,0.609375 -6.109375,4.21875 V 44 Z"
       id="CMR17-105"
       inkscape:connector-curvature="0"
       style="stroke-linecap:butt;stroke-linejoin:round" />
    <path
       d="M 67.59375,30.53125 C 67.59375,35.5625 66.703125,44 54.796875,44 48,44 43.296875,39.375 41.5,33.953125 H 41.40625 C 40.203125,42.1875 34.296875,44 28.703125,44 c -7.90625,0 -12,-6.125 -13.5,-10.15625 H 15.09375 V 44 L 3.296875,42.890625 V 40.28125 c 5.90625,0 6.796875,-0.59375 6.796875,-5.421875 V 6.921875 C 10.09375,3.09375 9.703125,2.59375 3.296875,2.59375 V 0 c 2.40625,0.1875 6.796875,0.1875 9.40625,0.1875 2.59375,0 7.09375,0 9.5,-0.1875 V 2.59375 C 15.796875,2.59375 15.40625,3 15.40625,6.921875 V 26.21875 C 15.40625,35.453125 21,42.390625 28,42.390625 c 7.40625,0 8.203125,-6.625 8.203125,-11.453125 V 6.921875 c 0,-3.828125 -0.40625,-4.328125 -6.796875,-4.328125 V 0 c 2.390625,0.1875 6.796875,0.1875 9.390625,0.1875 2.609375,0 7.109375,0 9.5,-0.1875 V 2.59375 C 41.90625,2.59375 41.5,3 41.5,6.921875 V 26.21875 c 0,9.234375 5.59375,16.171875 12.59375,16.171875 7.40625,0 8.203125,-6.625 8.203125,-11.453125 V 6.921875 C 62.296875,3.09375 61.90625,2.59375 55.5,2.59375 V 0 c 2.40625,0.1875 6.796875,0.1875 9.40625,0.1875 2.59375,0 7.09375,0 9.5,-0.1875 V 2.59375 C 68,2.59375 67.59375,3 67.59375,6.921875 Z"
       id="CMR17-109"
       inkscape:connector-curvature="0"
       style="stroke-linecap:butt;stroke-linejoin:round" />
    <path
       d="M 38.09375,23.484375 C 38.5,23.890625 38.5,24.09375 38.5,25.09375 38.5,35.171875 33.09375,44 21.703125,44 c -10.609375,0 -19,-10.015625 -19,-22.21875 C 2.703125,8.65625 12.203125,-1 22.796875,-1 34,-1 38.40625,9.671875 38.40625,11.796875 38.40625,12.5 37.796875,12.5 37.59375,12.5 c -0.6875,0 -0.796875,-0.203125 -1.1875,-1.421875 C 34.203125,4.21875 28.703125,0.796875 23.5,0.796875 19.203125,0.796875 14.90625,3.21875 12.203125,7.65625 9.09375,12.796875 9.09375,18.75 9.09375,23.484375 Z M 9.203125,25 C 9.90625,39.234375 17.59375,42.390625 21.59375,42.390625 28.40625,42.390625 33,36.0625 33.09375,25 Z"
       id="CMR17-101"
       inkscape:connector-curvature="0"
       style="stroke-linecap:butt;stroke-linejoin:round" />
    <path
       d="m 30.59375,-24.40625 c 0,0.09375 0,0.296875 -0.296875,0.59375 -4.59375,4.703125 -16.890625,17.515625 -16.890625,48.75 0,31.234375 12.09375,43.9375 17,48.953125 0,0.09375 0.1875,0.296875 0.1875,0.59375 0,0.3125 -0.296875,0.515625 -0.6875,0.515625 -1.109375,0 -9.609375,-7.421875 -14.5,-18.4375 C 10.40625,45.453125 9,34.65625 9,25.046875 9,17.828125 9.703125,5.625 15.703125,-7.296875 20.5,-17.703125 28.703125,-25 29.90625,-25 c 0.5,0 0.6875,0.1875 0.6875,0.59375 z"
       id="CMR17-40"
       inkscape:connector-curvature="0"
       style="stroke-linecap:butt;stroke-linejoin:round" />
    <path
       d="m 30.90625,42 c 0,1.796875 -0.109375,1.890625 -0.703125,1.890625 -0.40625,0 -0.5,-0.09375 -1.703125,-1.59375 C 28.203125,41.890625 27.296875,40.890625 27,40.5 23.796875,43.890625 19.296875,44 17.59375,44 6.5,44 2.5,38.1875 2.5,32.390625 c 0,-9 10.203125,-11.09375 13.09375,-11.703125 6.3125,-1.296875 8.5,-1.6875 10.609375,-3.5 1.296875,-1.1875 3.5,-3.390625 3.5,-7 C 29.703125,6 27.296875,0.59375 18.09375,0.59375 9.40625,0.59375 6.296875,7.1875 4.5,16 4.203125,17.390625 4.203125,17.5 3.40625,17.5 2.59375,17.5 2.5,17.390625 2.5,15.390625 V 1 c 0,-1.8125 0.09375,-1.90625 0.703125,-1.90625 0.5,0 0.59375,0.09375 1.09375,0.90625 C 4.90625,0.890625 6.40625,3.296875 7,4.296875 9,1.59375 12.5,-1 18.09375,-1 28,-1 33.296875,4.390625 33.296875,12.1875 c 0,5.109375 -2.703125,7.8125 -4,9 -3,3.109375 -6.5,3.8125 -10.703125,4.609375 -5.5,1.203125 -12.5,2.59375 -12.5,8.703125 0,2.59375 1.40625,8.09375 11.5,8.09375 10.703125,0 11.3125,-10 11.5,-13.203125 0.109375,-0.5 0.609375,-0.59375 0.90625,-0.59375 0.90625,0 0.90625,0.296875 0.90625,2 z"
       id="CMR17-115"
       inkscape:connector-curvature="0"
       style="stroke-linecap:butt;stroke-linejoin:round" />
    <path
       d="m 26.296875,24.9375 c 0,7.203125 -0.703125,19.421875 -6.703125,32.328125 C 14.796875,67.6875 6.59375,75 5.40625,75 5.09375,75 4.703125,74.890625 4.703125,74.390625 c 0,-0.203125 0.09375,-0.296875 0.203125,-0.5 4.796875,-5.015625 17,-17.71875 17,-48.84375 0,-31.234375 -12.109375,-43.953125 -17,-48.953125 -0.109375,-0.203125 -0.203125,-0.296875 -0.203125,-0.5 0,-0.5 0.390625,-0.59375 0.703125,-0.59375 1.09375,0 9.59375,7.390625 14.5,18.40625 5,11.109375 6.390625,21.921875 6.390625,31.53125 z"
       id="CMR17-41"
       inkscape:connector-curvature="0"
       style="stroke-linecap:butt;stroke-linejoin:round" />
    <path
       d="M 0,0 H -3.5"
       id="m5112ebc940"
       style="stroke:#000000;stroke-width:0.8;stroke-linecap:butt;stroke-linejoin:round"
       inkscape:connector-curvature="0" />
    <path
       d="m 65.90625,23 c 1.6875,0 3.5,0 3.5,2 0,2 -1.8125,2 -3.5,2 H 11.796875 c -1.703125,0 -3.5,0 -3.5,-2 0,-2 1.796875,-2 3.5,-2 z"
       id="CMSY10-0"
       inkscape:connector-curvature="0"
       style="stroke-linecap:butt;stroke-linejoin:round" />
    <path
       d="M 36.296875,69.390625 C 35.796875,70.6875 35.59375,71 34.59375,71 c -1,0 -1.1875,-0.3125 -1.6875,-1.609375 L 11.703125,9.0625 C 9.796875,3.6875 5.796875,2.59375 2.296875,2.59375 V 0 C 4.09375,0.1875 8.09375,0.1875 10,0.1875 c 2.5,0 6.5,0 8.90625,-0.1875 V 2.59375 C 14.203125,2.796875 13.5,5.96875 13.5,7.171875 13.5,8.0625 13.703125,8.5625 13.90625,9.15625 L 19.203125,24 H 45.40625 l 6,-16.921875 c 0.5,-1.203125 0.5,-1.40625 0.5,-1.796875 0,-2.6875 -4.3125,-2.6875 -6.203125,-2.6875 V 0 c 2.890625,0.1875 8.09375,0.1875 11.203125,0.1875 2.59375,0 7.59375,0 10,-0.1875 v 2.59375 c -5.3125,0 -7.109375,0 -8.40625,3.6875 z m -4,-8.078125 L 44.5,26.59375 H 20.09375 Z"
       id="CMR17-65"
       inkscape:connector-curvature="0"
       style="stroke-linecap:butt;stroke-linejoin:round" />
    <path
       d="m 22,-17.40625 c -6.40625,0 -6.796875,0.40625 -6.796875,4.375 V 5.9375 C 18.09375,1.703125 22.296875,-1 27.59375,-1 c 10,0 20.109375,8.859375 20.109375,22.59375 C 47.703125,34.3125 39,44 28.703125,44 22.703125,44 17.796875,40.671875 15,36.640625 V 44 L 3.09375,42.890625 v -2.625 c 5.90625,0 6.8125,-0.59375 6.8125,-5.453125 v -47.84375 c 0,-3.859375 -0.40625,-4.375 -6.8125,-4.375 V -20 c 2.40625,0.1875 6.8125,0.1875 9.40625,0.1875 2.59375,0 7.09375,0 9.5,-0.1875 z m -6.796875,48.890625 c 0,1.421875 0,3.53125 3.890625,7.28125 C 19.59375,39.15625 23,42.1875 28,42.1875 35.296875,42.1875 41.296875,33 41.296875,21.5 41.296875,9.984375 34.90625,0.59375 27,0.59375 23.40625,0.59375 19.5,2.3125 16.5,7.046875 15.203125,9.28125 15.203125,9.875 15.203125,11.5 Z"
       id="CMR17-112"
       inkscape:connector-curvature="0"
       style="stroke-linecap:butt;stroke-linejoin:round" />
    <path
       d="M 15.296875,69 3.40625,67.890625 v -2.59375 c 5.890625,0 6.796875,-0.59375 6.796875,-5.375 V 6.859375 C 10.203125,3.09375 9.796875,2.59375 3.40625,2.59375 V 0 c 2.390625,0.1875 6.796875,0.1875 9.296875,0.1875 2.59375,0 7,0 9.390625,-0.1875 v 2.59375 c -6.390625,0 -6.796875,0.390625 -6.796875,4.265625 z"
       id="CMR17-108"
       inkscape:connector-curvature="0"
       style="stroke-linecap:butt;stroke-linejoin:round" />
    <path
       d="m 15.09375,40.390625 h 14 V 43 h -14 V 62 H 13.296875 C 13.09375,51.4375 9.59375,42.1875 1.09375,41.984375 v -1.59375 H 9.796875 V 12.15625 c 0,-1.921875 0,-13.15625 11.609375,-13.15625 5.890625,0 9.296875,5.8125 9.296875,13.25 v 5.734375 H 28.90625 V 12.34375 C 28.90625,5.421875 26.203125,0.796875 22,0.796875 c -2.90625,0 -6.90625,2 -6.90625,11.15625 z"
       id="CMR17-116"
       inkscape:connector-curvature="0"
       style="stroke-linecap:butt;stroke-linejoin:round" />
    <path
       d="m 29.40625,42.890625 v -2.59375 c 5.890625,0 6.796875,-0.609375 6.796875,-5.46875 v -18.375 c 0,-8.484375 -4.5,-15.859375 -11.90625,-15.859375 -8.203125,0 -8.890625,4.953125 -8.890625,10.203125 V 44 L 3.296875,42.890625 v -2.59375 c 4,0 6.703125,0 6.796875,-4.046875 V 16.859375 c 0,-6.765625 0,-11.109375 2.609375,-13.9375 C 14,1.609375 16.5,-1 23.703125,-1 c 8.5,0 11.796875,7.25 12.59375,9.375 H 36.40625 V -1 l 11.890625,0.796875 V 2.40625 C 42.40625,2.40625 41.5,3.015625 41.5,7.859375 V 44 Z"
       id="CMR17-117"
       inkscape:connector-curvature="0"
       style="stroke-linecap:butt;stroke-linejoin:round" />
    <path
       d="m 29.203125,67.890625 v -2.59375 c 5.890625,0 6.796875,-0.59375 6.796875,-5.25 v -23 C 35.59375,37.546875 31.5,44 23.40625,44 13.203125,44 3.296875,34.8125 3.296875,21.5 3.296875,8.265625 12.59375,-1 22.40625,-1 c 8.5,0 12.890625,6.640625 13.390625,7.34375 V -1 L 47.90625,-0.203125 V 2.40625 c -5.90625,0 -6.8125,0.609375 -6.8125,5.453125 V 69 Z M 35.796875,11.90625 C 35.796875,8.875 34,6.140625 31.703125,4.125 28.296875,1.09375 24.90625,0.59375 23,0.59375 c -2.90625,0 -13.296875,1.515625 -13.296875,20.796875 0,19.796875 11.59375,21 14.203125,21 4.59375,0 8.296875,-2.625 10.59375,-6.25 1.296875,-2.125 1.296875,-2.4375 1.296875,-4.25 z"
       id="CMR17-100"
       inkscape:connector-curvature="0"
       style="stroke-linecap:butt;stroke-linejoin:round" />
    <path
       d="M 36,25.875 C 36,32 36,35.546875 31.796875,39.59375 28.09375,42.984375 23.796875,44 20.40625,44 12.5,44 6.796875,37.625 6.796875,30.890625 6.796875,27.1875 9.796875,27 10.40625,27 11.703125,27 14,27.796875 14,30.59375 c 0,2.5 -1.90625,3.59375 -3.59375,3.59375 C 10,34.1875 9.5,34.09375 9.203125,34 c 2.09375,6.53125 7.5,8.390625 11,8.390625 5,0 10.5,-4.5625 10.5,-13.09375 V 25.5 c -5.90625,-0.203125 -13,-1 -18.609375,-4.046875 C 5.796875,17.921875 4,12.84375 4,9 4,1.203125 13,-1 18.296875,-1 c 5.5,0 10.609375,3.109375 12.796875,8.890625 0.203125,-4.46875 3,-8.5 7.40625,-8.5 2.09375,0 7.40625,1.40625 7.40625,9.40625 v 5.671875 h -1.8125 V 8.703125 c 0,-6.1875 -2.6875,-7 -4,-7 C 36,1.703125 36,6.96875 36,11.4375 Z M 30.703125,13.859375 C 30.703125,5.046875 24.5,0.59375 19,0.59375 c -5,0 -8.90625,3.75 -8.90625,8.40625 0,3.046875 1.3125,8.40625 7.109375,11.65625 C 22,23.390625 27.5,23.796875 30.703125,24 Z"
       id="CMR17-97"
       inkscape:connector-curvature="0"
       style="stroke-linecap:butt;stroke-linejoin:round" />
    <path
       d="m 15,23.703125 c 0,9.640625 4.09375,18.6875 11.59375,18.6875 0.703125,0 1.40625,-0.09375 2.109375,-0.40625 0,0 -2.203125,-0.703125 -2.203125,-3.3125 0,-2.40625 1.90625,-3.40625 3.40625,-3.40625 1.1875,0 3.390625,0.703125 3.390625,3.515625 0,3.203125 -3.203125,5.21875 -6.59375,5.21875 -7.609375,0 -10.90625,-7.4375 -11.90625,-10.953125 h -0.09375 V 44 L 3.09375,42.890625 V 40.28125 c 5.90625,0 6.8125,-0.59375 6.8125,-5.421875 V 6.921875 C 9.90625,3.09375 9.5,2.59375 3.09375,2.59375 V 0 c 2.40625,0.1875 7,0.1875 9.609375,0.1875 2.890625,0 8,0 10.703125,-0.1875 v 2.59375 c -7.203125,0 -8.40625,0 -8.40625,4.515625 z"
       id="CMR17-114"
       inkscape:connector-curvature="0"
       style="stroke-linecap:butt;stroke-linejoin:round" />
    <path
       d="M 15,69 3.09375,67.890625 v -2.59375 c 5.90625,0 6.8125,-0.59375 6.8125,-5.25 v -60.25 h 1.796875 l 2.890625,7.15625 C 17.5,2.203125 21.796875,-1 27.59375,-1 c 10,0 20.109375,8.859375 20.109375,22.59375 0,12.921875 -9,22.40625 -19.109375,22.40625 C 22.40625,44 18,40.671875 15,36.734375 Z m 0.203125,-37.40625 c 0,1.8125 0,2.109375 1.390625,4.234375 3.90625,6.0625 9.5,6.5625 11.40625,6.5625 3,0 13.296875,-1.609375 13.296875,-20.703125 C 41.296875,1.703125 29.5,0.59375 27.09375,0.59375 24,0.59375 19.5,1.796875 16.296875,7.65625 c -1.09375,1.921875 -1.09375,2.125 -1.09375,3.9375 z"
       id="CMR17-98"
       inkscape:connector-curvature="0"
       style="stroke-linecap:butt;stroke-linejoin:round" />
    <path
       d="m 16.59375,4.09375 c 0,2.5 -2,4.09375 -4.09375,4.09375 -2,0 -4.09375,-1.59375 -4.09375,-4.09375 0,-2.5 2,-4.09375 4.09375,-4.09375 2,0 4.09375,1.59375 4.09375,4.09375 z"
       id="CMR17-46"
       inkscape:connector-curvature="0"
       style="stroke-linecap:butt;stroke-linejoin:round" />
    <path
       d="M 41.5,30.53125 C 41.5,35.65625 40.5,44 28.703125,44 c -7.90625,0 -12,-6.125 -13.5,-10.15625 H 15.09375 V 44 L 3.296875,42.890625 V 40.28125 c 5.90625,0 6.796875,-0.59375 6.796875,-5.421875 V 6.921875 C 10.09375,3.09375 9.703125,2.59375 3.296875,2.59375 V 0 c 2.40625,0.1875 6.796875,0.1875 9.40625,0.1875 2.59375,0 7.09375,0 9.5,-0.1875 V 2.59375 C 15.796875,2.59375 15.40625,3 15.40625,6.921875 V 26.21875 C 15.40625,35.453125 21,42.390625 28,42.390625 c 7.40625,0 8.203125,-6.625 8.203125,-11.453125 V 6.921875 c 0,-3.828125 -0.40625,-4.328125 -6.796875,-4.328125 V 0 c 2.390625,0.1875 6.796875,0.1875 9.390625,0.1875 2.609375,0 7.109375,0 9.5,-0.1875 V 2.59375 C 41.90625,2.59375 41.5,3 41.5,6.921875 Z"
       id="CMR17-110"
       inkscape:connector-curvature="0"
       style="stroke-linecap:butt;stroke-linejoin:round" />
  </defs>
  <g
     inkscape:label="Layer 1"
     inkscape:groupmode="layer"
     id="layer1">
    <g
       id="patch_2"
       style="stroke-linecap:butt;stroke-linejoin:round"
       transform="matrix(0.35277777,0,0,0.35277777,-17.668247,-5.4794004)">
      <path
         d="M 108,252 H 777.6 V 34.56 H 108 Z"
         style="fill:#ffffff;stroke-linecap:butt;stroke-linejoin:round"
         id="path9"
         inkscape:connector-curvature="0" />
    </g>
    <g
       id="matplotlib.axis_1"
       style="stroke-linecap:butt;stroke-linejoin:round"
       transform="matrix(0.35277777,0,0,0.35277777,-17.668247,-5.4794004)">
      <g
         id="xtick_1"
         style="stroke-linecap:butt;stroke-linejoin:round">
        <g
           id="line2d_1"
           style="stroke-linecap:butt;stroke-linejoin:round">
          <defs
             id="defs13">
            <path
               d="M 0,0 V 3.5"
               id="path5159"
               style="stroke:#000000;stroke-width:0.8;stroke-linecap:butt;stroke-linejoin:round"
               inkscape:connector-curvature="0" />
          </defs>
          <g
             id="g17"
             style="stroke-linecap:butt;stroke-linejoin:round">
            <use
               style="stroke:#000000;stroke-width:0.8;stroke-linecap:butt;stroke-linejoin:round"
               x="138.43637"
               xlink:href="#m70c4d0b9d0"
               y="252"
               id="use15"
               width="100%"
               height="100%" />
          </g>
        </g>
        <g
           id="text_1"
           style="stroke-linecap:butt;stroke-linejoin:round">
          <!-- $0.0$ -->
          <defs
             id="defs22">
            <path
               d="m 42,31.84375 c 0,6.125 -0.09375,16.578125 -4.296875,24.609375 C 34,63.484375 28.09375,66 22.90625,66 18.09375,66 12,63.78125 8.203125,56.5625 4.203125,49.015625 3.796875,39.671875 3.796875,31.84375 3.796875,26.109375 3.90625,17.375 7,9.734375 11.296875,-0.609375 19,-2 22.90625,-2 27.5,-2 34.5,-0.109375 38.59375,9.4375 41.59375,16.375 42,24.5 42,31.84375 Z m -19.09375,-32.25 C 16.5,-0.40625 12.703125,5.125 11.296875,12.75 c -1.09375,5.9375 -1.09375,14.578125 -1.09375,20.203125 0,7.734375 0,14.15625 1.296875,20.28125 1.90625,8.546875 7.5,11.15625 11.40625,11.15625 4.09375,0 9.390625,-2.71875 11.296875,-10.953125 C 35.5,47.71875 35.59375,40.984375 35.59375,32.953125 c 0,-6.53125 0,-14.578125 -1.1875,-20.5 -2.109375,-10.953125 -8,-12.859375 -11.5,-12.859375 z"
               id="path5165"
               inkscape:connector-curvature="0"
               style="stroke-linecap:butt;stroke-linejoin:round" />
            <path
               d="M 18.40625,4.796875 C 18.40625,7.6875 16,9.6875 13.59375,9.6875 10.703125,9.6875 8.703125,7.296875 8.703125,4.890625 8.703125,2 11.09375,0 13.5,0 c 2.90625,0 4.90625,2.390625 4.90625,4.796875 z"
               id="path5167"
               inkscape:connector-curvature="0"
               style="stroke-linecap:butt;stroke-linejoin:round" />
          </defs>
          <g
             transform="matrix(0.14,0,0,-0.14,129.71107,268.68588)"
             id="g30"
             style="stroke-linecap:butt;stroke-linejoin:round">
            <use
               transform="scale(0.996264)"
               xlink:href="#CMR17-48"
               id="use24"
               style="stroke-linecap:butt;stroke-linejoin:round"
               x="0"
               y="0"
               width="100%"
               height="100%" />
            <use
               transform="matrix(0.996264,0,0,0.996264,45.690477,0)"
               xlink:href="#CMMI12-58"
               id="use26"
               style="stroke-linecap:butt;stroke-linejoin:round"
               x="0"
               y="0"
               width="100%"
               height="100%" />
            <use
               transform="matrix(0.996264,0,0,0.996264,72.787654,0)"
               xlink:href="#CMR17-48"
               id="use28"
               style="stroke-linecap:butt;stroke-linejoin:round"
               x="0"
               y="0"
               width="100%"
               height="100%" />
          </g>
        </g>
      </g>
      <g
         id="xtick_2"
         style="stroke-linecap:butt;stroke-linejoin:round">
        <g
           id="line2d_2"
           style="stroke-linecap:butt;stroke-linejoin:round">
          <g
             id="g36"
             style="stroke-linecap:butt;stroke-linejoin:round">
            <use
               style="stroke:#000000;stroke-width:0.8;stroke-linecap:butt;stroke-linejoin:round"
               x="260.18182"
               xlink:href="#m70c4d0b9d0"
               y="252"
               id="use34"
               width="100%"
               height="100%" />
          </g>
        </g>
        <g
           id="text_2"
           style="stroke-linecap:butt;stroke-linejoin:round">
          <!-- $0.1$ -->
          <defs
             id="defs40">
            <path
               d="M 26.59375,63.796875 C 26.59375,65.890625 26.5,66 25.09375,66 21.203125,61.359375 15.296875,59.890625 9.703125,59.6875 c -0.296875,0 -0.796875,0 -0.90625,-0.1875 C 8.703125,59.296875 8.703125,59.09375 8.703125,57 11.796875,57 17,57.59375 21,59.984375 v -52.6875 c 0,-3.5 -0.203125,-4.703125 -8.796875,-4.703125 h -3 V 0 C 14,0.09375 19,0.1875 23.796875,0.1875 28.59375,0.1875 33.59375,0.09375 38.40625,0 v 2.59375 h -3 c -8.609375,0 -8.8125,1.09375 -8.8125,4.703125 z"
               id="path5179"
               inkscape:connector-curvature="0"
               style="stroke-linecap:butt;stroke-linejoin:round" />
          </defs>
          <g
             transform="matrix(0.14,0,0,-0.14,251.45653,268.68588)"
             id="g48"
             style="stroke-linecap:butt;stroke-linejoin:round">
            <use
               transform="scale(0.996264)"
               xlink:href="#CMR17-48"
               id="use42"
               style="stroke-linecap:butt;stroke-linejoin:round"
               x="0"
               y="0"
               width="100%"
               height="100%" />
            <use
               transform="matrix(0.996264,0,0,0.996264,45.690477,0)"
               xlink:href="#CMMI12-58"
               id="use44"
               style="stroke-linecap:butt;stroke-linejoin:round"
               x="0"
               y="0"
               width="100%"
               height="100%" />
            <use
               transform="matrix(0.996264,0,0,0.996264,72.787654,0)"
               xlink:href="#CMR17-49"
               id="use46"
               style="stroke-linecap:butt;stroke-linejoin:round"
               x="0"
               y="0"
               width="100%"
               height="100%" />
          </g>
        </g>
      </g>
      <g
         id="xtick_3"
         style="stroke-linecap:butt;stroke-linejoin:round">
        <g
           id="line2d_3"
           style="stroke-linecap:butt;stroke-linejoin:round">
          <g
             id="g54"
             style="stroke-linecap:butt;stroke-linejoin:round">
            <use
               style="stroke:#000000;stroke-width:0.8;stroke-linecap:butt;stroke-linejoin:round"
               x="381.92728"
               xlink:href="#m70c4d0b9d0"
               y="252"
               id="use52"
               width="100%"
               height="100%" />
          </g>
        </g>
        <g
           id="text_3"
           style="stroke-linecap:butt;stroke-linejoin:round">
          <!-- $0.2$ -->
          <defs
             id="defs58">
            <path
               d="M 41.703125,15.46875 H 39.90625 c -1,-7.078125 -1.8125,-8.28125 -2.203125,-8.875 C 37.203125,5.796875 30,5.796875 28.59375,5.796875 H 9.40625 C 13,9.6875 20,16.765625 28.5,24.9375 34.59375,30.71875 41.703125,37.5 41.703125,47.390625 41.703125,59.1875 32.296875,66 21.796875,66 c -11,0 -17.703125,-9.703125 -17.703125,-18.703125 0,-3.90625 2.90625,-4.40625 4.109375,-4.40625 1,0 4,0.59375 4,4.09375 C 12.203125,50.09375 9.59375,51 8.203125,51 7.59375,51 7,50.890625 6.59375,50.6875 c 1.90625,8.5 7.703125,12.703125 13.8125,12.703125 8.6875,0 14.390625,-6.890625 14.390625,-16 0,-8.6875 -5.09375,-16.171875 -10.796875,-22.65625 L 4.09375,2.296875 V 0 h 35.203125 z"
               id="path5191"
               inkscape:connector-curvature="0"
               style="stroke-linecap:butt;stroke-linejoin:round" />
          </defs>
          <g
             transform="matrix(0.14,0,0,-0.14,373.20198,268.68588)"
             id="g66"
             style="stroke-linecap:butt;stroke-linejoin:round">
            <use
               transform="scale(0.996264)"
               xlink:href="#CMR17-48"
               id="use60"
               style="stroke-linecap:butt;stroke-linejoin:round"
               x="0"
               y="0"
               width="100%"
               height="100%" />
            <use
               transform="matrix(0.996264,0,0,0.996264,45.690477,0)"
               xlink:href="#CMMI12-58"
               id="use62"
               style="stroke-linecap:butt;stroke-linejoin:round"
               x="0"
               y="0"
               width="100%"
               height="100%" />
            <use
               transform="matrix(0.996264,0,0,0.996264,72.787654,0)"
               xlink:href="#CMR17-50"
               id="use64"
               style="stroke-linecap:butt;stroke-linejoin:round"
               x="0"
               y="0"
               width="100%"
               height="100%" />
          </g>
        </g>
      </g>
      <g
         id="xtick_4"
         style="stroke-linecap:butt;stroke-linejoin:round">
        <g
           id="line2d_4"
           style="stroke-linecap:butt;stroke-linejoin:round">
          <g
             id="g72"
             style="stroke-linecap:butt;stroke-linejoin:round">
            <use
               style="stroke:#000000;stroke-width:0.8;stroke-linecap:butt;stroke-linejoin:round"
               x="503.67273"
               xlink:href="#m70c4d0b9d0"
               y="252"
               id="use70"
               width="100%"
               height="100%" />
          </g>
        </g>
        <g
           id="text_4"
           style="stroke-linecap:butt;stroke-linejoin:round">
          <!-- $0.3$ -->
          <defs
             id="defs76">
            <path
               d="M 22.09375,34 C 31,34 34.90625,26.140625 34.90625,17.09375 34.90625,5.03125 28.5,0.390625 22.703125,0.390625 c -5.296875,0 -13.90625,2.625 -16.609375,10.40625 0.5,-0.203125 1,-0.203125 1.5,-0.203125 2.40625,0 4.203125,1.59375 4.203125,4.203125 C 11.796875,17.6875 9.59375,19 7.59375,19 5.90625,19 3.296875,18.1875 3.296875,14.484375 3.296875,5.234375 12.296875,-2 22.90625,-2 34,-2 42.5,6.75 42.5,16.984375 42.5,26.84375 34.5,34 25,35.09375 32.59375,36.671875 39.90625,43.375 39.90625,52.390625 39.90625,60.25 32,66 23,66 13.90625,66 5.90625,60.34375 5.90625,52.296875 c 0,-3.5 2.59375,-4.109375 3.890625,-4.109375 2.109375,0 3.90625,1.296875 3.90625,3.90625 C 13.703125,54.6875 11.90625,56 9.796875,56 9.40625,56 8.90625,56 8.5,55.796875 c 2.90625,6.6875 10.796875,7.890625 14.296875,7.890625 3.5,0 10.109375,-1.71875 10.109375,-11.390625 0,-2.8125 -0.40625,-7.75 -3.8125,-12.078125 -3,-3.828125 -6.390625,-4.03125 -9.6875,-4.328125 -0.5,0 -2.8125,-0.203125 -3.203125,-0.203125 C 15.5,35.59375 15.09375,35.5 15.09375,34.796875 15.09375,34.09375 15.203125,34 17.203125,34 Z"
               id="path5203"
               inkscape:connector-curvature="0"
               style="stroke-linecap:butt;stroke-linejoin:round" />
          </defs>
          <g
             transform="matrix(0.14,0,0,-0.14,494.94744,268.68588)"
             id="g84"
             style="stroke-linecap:butt;stroke-linejoin:round">
            <use
               transform="scale(0.996264)"
               xlink:href="#CMR17-48"
               id="use78"
               style="stroke-linecap:butt;stroke-linejoin:round"
               x="0"
               y="0"
               width="100%"
               height="100%" />
            <use
               transform="matrix(0.996264,0,0,0.996264,45.690477,0)"
               xlink:href="#CMMI12-58"
               id="use80"
               style="stroke-linecap:butt;stroke-linejoin:round"
               x="0"
               y="0"
               width="100%"
               height="100%" />
            <use
               transform="matrix(0.996264,0,0,0.996264,72.787654,0)"
               xlink:href="#CMR17-51"
               id="use82"
               style="stroke-linecap:butt;stroke-linejoin:round"
               x="0"
               y="0"
               width="100%"
               height="100%" />
          </g>
        </g>
      </g>
      <g
         id="xtick_5"
         style="stroke-linecap:butt;stroke-linejoin:round">
        <g
           id="line2d_5"
           style="stroke-linecap:butt;stroke-linejoin:round">
          <g
             id="g90"
             style="stroke-linecap:butt;stroke-linejoin:round">
            <use
               style="stroke:#000000;stroke-width:0.8;stroke-linecap:butt;stroke-linejoin:round"
               x="625.41815"
               xlink:href="#m70c4d0b9d0"
               y="252"
               id="use88"
               width="100%"
               height="100%" />
          </g>
        </g>
        <g
           id="text_5"
           style="stroke-linecap:butt;stroke-linejoin:round">
          <!-- $0.4$ -->
          <defs
             id="defs94">
            <path
               d="M 33.59375,64.796875 C 33.59375,66.890625 33.5,67 31.703125,67 L 2,19.59375 V 17 H 27.796875 V 7.1875 c 0,-3.59375 -0.203125,-4.59375 -7.203125,-4.59375 H 18.703125 V 0 c 3.203125,0.1875 8.59375,0.1875 12,0.1875 3.390625,0 8.796875,0 12,-0.1875 v 2.59375 h -1.90625 c -7,0 -7.203125,1 -7.203125,4.59375 V 17 h 10.203125 v 2.59375 H 33.59375 Z m -5.5,-6.625 V 19.59375 H 4 Z"
               id="path5215"
               inkscape:connector-curvature="0"
               style="stroke-linecap:butt;stroke-linejoin:round" />
          </defs>
          <g
             transform="matrix(0.14,0,0,-0.14,616.69289,268.68588)"
             id="g102"
             style="stroke-linecap:butt;stroke-linejoin:round">
            <use
               transform="scale(0.996264)"
               xlink:href="#CMR17-48"
               id="use96"
               style="stroke-linecap:butt;stroke-linejoin:round"
               x="0"
               y="0"
               width="100%"
               height="100%" />
            <use
               transform="matrix(0.996264,0,0,0.996264,45.690477,0)"
               xlink:href="#CMMI12-58"
               id="use98"
               style="stroke-linecap:butt;stroke-linejoin:round"
               x="0"
               y="0"
               width="100%"
               height="100%" />
            <use
               transform="matrix(0.996264,0,0,0.996264,72.787654,0)"
               xlink:href="#CMR17-52"
               id="use100"
               style="stroke-linecap:butt;stroke-linejoin:round"
               x="0"
               y="0"
               width="100%"
               height="100%" />
          </g>
        </g>
      </g>
      <g
         id="xtick_6"
         style="stroke-linecap:butt;stroke-linejoin:round">
        <g
           id="line2d_6"
           style="stroke-linecap:butt;stroke-linejoin:round">
          <g
             id="g108"
             style="stroke-linecap:butt;stroke-linejoin:round">
            <use
               style="stroke:#000000;stroke-width:0.8;stroke-linecap:butt;stroke-linejoin:round"
               x="747.16364"
               xlink:href="#m70c4d0b9d0"
               y="252"
               id="use106"
               width="100%"
               height="100%" />
          </g>
        </g>
        <g
           id="text_6"
           style="stroke-linecap:butt;stroke-linejoin:round">
          <!-- $0.5$ -->
          <defs
             id="defs112">
            <path
               d="m 11.40625,58.59375 c 1,-0.40625 5.09375,-1.703125 9.296875,-1.703125 9.296875,0 14.390625,5 17.296875,7.796875 C 38,65.484375 38,66 37.40625,66 c -0.109375,0 -0.3125,0 -1.109375,-0.40625 -3.5,-1.5 -7.59375,-2.59375 -12.59375,-2.59375 -3,0 -7.5,0.359375 -12.40625,2.484375 C 10.203125,66 10,66 9.90625,66 9.40625,66 9.296875,65.890625 9.296875,63.90625 V 34.859375 c 0,-1.84375 0,-2.359375 1,-2.359375 0.5,0 0.703125,0.203125 1.203125,0.921875 C 14.703125,38.046875 19.09375,40 24.09375,40 c 3.5,0 11,-2.265625 11,-19.796875 0,-3.21875 0,-9.015625 -3,-13.609375 -2.5,-4.109375 -6.390625,-6.203125 -10.6875,-6.203125 -6.609375,0 -13.3125,4.59375 -15.109375,12.296875 C 6.703125,12.59375 7.5,12.390625 7.90625,12.390625 c 1.296875,0 3.796875,0.703125 3.796875,3.796875 C 11.703125,18.890625 9.796875,20 7.90625,20 5.59375,20 4.09375,18.59375 4.09375,15.796875 4.09375,7.09375 11,-2 21.59375,-2 c 10.3125,0 20.109375,8.890625 20.109375,21.796875 0,12.296875 -7.796875,21.796875 -17.5,21.796875 -5.109375,0 -9.40625,-1.90625 -12.796875,-5.59375 z"
               id="path5227"
               inkscape:connector-curvature="0"
               style="stroke-linecap:butt;stroke-linejoin:round" />
          </defs>
          <g
             transform="matrix(0.14,0,0,-0.14,738.43835,268.68588)"
             id="g120"
             style="stroke-linecap:butt;stroke-linejoin:round">
            <use
               transform="scale(0.996264)"
               xlink:href="#CMR17-48"
               id="use114"
               style="stroke-linecap:butt;stroke-linejoin:round"
               x="0"
               y="0"
               width="100%"
               height="100%" />
            <use
               transform="matrix(0.996264,0,0,0.996264,45.690477,0)"
               xlink:href="#CMMI12-58"
               id="use116"
               style="stroke-linecap:butt;stroke-linejoin:round"
               x="0"
               y="0"
               width="100%"
               height="100%" />
            <use
               transform="matrix(0.996264,0,0,0.996264,72.787654,0)"
               xlink:href="#CMR17-53"
               id="use118"
               style="stroke-linecap:butt;stroke-linejoin:round"
               x="0"
               y="0"
               width="100%"
               height="100%" />
          </g>
        </g>
      </g>
      <g
         id="text_7"
         style="stroke-linecap:butt;stroke-linejoin:round">
        <!-- Time (s) -->
        <defs
           id="defs131">
          <path
             d="M 62.203125,67.6875 H 4.5 l -1.703125,-22 H 4.59375 c 1.3125,16.515625 2.703125,19.40625 18.109375,19.40625 1.796875,0 4.703125,0 5.5,-0.109375 C 30.09375,64.6875 30.09375,63.5 30.09375,61.203125 V 7.265625 C 30.09375,3.6875 29.796875,2.59375 21.5,2.59375 H 18.703125 V 0 C 23.5,0.09375 28.5,0.1875 33.40625,0.1875 38.296875,0.1875 43.296875,0.09375 48.09375,0 v 2.59375 h -2.796875 c -8.296875,0 -8.59375,1.09375 -8.59375,4.671875 v 53.9375 c 0,2.1875 0,3.390625 1.796875,3.78125 0.796875,0.109375 3.703125,0.109375 5.5,0.109375 15.296875,0 16.796875,-2.890625 18.09375,-19.40625 h 1.8125 z"
             id="path5236"
             inkscape:connector-curvature="0"
             style="stroke-linecap:butt;stroke-linejoin:round" />
          <path
             d="M 15.5,61.890625 C 15.5,64.09375 13.703125,66 11.40625,66 9.203125,66 7.296875,64.1875 7.296875,61.890625 c 0,-2.203125 1.796875,-4.09375 4.109375,-4.09375 2.1875,0 4.09375,1.796875 4.09375,4.09375 z m -11.703125,-19 v -2.59375 c 5.609375,0 6.40625,-0.609375 6.40625,-5.4375 V 6.921875 C 10.203125,3.09375 9.796875,2.59375 3.40625,2.59375 V 0 c 2.390625,0.1875 6.6875,0.1875 9.1875,0.1875 2.40625,0 6.5,0 8.8125,-0.1875 v 2.59375 c -5.90625,0 -6.109375,0.609375 -6.109375,4.21875 V 44 Z"
             id="path5238"
             inkscape:connector-curvature="0"
             style="stroke-linecap:butt;stroke-linejoin:round" />
          <path
             d="M 67.59375,30.53125 C 67.59375,35.5625 66.703125,44 54.796875,44 48,44 43.296875,39.375 41.5,33.953125 H 41.40625 C 40.203125,42.1875 34.296875,44 28.703125,44 c -7.90625,0 -12,-6.125 -13.5,-10.15625 H 15.09375 V 44 L 3.296875,42.890625 V 40.28125 c 5.90625,0 6.796875,-0.59375 6.796875,-5.421875 V 6.921875 C 10.09375,3.09375 9.703125,2.59375 3.296875,2.59375 V 0 c 2.40625,0.1875 6.796875,0.1875 9.40625,0.1875 2.59375,0 7.09375,0 9.5,-0.1875 V 2.59375 C 15.796875,2.59375 15.40625,3 15.40625,6.921875 V 26.21875 C 15.40625,35.453125 21,42.390625 28,42.390625 c 7.40625,0 8.203125,-6.625 8.203125,-11.453125 V 6.921875 c 0,-3.828125 -0.40625,-4.328125 -6.796875,-4.328125 V 0 c 2.390625,0.1875 6.796875,0.1875 9.390625,0.1875 2.609375,0 7.109375,0 9.5,-0.1875 V 2.59375 C 41.90625,2.59375 41.5,3 41.5,6.921875 V 26.21875 c 0,9.234375 5.59375,16.171875 12.59375,16.171875 7.40625,0 8.203125,-6.625 8.203125,-11.453125 V 6.921875 C 62.296875,3.09375 61.90625,2.59375 55.5,2.59375 V 0 c 2.40625,0.1875 6.796875,0.1875 9.40625,0.1875 2.59375,0 7.09375,0 9.5,-0.1875 V 2.59375 C 68,2.59375 67.59375,3 67.59375,6.921875 Z"
             id="path5240"
             inkscape:connector-curvature="0"
             style="stroke-linecap:butt;stroke-linejoin:round" />
          <path
             d="M 38.09375,23.484375 C 38.5,23.890625 38.5,24.09375 38.5,25.09375 38.5,35.171875 33.09375,44 21.703125,44 c -10.609375,0 -19,-10.015625 -19,-22.21875 C 2.703125,8.65625 12.203125,-1 22.796875,-1 34,-1 38.40625,9.671875 38.40625,11.796875 38.40625,12.5 37.796875,12.5 37.59375,12.5 c -0.6875,0 -0.796875,-0.203125 -1.1875,-1.421875 C 34.203125,4.21875 28.703125,0.796875 23.5,0.796875 19.203125,0.796875 14.90625,3.21875 12.203125,7.65625 9.09375,12.796875 9.09375,18.75 9.09375,23.484375 Z M 9.203125,25 C 9.90625,39.234375 17.59375,42.390625 21.59375,42.390625 28.40625,42.390625 33,36.0625 33.09375,25 Z"
             id="path5242"
             inkscape:connector-curvature="0"
             style="stroke-linecap:butt;stroke-linejoin:round" />
          <path
             d="m 30.59375,-24.40625 c 0,0.09375 0,0.296875 -0.296875,0.59375 -4.59375,4.703125 -16.890625,17.515625 -16.890625,48.75 0,31.234375 12.09375,43.9375 17,48.953125 0,0.09375 0.1875,0.296875 0.1875,0.59375 0,0.3125 -0.296875,0.515625 -0.6875,0.515625 -1.109375,0 -9.609375,-7.421875 -14.5,-18.4375 C 10.40625,45.453125 9,34.65625 9,25.046875 9,17.828125 9.703125,5.625 15.703125,-7.296875 20.5,-17.703125 28.703125,-25 29.90625,-25 c 0.5,0 0.6875,0.1875 0.6875,0.59375 z"
             id="path5244"
             inkscape:connector-curvature="0"
             style="stroke-linecap:butt;stroke-linejoin:round" />
          <path
             d="m 30.90625,42 c 0,1.796875 -0.109375,1.890625 -0.703125,1.890625 -0.40625,0 -0.5,-0.09375 -1.703125,-1.59375 C 28.203125,41.890625 27.296875,40.890625 27,40.5 23.796875,43.890625 19.296875,44 17.59375,44 6.5,44 2.5,38.1875 2.5,32.390625 c 0,-9 10.203125,-11.09375 13.09375,-11.703125 6.3125,-1.296875 8.5,-1.6875 10.609375,-3.5 1.296875,-1.1875 3.5,-3.390625 3.5,-7 C 29.703125,6 27.296875,0.59375 18.09375,0.59375 9.40625,0.59375 6.296875,7.1875 4.5,16 4.203125,17.390625 4.203125,17.5 3.40625,17.5 2.59375,17.5 2.5,17.390625 2.5,15.390625 V 1 c 0,-1.8125 0.09375,-1.90625 0.703125,-1.90625 0.5,0 0.59375,0.09375 1.09375,0.90625 C 4.90625,0.890625 6.40625,3.296875 7,4.296875 9,1.59375 12.5,-1 18.09375,-1 28,-1 33.296875,4.390625 33.296875,12.1875 c 0,5.109375 -2.703125,7.8125 -4,9 -3,3.109375 -6.5,3.8125 -10.703125,4.609375 -5.5,1.203125 -12.5,2.59375 -12.5,8.703125 0,2.59375 1.40625,8.09375 11.5,8.09375 10.703125,0 11.3125,-10 11.5,-13.203125 0.109375,-0.5 0.609375,-0.59375 0.90625,-0.59375 0.90625,0 0.90625,0.296875 0.90625,2 z"
             id="path5246"
             inkscape:connector-curvature="0"
             style="stroke-linecap:butt;stroke-linejoin:round" />
          <path
             d="m 26.296875,24.9375 c 0,7.203125 -0.703125,19.421875 -6.703125,32.328125 C 14.796875,67.6875 6.59375,75 5.40625,75 5.09375,75 4.703125,74.890625 4.703125,74.390625 c 0,-0.203125 0.09375,-0.296875 0.203125,-0.5 4.796875,-5.015625 17,-17.71875 17,-48.84375 0,-31.234375 -12.109375,-43.953125 -17,-48.953125 -0.109375,-0.203125 -0.203125,-0.296875 -0.203125,-0.5 0,-0.5 0.390625,-0.59375 0.703125,-0.59375 1.09375,0 9.59375,7.390625 14.5,18.40625 5,11.109375 6.390625,21.921875 6.390625,31.53125 z"
             id="path5248"
             inkscape:connector-curvature="0"
             style="stroke-linecap:butt;stroke-linejoin:round" />
        </defs>
        <g
           transform="matrix(0.14,0,0,-0.14,416.96555,285.85868)"
           id="g147"
           style="stroke-linecap:butt;stroke-linejoin:round">
          <use
             transform="scale(0.996264)"
             xlink:href="#CMR17-84"
             id="use133"
             style="stroke-linecap:butt;stroke-linejoin:round"
             x="0"
             y="0"
             width="100%"
             height="100%" />
          <use
             transform="matrix(0.996264,0,0,0.996264,66.509881,0)"
             xlink:href="#CMR17-105"
             id="use135"
             style="stroke-linecap:butt;stroke-linejoin:round"
             x="0"
             y="0"
             width="100%"
             height="100%" />
          <use
             transform="matrix(0.996264,0,0,0.996264,91.380939,0)"
             xlink:href="#CMR17-109"
             id="use137"
             style="stroke-linecap:butt;stroke-linejoin:round"
             x="0"
             y="0"
             width="100%"
             height="100%" />
          <use
             transform="matrix(0.996264,0,0,0.996264,168.30053,0)"
             xlink:href="#CMR17-101"
             id="use139"
             style="stroke-linecap:butt;stroke-linejoin:round"
             x="0"
             y="0"
             width="100%"
             height="100%" />
          <use
             transform="matrix(0.996264,0,0,0.996264,238.86216,0)"
             xlink:href="#CMR17-40"
             id="use141"
             style="stroke-linecap:butt;stroke-linejoin:round"
             x="0"
             y="0"
             width="100%"
             height="100%" />
          <use
             transform="matrix(0.996264,0,0,0.996264,274.14292,0)"
             xlink:href="#CMR17-115"
             id="use143"
             style="stroke-linecap:butt;stroke-linejoin:round"
             x="0"
             y="0"
             width="100%"
             height="100%" />
          <use
             transform="matrix(0.996264,0,0,0.996264,309.94426,0)"
             xlink:href="#CMR17-41"
             id="use145"
             style="stroke-linecap:butt;stroke-linejoin:round"
             x="0"
             y="0"
             width="100%"
             height="100%" />
        </g>
      </g>
    </g>
    <g
       id="matplotlib.axis_2"
       style="stroke-linecap:butt;stroke-linejoin:round"
       transform="matrix(0.35277777,0,0,0.35277777,-17.668247,-5.4794004)">
      <g
         id="ytick_1"
         style="stroke-linecap:butt;stroke-linejoin:round">
        <g
           id="line2d_7"
           style="stroke-linecap:butt;stroke-linejoin:round">
          <defs
             id="defs152">
            <path
               d="M 0,0 H -3.5"
               id="path5261"
               style="stroke:#000000;stroke-width:0.8;stroke-linecap:butt;stroke-linejoin:round"
               inkscape:connector-curvature="0" />
          </defs>
          <g
             id="g156"
             style="stroke-linecap:butt;stroke-linejoin:round">
            <use
               style="stroke:#000000;stroke-width:0.8;stroke-linecap:butt;stroke-linejoin:round"
               x="108"
               xlink:href="#m5112ebc940"
               y="249.71574"
               id="use154"
               width="100%"
               height="100%" />
          </g>
        </g>
        <g
           id="text_8"
           style="stroke-linecap:butt;stroke-linejoin:round">
          <!-- $-10$ -->
          <defs
             id="defs160">
            <path
               d="m 65.90625,23 c 1.6875,0 3.5,0 3.5,2 0,2 -1.8125,2 -3.5,2 H 11.796875 c -1.703125,0 -3.5,0 -3.5,-2 0,-2 1.796875,-2 3.5,-2 z"
               id="path5267"
               inkscape:connector-curvature="0"
               style="stroke-linecap:butt;stroke-linejoin:round" />
          </defs>
          <g
             transform="matrix(0.14,0,0,-0.14,76.494788,254.55868)"
             id="g168"
             style="stroke-linecap:butt;stroke-linejoin:round">
            <use
               transform="scale(0.996264)"
               xlink:href="#CMSY10-0"
               id="use162"
               style="stroke-linecap:butt;stroke-linejoin:round"
               x="0"
               y="0"
               width="100%"
               height="100%" />
            <use
               transform="matrix(0.996264,0,0,0.996264,77.487468,0)"
               xlink:href="#CMR17-49"
               id="use164"
               style="stroke-linecap:butt;stroke-linejoin:round"
               x="0"
               y="0"
               width="100%"
               height="100%" />
            <use
               transform="matrix(0.996264,0,0,0.996264,123.17794,0)"
               xlink:href="#CMR17-48"
               id="use166"
               style="stroke-linecap:butt;stroke-linejoin:round"
               x="0"
               y="0"
               width="100%"
               height="100%" />
          </g>
        </g>
      </g>
      <g
         id="ytick_2"
         style="stroke-linecap:butt;stroke-linejoin:round">
        <g
           id="line2d_8"
           style="stroke-linecap:butt;stroke-linejoin:round">
          <g
             id="g174"
             style="stroke-linecap:butt;stroke-linejoin:round">
            <use
               style="stroke:#000000;stroke-width:0.8;stroke-linecap:butt;stroke-linejoin:round"
               x="108"
               xlink:href="#m5112ebc940"
               y="208.66132"
               id="use172"
               width="100%"
               height="100%" />
          </g>
        </g>
        <g
           id="text_9"
           style="stroke-linecap:butt;stroke-linejoin:round">
          <!-- $-5$ -->
          <g
             transform="matrix(0.14,0,0,-0.14,83.323276,213.50426)"
             id="g181"
             style="stroke-linecap:butt;stroke-linejoin:round">
            <use
               transform="scale(0.996264)"
               xlink:href="#CMSY10-0"
               id="use177"
               style="stroke-linecap:butt;stroke-linejoin:round"
               x="0"
               y="0"
               width="100%"
               height="100%" />
            <use
               transform="matrix(0.996264,0,0,0.996264,77.487468,0)"
               xlink:href="#CMR17-53"
               id="use179"
               style="stroke-linecap:butt;stroke-linejoin:round"
               x="0"
               y="0"
               width="100%"
               height="100%" />
          </g>
        </g>
      </g>
      <g
         id="ytick_3"
         style="stroke-linecap:butt;stroke-linejoin:round">
        <g
           id="line2d_9"
           style="stroke-linecap:butt;stroke-linejoin:round">
          <g
             id="g187"
             style="stroke-linecap:butt;stroke-linejoin:round">
            <use
               style="stroke:#000000;stroke-width:0.8;stroke-linecap:butt;stroke-linejoin:round"
               x="108"
               xlink:href="#m5112ebc940"
               y="167.6069"
               id="use185"
               width="100%"
               height="100%" />
          </g>
        </g>
        <g
           id="text_10"
           style="stroke-linecap:butt;stroke-linejoin:round">
          <!-- $0$ -->
          <g
             transform="matrix(0.14,0,0,-0.14,94.171511,172.44984)"
             id="g192"
             style="stroke-linecap:butt;stroke-linejoin:round">
            <use
               transform="scale(0.996264)"
               xlink:href="#CMR17-48"
               id="use190"
               style="stroke-linecap:butt;stroke-linejoin:round"
               x="0"
               y="0"
               width="100%"
               height="100%" />
          </g>
        </g>
      </g>
      <g
         id="ytick_4"
         style="stroke-linecap:butt;stroke-linejoin:round">
        <g
           id="line2d_10"
           style="stroke-linecap:butt;stroke-linejoin:round">
          <g
             id="g198"
             style="stroke-linecap:butt;stroke-linejoin:round">
            <use
               style="stroke:#000000;stroke-width:0.8;stroke-linecap:butt;stroke-linejoin:round"
               x="108"
               xlink:href="#m5112ebc940"
               y="126.55248"
               id="use196"
               width="100%"
               height="100%" />
          </g>
        </g>
        <g
           id="text_11"
           style="stroke-linecap:butt;stroke-linejoin:round">
          <!-- $5$ -->
          <g
             transform="matrix(0.14,0,0,-0.14,94.171511,131.39542)"
             id="g203"
             style="stroke-linecap:butt;stroke-linejoin:round">
            <use
               transform="scale(0.996264)"
               xlink:href="#CMR17-53"
               id="use201"
               style="stroke-linecap:butt;stroke-linejoin:round"
               x="0"
               y="0"
               width="100%"
               height="100%" />
          </g>
        </g>
      </g>
      <g
         id="ytick_5"
         style="stroke-linecap:butt;stroke-linejoin:round">
        <g
           id="line2d_11"
           style="stroke-linecap:butt;stroke-linejoin:round">
          <g
             id="g209"
             style="stroke-linecap:butt;stroke-linejoin:round">
            <use
               style="stroke:#000000;stroke-width:0.8;stroke-linecap:butt;stroke-linejoin:round"
               x="108"
               xlink:href="#m5112ebc940"
               y="85.498055"
               id="use207"
               width="100%"
               height="100%" />
          </g>
        </g>
        <g
           id="text_12"
           style="stroke-linecap:butt;stroke-linejoin:round">
          <!-- $10$ -->
          <g
             transform="matrix(0.14,0,0,-0.14,87.343023,90.340996)"
             id="g216"
             style="stroke-linecap:butt;stroke-linejoin:round">
            <use
               transform="scale(0.996264)"
               xlink:href="#CMR17-49"
               id="use212"
               style="stroke-linecap:butt;stroke-linejoin:round"
               x="0"
               y="0"
               width="100%"
               height="100%" />
            <use
               transform="matrix(0.996264,0,0,0.996264,45.690477,0)"
               xlink:href="#CMR17-48"
               id="use214"
               style="stroke-linecap:butt;stroke-linejoin:round"
               x="0"
               y="0"
               width="100%"
               height="100%" />
          </g>
        </g>
      </g>
      <g
         id="ytick_6"
         style="stroke-linecap:butt;stroke-linejoin:round">
        <g
           id="line2d_12"
           style="stroke-linecap:butt;stroke-linejoin:round">
          <g
             id="g222"
             style="stroke-linecap:butt;stroke-linejoin:round">
            <use
               style="stroke:#000000;stroke-width:0.8;stroke-linecap:butt;stroke-linejoin:round"
               x="108"
               xlink:href="#m5112ebc940"
               y="44.443638"
               id="use220"
               width="100%"
               height="100%" />
          </g>
        </g>
        <g
           id="text_13"
           style="stroke-linecap:butt;stroke-linejoin:round">
          <!-- $15$ -->
          <g
             transform="matrix(0.14,0,0,-0.14,87.343023,49.286575)"
             id="g229"
             style="stroke-linecap:butt;stroke-linejoin:round">
            <use
               transform="scale(0.996264)"
               xlink:href="#CMR17-49"
               id="use225"
               style="stroke-linecap:butt;stroke-linejoin:round"
               x="0"
               y="0"
               width="100%"
               height="100%" />
            <use
               transform="matrix(0.996264,0,0,0.996264,45.690477,0)"
               xlink:href="#CMR17-53"
               id="use227"
               style="stroke-linecap:butt;stroke-linejoin:round"
               x="0"
               y="0"
               width="100%"
               height="100%" />
          </g>
        </g>
      </g>
      <g
         id="text_14"
         style="stroke-linecap:butt;stroke-linejoin:round">
        <!-- Amplitude (arb. units) -->
        <defs
           id="defs244">
          <path
             d="M 36.296875,69.390625 C 35.796875,70.6875 35.59375,71 34.59375,71 c -1,0 -1.1875,-0.3125 -1.6875,-1.609375 L 11.703125,9.0625 C 9.796875,3.6875 5.796875,2.59375 2.296875,2.59375 V 0 C 4.09375,0.1875 8.09375,0.1875 10,0.1875 c 2.5,0 6.5,0 8.90625,-0.1875 V 2.59375 C 14.203125,2.796875 13.5,5.96875 13.5,7.171875 13.5,8.0625 13.703125,8.5625 13.90625,9.15625 L 19.203125,24 H 45.40625 l 6,-16.921875 c 0.5,-1.203125 0.5,-1.40625 0.5,-1.796875 0,-2.6875 -4.3125,-2.6875 -6.203125,-2.6875 V 0 c 2.890625,0.1875 8.09375,0.1875 11.203125,0.1875 2.59375,0 7.59375,0 10,-0.1875 v 2.59375 c -5.3125,0 -7.109375,0 -8.40625,3.6875 z m -4,-8.078125 L 44.5,26.59375 H 20.09375 Z"
             id="path5314"
             inkscape:connector-curvature="0"
             style="stroke-linecap:butt;stroke-linejoin:round" />
          <path
             d="m 22,-17.40625 c -6.40625,0 -6.796875,0.40625 -6.796875,4.375 V 5.9375 C 18.09375,1.703125 22.296875,-1 27.59375,-1 c 10,0 20.109375,8.859375 20.109375,22.59375 C 47.703125,34.3125 39,44 28.703125,44 22.703125,44 17.796875,40.671875 15,36.640625 V 44 L 3.09375,42.890625 v -2.625 c 5.90625,0 6.8125,-0.59375 6.8125,-5.453125 v -47.84375 c 0,-3.859375 -0.40625,-4.375 -6.8125,-4.375 V -20 c 2.40625,0.1875 6.8125,0.1875 9.40625,0.1875 2.59375,0 7.09375,0 9.5,-0.1875 z m -6.796875,48.890625 c 0,1.421875 0,3.53125 3.890625,7.28125 C 19.59375,39.15625 23,42.1875 28,42.1875 35.296875,42.1875 41.296875,33 41.296875,21.5 41.296875,9.984375 34.90625,0.59375 27,0.59375 23.40625,0.59375 19.5,2.3125 16.5,7.046875 15.203125,9.28125 15.203125,9.875 15.203125,11.5 Z"
             id="path5316"
             inkscape:connector-curvature="0"
             style="stroke-linecap:butt;stroke-linejoin:round" />
          <path
             d="M 15.296875,69 3.40625,67.890625 v -2.59375 c 5.890625,0 6.796875,-0.59375 6.796875,-5.375 V 6.859375 C 10.203125,3.09375 9.796875,2.59375 3.40625,2.59375 V 0 c 2.390625,0.1875 6.796875,0.1875 9.296875,0.1875 2.59375,0 7,0 9.390625,-0.1875 v 2.59375 c -6.390625,0 -6.796875,0.390625 -6.796875,4.265625 z"
             id="path5318"
             inkscape:connector-curvature="0"
             style="stroke-linecap:butt;stroke-linejoin:round" />
          <path
             d="m 15.09375,40.390625 h 14 V 43 h -14 V 62 H 13.296875 C 13.09375,51.4375 9.59375,42.1875 1.09375,41.984375 v -1.59375 H 9.796875 V 12.15625 c 0,-1.921875 0,-13.15625 11.609375,-13.15625 5.890625,0 9.296875,5.8125 9.296875,13.25 v 5.734375 H 28.90625 V 12.34375 C 28.90625,5.421875 26.203125,0.796875 22,0.796875 c -2.90625,0 -6.90625,2 -6.90625,11.15625 z"
             id="path5320"
             inkscape:connector-curvature="0"
             style="stroke-linecap:butt;stroke-linejoin:round" />
          <path
             d="m 29.40625,42.890625 v -2.59375 c 5.890625,0 6.796875,-0.609375 6.796875,-5.46875 v -18.375 c 0,-8.484375 -4.5,-15.859375 -11.90625,-15.859375 -8.203125,0 -8.890625,4.953125 -8.890625,10.203125 V 44 L 3.296875,42.890625 v -2.59375 c 4,0 6.703125,0 6.796875,-4.046875 V 16.859375 c 0,-6.765625 0,-11.109375 2.609375,-13.9375 C 14,1.609375 16.5,-1 23.703125,-1 c 8.5,0 11.796875,7.25 12.59375,9.375 H 36.40625 V -1 l 11.890625,0.796875 V 2.40625 C 42.40625,2.40625 41.5,3.015625 41.5,7.859375 V 44 Z"
             id="path5322"
             inkscape:connector-curvature="0"
             style="stroke-linecap:butt;stroke-linejoin:round" />
          <path
             d="m 29.203125,67.890625 v -2.59375 c 5.890625,0 6.796875,-0.59375 6.796875,-5.25 v -23 C 35.59375,37.546875 31.5,44 23.40625,44 13.203125,44 3.296875,34.8125 3.296875,21.5 3.296875,8.265625 12.59375,-1 22.40625,-1 c 8.5,0 12.890625,6.640625 13.390625,7.34375 V -1 L 47.90625,-0.203125 V 2.40625 c -5.90625,0 -6.8125,0.609375 -6.8125,5.453125 V 69 Z M 35.796875,11.90625 C 35.796875,8.875 34,6.140625 31.703125,4.125 28.296875,1.09375 24.90625,0.59375 23,0.59375 c -2.90625,0 -13.296875,1.515625 -13.296875,20.796875 0,19.796875 11.59375,21 14.203125,21 4.59375,0 8.296875,-2.625 10.59375,-6.25 1.296875,-2.125 1.296875,-2.4375 1.296875,-4.25 z"
             id="path5324"
             inkscape:connector-curvature="0"
             style="stroke-linecap:butt;stroke-linejoin:round" />
          <path
             d="M 36,25.875 C 36,32 36,35.546875 31.796875,39.59375 28.09375,42.984375 23.796875,44 20.40625,44 12.5,44 6.796875,37.625 6.796875,30.890625 6.796875,27.1875 9.796875,27 10.40625,27 11.703125,27 14,27.796875 14,30.59375 c 0,2.5 -1.90625,3.59375 -3.59375,3.59375 C 10,34.1875 9.5,34.09375 9.203125,34 c 2.09375,6.53125 7.5,8.390625 11,8.390625 5,0 10.5,-4.5625 10.5,-13.09375 V 25.5 c -5.90625,-0.203125 -13,-1 -18.609375,-4.046875 C 5.796875,17.921875 4,12.84375 4,9 4,1.203125 13,-1 18.296875,-1 c 5.5,0 10.609375,3.109375 12.796875,8.890625 0.203125,-4.46875 3,-8.5 7.40625,-8.5 2.09375,0 7.40625,1.40625 7.40625,9.40625 v 5.671875 h -1.8125 V 8.703125 c 0,-6.1875 -2.6875,-7 -4,-7 C 36,1.703125 36,6.96875 36,11.4375 Z M 30.703125,13.859375 C 30.703125,5.046875 24.5,0.59375 19,0.59375 c -5,0 -8.90625,3.75 -8.90625,8.40625 0,3.046875 1.3125,8.40625 7.109375,11.65625 C 22,23.390625 27.5,23.796875 30.703125,24 Z"
             id="path5326"
             inkscape:connector-curvature="0"
             style="stroke-linecap:butt;stroke-linejoin:round" />
          <path
             d="m 15,23.703125 c 0,9.640625 4.09375,18.6875 11.59375,18.6875 0.703125,0 1.40625,-0.09375 2.109375,-0.40625 0,0 -2.203125,-0.703125 -2.203125,-3.3125 0,-2.40625 1.90625,-3.40625 3.40625,-3.40625 1.1875,0 3.390625,0.703125 3.390625,3.515625 0,3.203125 -3.203125,5.21875 -6.59375,5.21875 -7.609375,0 -10.90625,-7.4375 -11.90625,-10.953125 h -0.09375 V 44 L 3.09375,42.890625 V 40.28125 c 5.90625,0 6.8125,-0.59375 6.8125,-5.421875 V 6.921875 C 9.90625,3.09375 9.5,2.59375 3.09375,2.59375 V 0 c 2.40625,0.1875 7,0.1875 9.609375,0.1875 2.890625,0 8,0 10.703125,-0.1875 v 2.59375 c -7.203125,0 -8.40625,0 -8.40625,4.515625 z"
             id="path5328"
             inkscape:connector-curvature="0"
             style="stroke-linecap:butt;stroke-linejoin:round" />
          <path
             d="M 15,69 3.09375,67.890625 v -2.59375 c 5.90625,0 6.8125,-0.59375 6.8125,-5.25 v -60.25 h 1.796875 l 2.890625,7.15625 C 17.5,2.203125 21.796875,-1 27.59375,-1 c 10,0 20.109375,8.859375 20.109375,22.59375 0,12.921875 -9,22.40625 -19.109375,22.40625 C 22.40625,44 18,40.671875 15,36.734375 Z m 0.203125,-37.40625 c 0,1.8125 0,2.109375 1.390625,4.234375 3.90625,6.0625 9.5,6.5625 11.40625,6.5625 3,0 13.296875,-1.609375 13.296875,-20.703125 C 41.296875,1.703125 29.5,0.59375 27.09375,0.59375 24,0.59375 19.5,1.796875 16.296875,7.65625 c -1.09375,1.921875 -1.09375,2.125 -1.09375,3.9375 z"
             id="path5330"
             inkscape:connector-curvature="0"
             style="stroke-linecap:butt;stroke-linejoin:round" />
          <path
             d="m 16.59375,4.09375 c 0,2.5 -2,4.09375 -4.09375,4.09375 -2,0 -4.09375,-1.59375 -4.09375,-4.09375 0,-2.5 2,-4.09375 4.09375,-4.09375 2,0 4.09375,1.59375 4.09375,4.09375 z"
             id="path5332"
             inkscape:connector-curvature="0"
             style="stroke-linecap:butt;stroke-linejoin:round" />
          <path
             d="M 41.5,30.53125 C 41.5,35.65625 40.5,44 28.703125,44 c -7.90625,0 -12,-6.125 -13.5,-10.15625 H 15.09375 V 44 L 3.296875,42.890625 V 40.28125 c 5.90625,0 6.796875,-0.59375 6.796875,-5.421875 V 6.921875 C 10.09375,3.09375 9.703125,2.59375 3.296875,2.59375 V 0 c 2.40625,0.1875 6.796875,0.1875 9.40625,0.1875 2.59375,0 7.09375,0 9.5,-0.1875 V 2.59375 C 15.796875,2.59375 15.40625,3 15.40625,6.921875 V 26.21875 C 15.40625,35.453125 21,42.390625 28,42.390625 c 7.40625,0 8.203125,-6.625 8.203125,-11.453125 V 6.921875 c 0,-3.828125 -0.40625,-4.328125 -6.796875,-4.328125 V 0 c 2.390625,0.1875 6.796875,0.1875 9.390625,0.1875 2.609375,0 7.109375,0 9.5,-0.1875 V 2.59375 C 41.90625,2.59375 41.5,3 41.5,6.921875 Z"
             id="path5334"
             inkscape:connector-curvature="0"
             style="stroke-linecap:butt;stroke-linejoin:round" />
        </defs>
        <g
           transform="matrix(0,-0.14,-0.14,0,69.007864,212.16945)"
           id="g286"
           style="stroke-linecap:butt;stroke-linejoin:round">
          <use
             transform="scale(0.996264)"
             xlink:href="#CMR17-65"
             id="use246"
             style="stroke-linecap:butt;stroke-linejoin:round"
             x="0"
             y="0"
             width="100%"
             height="100%" />
          <use
             transform="matrix(0.996264,0,0,0.996264,69.07243,0)"
             xlink:href="#CMR17-109"
             id="use248"
             style="stroke-linecap:butt;stroke-linejoin:round"
             x="0"
             y="0"
             width="100%"
             height="100%" />
          <use
             transform="matrix(0.996264,0,0,0.996264,145.99202,0)"
             xlink:href="#CMR17-112"
             id="use250"
             style="stroke-linecap:butt;stroke-linejoin:round"
             x="0"
             y="0"
             width="100%"
             height="100%" />
          <use
             transform="matrix(0.996264,0,0,0.996264,196.88739,0)"
             xlink:href="#CMR17-108"
             id="use252"
             style="stroke-linecap:butt;stroke-linejoin:round"
             x="0"
             y="0"
             width="100%"
             height="100%" />
          <use
             transform="matrix(0.996264,0,0,0.996264,221.75845,0)"
             xlink:href="#CMR17-105"
             id="use254"
             style="stroke-linecap:butt;stroke-linejoin:round"
             x="0"
             y="0"
             width="100%"
             height="100%" />
          <use
             transform="matrix(0.996264,0,0,0.996264,246.62951,0)"
             xlink:href="#CMR17-116"
             id="use256"
             style="stroke-linecap:butt;stroke-linejoin:round"
             x="0"
             y="0"
             width="100%"
             height="100%" />
          <use
             transform="matrix(0.996264,0,0,0.996264,281.91027,0)"
             xlink:href="#CMR17-117"
             id="use258"
             style="stroke-linecap:butt;stroke-linejoin:round"
             x="0"
             y="0"
             width="100%"
             height="100%" />
          <use
             transform="matrix(0.996264,0,0,0.996264,332.80564,0)"
             xlink:href="#CMR17-100"
             id="use260"
             style="stroke-linecap:butt;stroke-linejoin:round"
             x="0"
             y="0"
             width="100%"
             height="100%" />
          <use
             transform="matrix(0.996264,0,0,0.996264,383.70101,0)"
             xlink:href="#CMR17-101"
             id="use262"
             style="stroke-linecap:butt;stroke-linejoin:round"
             x="0"
             y="0"
             width="100%"
             height="100%" />
          <use
             transform="matrix(0.996264,0,0,0.996264,454.26264,0)"
             xlink:href="#CMR17-40"
             id="use264"
             style="stroke-linecap:butt;stroke-linejoin:round"
             x="0"
             y="0"
             width="100%"
             height="100%" />
          <use
             transform="matrix(0.996264,0,0,0.996264,489.54341,0)"
             xlink:href="#CMR17-97"
             id="use266"
             style="stroke-linecap:butt;stroke-linejoin:round"
             x="0"
             y="0"
             width="100%"
             height="100%" />
          <use
             transform="matrix(0.996264,0,0,0.996264,535.23389,0)"
             xlink:href="#CMR17-114"
             id="use268"
             style="stroke-linecap:butt;stroke-linejoin:round"
             x="0"
             y="0"
             width="100%"
             height="100%" />
          <use
             transform="matrix(0.996264,0,0,0.996264,570.51465,0)"
             xlink:href="#CMR17-98"
             id="use270"
             style="stroke-linecap:butt;stroke-linejoin:round"
             x="0"
             y="0"
             width="100%"
             height="100%" />
          <use
             transform="matrix(0.996264,0,0,0.996264,621.41002,0)"
             xlink:href="#CMR17-46"
             id="use272"
             style="stroke-linecap:butt;stroke-linejoin:round"
             x="0"
             y="0"
             width="100%"
             height="100%" />
          <use
             transform="matrix(0.996264,0,0,0.996264,686.76674,0)"
             xlink:href="#CMR17-117"
             id="use274"
             style="stroke-linecap:butt;stroke-linejoin:round"
             x="0"
             y="0"
             width="100%"
             height="100%" />
          <use
             transform="matrix(0.996264,0,0,0.996264,737.66211,0)"
             xlink:href="#CMR17-110"
             id="use276"
             style="stroke-linecap:butt;stroke-linejoin:round"
             x="0"
             y="0"
             width="100%"
             height="100%" />
          <use
             transform="matrix(0.996264,0,0,0.996264,788.55748,0)"
             xlink:href="#CMR17-105"
             id="use278"
             style="stroke-linecap:butt;stroke-linejoin:round"
             x="0"
             y="0"
             width="100%"
             height="100%" />
          <use
             transform="matrix(0.996264,0,0,0.996264,813.42854,0)"
             xlink:href="#CMR17-116"
             id="use280"
             style="stroke-linecap:butt;stroke-linejoin:round"
             x="0"
             y="0"
             width="100%"
             height="100%" />
          <use
             transform="matrix(0.996264,0,0,0.996264,848.70931,0)"
             xlink:href="#CMR17-115"
             id="use282"
             style="stroke-linecap:butt;stroke-linejoin:round"
             x="0"
             y="0"
             width="100%"
             height="100%" />
          <use
             transform="matrix(0.996264,0,0,0.996264,884.51065,0)"
             xlink:href="#CMR17-41"
             id="use284"
             style="stroke-linecap:butt;stroke-linejoin:round"
             x="0"
             y="0"
             width="100%"
             height="100%" />
        </g>
      </g>
    </g>
    <g
       id="line2d_13"
       style="stroke-linecap:butt;stroke-linejoin:round"
       transform="matrix(0.35277777,0,0,0.35277777,-17.668247,-5.4794004)">
      <path
         clip-path="url(#pa320b4f80f)"
         d="m 138.43636,44.443636 0.22087,0.119992 0.27608,0.486942 0.3589,1.189449 0.44173,2.315748 0.55215,4.181072 0.66259,6.81328 0.82824,11.040577 1.0215,16.919674 1.35278,26.53259 4.44488,90.45554 1.07671,16.03641 0.88345,10.06816 0.71781,5.92024 0.60738,3.36189 0.49694,1.61742 0.3589,0.53901 0.24847,0.0687 0.24847,-0.17613 0.30369,-0.54091 0.38651,-1.19115 0.49695,-2.32067 0.63498,-4.16208 0.77302,-6.66557 0.99389,-10.64526 1.46322,-18.35743 2.73318,-34.48057 1.13193,-11.37113 0.91106,-7.0414 0.74541,-4.15067 0.60738,-2.24617 0.49694,-1.06664 0.3589,-0.34111 0.30369,-0.0119 0.30369,0.23637 0.3589,0.59029 0.46933,1.25831 0.57977,2.26337 0.71781,3.76759 0.93867,6.23785 1.35279,10.67941 2.67796,21.33883 1.04911,6.47571 0.82823,3.81278 0.66259,2.09797 0.52456,1.02119 0.41411,0.39718 0.3313,0.057 0.33129,-0.17296 0.38652,-0.48752 0.46933,-0.99304 0.57977,-1.80178 0.7178,-3.03117 0.91106,-4.92014 1.24236,-8.06707 3.25774,-21.76009 0.96628,-4.76563 0.77302,-2.8062 0.63498,-1.54543 0.49694,-0.70242 0.41412,-0.23713 0.3589,0.0516 0.35891,0.28834 0.44172,0.67353 0.52456,1.2397 0.66259,2.20302 0.80063,3.50029 1.0491,5.68149 1.7669,11.05685 1.79452,10.76821 1.0491,5.01915 0.80063,2.85234 0.66259,1.60617 0.52455,0.74728 0.41412,0.25063 0.3589,-0.0281 0.35891,-0.25564 0.44172,-0.62313 0.52456,-1.16952 0.63498,-2.0052 0.77302,-3.22588 0.99389,-5.18441 1.49082,-9.14015 2.31907,-14.11642 1.02149,-4.87677 0.80063,-2.83875 0.63499,-1.52367 0.52455,-0.72989 0.41412,-0.2238 0.3589,0.0622 0.3589,0.301 0.44173,0.69587 0.52455,1.2822 0.63498,2.18271 0.77302,3.50564 0.99389,5.64677 1.43561,9.63519 2.53993,17.09688 1.02149,5.32002 0.77303,2.97427 0.63498,1.63988 0.49694,0.73216 0.38651,0.21948 0.3313,-0.0609 0.3589,-0.32748 0.41412,-0.71531 0.49694,-1.32869 0.60738,-2.29583 0.74541,-3.7551 0.91106,-5.80221 1.24236,-9.4832 3.36817,-26.51171 0.91106,-5.11856 0.71781,-2.85713 0.55215,-1.3789 0.41412,-0.52685 0.30369,-0.0971 0.27608,0.12969 0.3313,0.4344 0.41411,0.97556 0.49695,1.80715 0.60737,3.14032 0.71781,4.98186 0.85584,7.59072 1.07671,11.68689 1.54605,19.50102 2.56753,32.36575 1.07671,10.70584 0.80063,5.97778 0.63499,3.28394 0.49694,1.57118 0.38651,0.57715 0.24847,0.0624 0.24847,-0.1843 0.30369,-0.56524 0.38651,-1.26666 0.46934,-2.36773 0.57976,-4.17682 0.6902,-6.73719 0.82824,-10.48226 0.99388,-15.66756 1.24236,-23.36995 2.0706,-43.96873 2.07059,-42.36956 1.18714,-20.032604 0.93867,-12.387136 0.77302,-7.462921 0.60738,-3.959929 0.49694,-1.93253 0.3589,-0.647524 0.24848,-0.07762 0.22086,0.185959 0.27608,0.569112 0.3589,1.295285 0.46934,2.626854 0.57976,4.661149 0.6902,7.480065 0.85585,11.919348 1.0491,17.967817 1.43561,28.799605 3.8375,78.97273 1.13193,17.94231 0.93867,11.55199 0.77302,6.95896 0.63498,3.89781 0.52455,1.9641 0.38651,0.72389 0.27608,0.1466 0.24848,-0.12751 0.27607,-0.42431 0.35891,-0.98455 0.46933,-1.99577 0.57977,-3.50213 0.74541,-6.01123 0.93867,-9.57101 1.29757,-15.7695 3.50621,-43.81088 1.0491,-9.8889 0.85585,-6.12633 0.71781,-3.63442 0.57976,-1.88802 0.44173,-0.80436 0.3589,-0.25336 0.27608,0.0451 0.30369,0.28527 0.38651,0.70934 0.49694,1.45483 0.60738,2.54412 0.77302,4.30422 0.99388,6.91603 1.60126,12.98988 2.04299,16.21259 1.07671,6.83352 0.82824,3.97099 0.6902,2.31119 0.55216,1.14808 0.44172,0.45715 0.35891,0.068 0.33129,-0.17678 0.38651,-0.49185 0.46934,-0.99811 0.57976,-1.80762 0.71781,-3.03756 0.91106,-4.92658 1.24236,-8.0723 3.25773,-21.75267 0.96628,-4.75835 0.77302,-2.79926 0.63499,-1.53923 0.49694,-0.69739 0.41412,-0.23289 0.3589,0.0552 0.3589,0.29196 0.44173,0.67786 0.52455,1.2446 0.66259,2.20867 0.80063,3.5061 1.0491,5.68697 1.76691,11.05968 1.79452,10.76255 1.0491,5.01236 0.80063,2.84583 0.66259,1.60018 0.52455,0.74229 0.41412,0.24659 0.3589,-0.0316 0.3589,-0.25912 0.44173,-0.62735 0.52455,-1.17431 0.63498,-2.01061 0.77303,-3.23159 0.99388,-5.19001 1.49083,-9.14404 2.29146,-13.96271 1.0491,-5.01795 0.80063,-2.8321 0.63498,-1.51776 0.49694,-0.6989 0.41412,-0.24059 0.35891,0.0475 0.3589,0.28631 0.44173,0.67804 0.52455,1.26172 0.63498,2.15946 0.77302,3.48066 0.96628,5.45116 1.3804,9.20548 2.67797,18.02757 0.99388,5.15134 0.77302,2.96704 0.63499,1.63322 0.49694,0.72662 0.38651,0.21505 0.33129,-0.0647 0.35891,-0.33167 0.41412,-0.72012 0.52455,-1.4232 0.63498,-2.45795 0.77302,-3.99462 0.93867,-6.11365 1.29757,-10.0625 3.03688,-24.06715 0.93867,-5.51631 0.74541,-3.1598 0.57977,-1.57674 0.44172,-0.63484 0.3313,-0.13795 0.27608,0.11294 0.33129,0.414 0.38651,0.87151 0.49695,1.73786 0.57976,2.89653 0.71781,4.83752 0.85585,7.43731 1.0491,11.2141 1.49083,18.62448 2.7884,35.13988 1.0491,10.31868 0.80063,5.89838 0.63498,3.21195 0.49694,1.51029 0.35891,0.50921 0.24847,0.057 0.24847,-0.18983 0.30369,-0.57208 0.38651,-1.27545 0.46933,-2.37845 0.57977,-4.18991 0.6902,-6.75224 0.82824,-10.499 0.99388,-15.68482 1.24236,-23.3857 2.07059,-43.97685 2.0706,-42.352814 1.18714,-20.012639 0.93867,-12.367029 0.77302,-7.444174 0.60737,-3.944214 0.49695,-1.919256 0.3589,-0.63781 0.24847,-0.07087 0.22087,0.191955 0.27607,0.576577 0.35891,1.304894 0.46933,2.639157 0.57977,4.675745 0.6902,7.49624 0.85584,11.937035 1.0491,17.985037 1.43562,28.813716 3.8375,78.95271 1.13192,17.92276 0.91107,11.24102 0.77302,7.02723 0.63498,3.95556 0.52455,2.01191 0.38651,0.75873 0.27608,0.1711 0.24847,-0.10584 0.27608,-0.40076 0.35891,-0.95486 0.46933,-1.9589 0.57977,-3.46019 0.7178,-5.71577 0.91106,-9.16071 1.26997,-15.28127 3.72707,-46.36582 1.02149,-9.39932 0.82824,-5.77025 0.6902,-3.40567 0.57977,-1.83404 0.44172,-0.76336 0.3313,-0.21615 0.27608,0.0492 0.30368,0.2897 0.38652,0.71478 0.49694,1.46141 0.60737,2.55139 0.77303,4.31203 0.99388,6.92331 1.60126,12.99434 2.04299,16.20542 1.07671,6.8249 0.82824,3.96273 0.69019,2.30358 0.55216,1.14172 0.44173,0.45201 0.3589,0.0639 0.3313,-0.18058 0.38651,-0.4962 0.46933,-1.00317 0.57977,-1.81345 0.71781,-3.04395 0.91106,-4.933 1.26996,-8.26833 3.20252,-21.4007 0.99389,-4.90475 0.77302,-2.79231 0.63498,-1.53303 0.49694,-0.69236 0.41412,-0.22865 0.35891,0.0589 0.3589,0.29557 0.44173,0.68219 0.52455,1.2495 0.66259,2.21432 0.80063,3.51189 1.0491,5.69244 1.76691,11.06248 1.79451,10.75687 1.0491,5.00555 0.80063,2.83933 0.66259,1.59419 0.52455,0.73728 0.41412,0.24256 0.35891,-0.0351 0.3589,-0.26261 0.44173,-0.63156 0.52455,-1.17912 0.63498,-2.016 0.77302,-3.2373 0.99389,-5.1956 1.49083,-9.14789 2.29145,-13.95704 1.04911,-5.01106 0.80063,-2.82545 0.63498,-1.51183 0.49694,-0.694 0.41412,-0.2364 0.3589,0.0512 0.35891,0.28999 0.44172,0.6825 0.52455,1.26684 0.63499,2.16528 0.77302,3.48692 0.96628,5.45729 1.38039,9.21016 2.67797,18.02095 0.99389,5.14391 0.77302,2.95981 0.63498,1.62656 0.49694,0.72107 0.38652,0.21062 0.33129,-0.0686 0.3589,-0.33586 0.41412,-0.72491 0.52455,-1.42914 0.63499,-2.46475 0.77302,-4.00203 0.93867,-6.12091 1.29757,-10.06843 3.03687,-24.05849 0.93867,-5.50731 0.74542,-3.15091 0.57976,-1.56896 0.44173,-0.62852 0.33129,-0.13302 0.27608,0.11712 0.3313,0.4191 0.41412,0.95627 0.49694,1.78406 0.60738,3.11271 0.7178,4.95103 0.85585,7.55804 1.07671,11.65469 1.54604,19.47779 2.59515,32.70628 1.0491,10.43999 0.82824,6.18971 0.63498,3.25999 0.49694,1.55091 0.3589,0.53986 0.27608,0.0723 0.24847,-0.19536 0.30369,-0.57892 0.38651,-1.28425 0.46934,-2.38915 0.57976,-4.20301 0.6902,-6.76729 0.82824,-10.51573 0.99389,-15.70206 1.24235,-23.40142 2.0706,-43.9849 2.07059,-42.336011 1.18714,-19.992644 0.93867,-12.346901 0.77303,-7.425415 0.60737,-3.928492 0.49694,-1.90598 0.35891,-0.628094 0.24847,-0.06412 0.22086,0.19795 0.27608,0.584041 0.3589,1.314501 0.46934,2.651458 0.57976,4.690331 0.6902,7.512404 0.85585,11.954703 1.0491,18.002228 1.43561,28.827771 3.8099,78.44786 1.13192,18.00081 0.93867,11.6095 0.77302,7.01017 0.63499,3.94112 0.52455,1.99997 0.38651,0.75001 0.27608,0.16498 0.24847,-0.11127 0.27608,-0.40665 0.3589,-0.96229 0.46934,-1.96813 0.57976,-3.47069 0.71781,-5.72714 0.91106,-9.17215 1.26997,-15.29098 3.72707,-46.35198 1.02149,-9.38672 0.82824,-5.75842 0.6902,-3.39517 0.57976,-1.82504 0.44173,-0.75653 0.3313,-0.21111 0.27607,0.0533 0.30369,0.29413 0.38651,0.72022 0.49694,1.46797 0.60738,2.55866 0.77302,4.31983 0.99389,6.93057 1.60126,12.99876 2.04298,16.19823 1.07671,6.81626 0.82824,3.95446 0.6902,2.29597 0.55216,1.13537 0.44173,0.44685 0.33129,0.0647 0.3313,-0.16535 0.38651,-0.47882 0.46933,-0.98289 0.57977,-1.79009 0.7178,-3.01838 0.91107,-4.90721 1.24235,-8.05658 3.28535,-21.92826 0.96627,-4.74376 0.77303,-2.78537 0.63498,-1.52682 0.49694,-0.68733 0.41412,-0.22441 0.3589,0.0625 0.35891,0.29919 0.44172,0.68652 0.52455,1.25438 0.6626,2.21997 0.80062,3.51768 1.04911,5.6979 1.79451,11.24148 1.76691,10.57493 1.0491,4.99874 0.80063,2.83282 0.66259,1.58818 0.52455,0.73228 0.41412,0.23853 0.3589,-0.0386 0.35891,-0.26609 0.44172,-0.63577 0.52455,-1.18392 0.63499,-2.02138 0.77302,-3.24301 0.99388,-5.20118 1.49083,-9.15173 2.29146,-13.95133 1.02149,-4.89018 0.80063,-2.85204 0.63499,-1.53549 0.52455,-0.74023 0.41412,-0.2322 0.3589,0.0548 0.3589,0.29366 0.44173,0.68696 0.52455,1.27196 0.63498,2.1711 0.77303,3.49316 0.96627,5.46342 1.40801,9.40865 2.62275,17.65969 1.02149,5.29723 0.77303,2.95258 0.63498,1.61988 0.49694,0.71553 0.38651,0.20618 0.3313,-0.0724 0.3589,-0.34004 0.41412,-0.72971 0.52455,-1.43507 0.63498,-2.47155 0.77302,-4.00944 0.93867,-6.12814 1.32519,-10.30143 2.98165,-23.63896 0.93867,-5.54321 0.74541,-3.18641 0.57977,-1.60003 0.44173,-0.6538 0.33129,-0.1527 0.27608,0.10038 0.3313,0.39872 0.38651,0.85352 0.49694,1.71474 0.57977,2.87009 0.6902,4.59691 0.82823,7.08535 1.0215,10.75614 1.43561,17.75069 3.03687,38.18327 1.0215,9.85463 0.80063,5.73787 0.63498,3.06684 0.46933,1.33512 0.35891,0.45542 0.24847,0.0188 0.24847,-0.22855 0.30369,-0.62 0.38651,-1.33704 0.49694,-2.62607 0.57977,-4.34683 0.6902,-6.93241 0.82823,-10.69895 0.99389,-15.89042 1.26996,-24.13191 2.26385,-48.26188 1.87734,-37.901295 1.15954,-19.263731 0.91106,-11.818251 0.74541,-7.097469 0.60738,-3.912764 0.46933,-1.819006 0.35891,-0.66695 0.24847,-0.09112 0.22086,0.173968 0.27608,0.55418 0.3589,1.27606 0.46934,2.602233 0.57976,4.631936 0.6902,7.447681 0.85585,11.883916 1.0491,17.933294 1.43561,28.771258 3.86511,79.49672 1.13193,17.88361 0.91106,11.20378 0.77302,6.9931 0.63498,3.92669 0.52455,1.98801 0.38652,0.7413 0.27607,0.15885 0.24848,-0.11668 0.27607,-0.41254 0.35891,-0.96972 0.46933,-1.97735 0.57977,-3.48117 0.7178,-5.7385 0.91107,-9.18358 1.26996,-15.30065 3.69947,-46.0535 1.02149,-9.43704 0.82824,-5.80569 0.69019,-3.43716 0.57977,-1.86103 0.44173,-0.78385 0.3589,-0.23695 0.27608,0.0575 0.30369,0.29857 0.38651,0.72564 0.49694,1.47454 0.60738,2.56592 0.77302,4.32761 0.99388,6.9378 1.60126,13.00316 2.04299,16.191 1.07671,6.8076 0.82824,3.94619 0.6902,2.28836 0.55215,1.12901 0.44173,0.44169 0.3313,0.0609 0.33129,-0.16915 0.38651,-0.48317 0.46934,-0.98797 0.57976,-1.79594 0.71781,-3.02478 0.91106,-4.91368 1.24236,-8.06183 3.28534,-21.92078 0.96628,-4.73645 0.77302,-2.77841 0.63498,-1.52061 0.49695,-0.68229 0.41412,-0.22017 0.3589,0.0662 0.3589,0.3028 0.44173,0.69085 0.52455,1.25927 0.66259,2.2256 0.80063,3.52347 1.0491,5.70334 1.79452,11.2442 1.7669,10.56922 1.04911,4.99191 0.80063,2.8263 0.63498,1.53081 0.52455,0.75228 0.41412,0.25466 0.3589,-0.0246 0.35891,-0.25215 0.44172,-0.61893 0.52455,-1.1647 0.63498,-1.99981 0.77303,-3.22014 0.99388,-5.17879 1.49083,-9.13626 2.31907,-14.12218 1.02149,-4.88348 0.80063,-2.8454 0.63498,-1.52958 0.52455,-0.73506 0.41412,-0.228 0.35891,0.0585 0.3589,0.29733 0.44173,0.69142 0.52455,1.27708 0.63498,2.1769 0.77302,3.49941 0.96628,5.46953 1.408,9.41332 2.62276,17.65312 1.02149,5.28961 0.77302,2.94533 0.63498,1.61321 0.49695,0.70998 0.38651,0.20173 0.33129,-0.0763 0.35891,-0.34423 0.41411,-0.73451 0.52456,-1.44099 0.63498,-2.47834 0.77302,-4.01684 0.96628,-6.33342 1.32518,-10.33681 2.89883,-23.03252 0.96628,-5.76459 0.74541,-3.22173 0.57977,-1.63101 0.44173,-0.67902 0.33129,-0.17233 0.27608,0.0837 0.30369,0.33515 0.38651,0.79956 0.46933,1.53576 0.57977,2.74634 0.6902,4.45653 0.82824,6.93326 1.02149,10.60413 1.3804,16.91026 3.28534,41.144 0.99389,9.34175 0.77302,5.36396 0.60737,2.83479 0.46934,1.27705 0.33129,0.39558 0.24847,0.0134 0.24848,-0.23409 0.30368,-0.62685 0.38651,-1.34584 0.49695,-2.63741 0.57976,-4.35989 0.6902,-6.94738 0.82824,-10.71553 0.99388,-15.90742 1.26997,-24.1475 2.26385,-48.2682 1.87734,-37.884004 1.15953,-19.243757 0.91106,-11.798535 0.74542,-7.079327 0.60737,-3.89703 0.46934,-1.806467 0.3589,-0.657238 0.19326,-0.09187 v 0"
         style="fill:none;stroke:#ff0000;stroke-width:1.5;stroke-linecap:square;stroke-linejoin:round"
         id="path290"
         inkscape:connector-curvature="0" />
    </g>
    <g
       id="patch_3"
       style="stroke-linecap:butt;stroke-linejoin:round"
       transform="matrix(0.35277777,0,0,0.35277777,-17.668247,-5.4794004)">
      <path
         d="M 108,252 V 34.56"
         style="fill:none;stroke:#000000;stroke-width:0.8;stroke-linecap:square;stroke-linejoin:miter"
         id="path293"
         inkscape:connector-curvature="0" />
    </g>
    <g
       id="patch_4"
       style="stroke-linecap:butt;stroke-linejoin:round"
       transform="matrix(0.35277777,0,0,0.35277777,-17.668247,-5.4794004)">
      <path
         d="M 777.6,252 V 34.56"
         style="fill:none;stroke:#000000;stroke-width:0.8;stroke-linecap:square;stroke-linejoin:miter"
         id="path296"
         inkscape:connector-curvature="0" />
    </g>
    <g
       id="patch_5"
       style="stroke-linecap:butt;stroke-linejoin:round"
       transform="matrix(0.35277777,0,0,0.35277777,-17.668247,-5.4794004)">
      <path
         d="M 108,252 H 777.6"
         style="fill:none;stroke:#000000;stroke-width:0.8;stroke-linecap:square;stroke-linejoin:miter"
         id="path299"
         inkscape:connector-curvature="0" />
    </g>
    <g
       id="patch_6"
       style="stroke-linecap:butt;stroke-linejoin:round"
       transform="matrix(0.35277777,0,0,0.35277777,-17.668247,-5.4794004)">
      <path
         d="M 108,34.56 H 777.6"
         style="fill:none;stroke:#000000;stroke-width:0.8;stroke-linecap:square;stroke-linejoin:miter"
         id="path302"
         inkscape:connector-curvature="0" />
    </g>
  </g>
</svg>
