<?xml version="1.0" encoding="UTF-8" standalone="no"?>
<svg
   width="400pt"
   height="270pt"
   viewBox="0 0 400 270"
   version="1.1"
   id="svg485"
   sodipodi:docname="shift.svg"
   inkscape:version="1.2 (dc2aedaf03, 2022-05-15)"
   xmlns:inkscape="http://www.inkscape.org/namespaces/inkscape"
   xmlns:sodipodi="http://sodipodi.sourceforge.net/DTD/sodipodi-0.dtd"
   xmlns:xlink="http://www.w3.org/1999/xlink"
   xmlns="http://www.w3.org/2000/svg"
   xmlns:svg="http://www.w3.org/2000/svg"
   xmlns:rdf="http://www.w3.org/1999/02/22-rdf-syntax-ns#"
   xmlns:cc="http://creativecommons.org/ns#"
   xmlns:dc="http://purl.org/dc/elements/1.1/">
  <sodipodi:namedview
     id="namedview487"
     pagecolor="#ffffff"
     bordercolor="#000000"
     borderopacity="0.25"
     inkscape:showpageshadow="2"
     inkscape:pageopacity="0.0"
     inkscape:pagecheckerboard="0"
     inkscape:deskcolor="#d1d1d1"
     inkscape:document-units="pt"
     showgrid="false"
     inkscape:zoom="0.61458333"
     inkscape:cx="288"
     inkscape:cy="192"
     inkscape:window-width="2560"
     inkscape:window-height="1531"
     inkscape:window-x="0"
     inkscape:window-y="32"
     inkscape:window-maximized="1"
     inkscape:current-layer="svg485" />
  <metadata
     id="metadata2">
    <rdf:RDF>
      <cc:Work>
        <dc:type
           rdf:resource="http://purl.org/dc/dcmitype/StillImage" />
        <dc:date>2022-06-20T11:13:35.220630</dc:date>
        <dc:format>image/svg+xml</dc:format>
        <dc:creator>
          <cc:Agent>
            <dc:title>Matplotlib v3.5.2, https://matplotlib.org/</dc:title>
          </cc:Agent>
        </dc:creator>
      </cc:Work>
    </rdf:RDF>
  </metadata>
  <defs
     id="defs6">
    <style
       type="text/css"
       id="style4">*{stroke-linejoin: round; stroke-linecap: butt}</style>
  </defs>
  <g
     id="figure_1"
     transform="translate(0,-22.5)">
    <g
       id="patch_1">
      <path
         d="M 0,288 H 432 V 0 H 0 Z"
         style="fill:none"
         id="path8" />
    </g>
    <g
       id="axes_1">
      <g
         id="patch_2">
        <path
           d="M 54,252 H 388.8 V 34.56 H 54 Z"
           style="fill:#ffffff"
           id="path11" />
      </g>
      <g
         id="matplotlib.axis_1">
        <g
           id="xtick_1">
          <g
             id="line2d_1">
            <defs
               id="defs15">
              <path
                 id="m09844ff85f"
                 d="M 0,0 V 3.5"
                 style="stroke:#000000;stroke-width:0.8" />
            </defs>
            <g
               id="g19">
              <use
                 xlink:href="#m09844ff85f"
                 x="69.218185"
                 y="252"
                 style="stroke:#000000;stroke-width:0.8"
                 id="use17" />
            </g>
          </g>
          <g
             id="text_1">
            <!-- 0.0 -->
            <g
               transform="matrix(0.12,0,0,-0.12,61.718182,267.3325)"
               id="g32">
              <defs
                 id="defs24">
                <path
                   id="TimesNewRomanPSMT-30"
                   d="m 231,2094 q 0,725 219,1248 219,524 581,780 282,203 582,203 487,0 875,-497 484,-615 484,-1669 0,-737 -213,-1253 Q 2547,391 2217,158 1888,-75 1581,-75 975,-75 572,641 231,1244 231,2094 Z m 613,-78 q 0,-875 215,-1428 179,-466 532,-466 168,0 349,151 182,152 276,508 143,538 143,1516 0,725 -150,1209 -112,360 -290,510 -128,103 -310,103 -212,0 -378,-191 -225,-259 -306,-816 -81,-556 -81,-1096 z"
                   transform="scale(0.015625)" />
                <path
                   id="TimesNewRomanPSMT-2e"
                   d="M 800,606 Q 947,606 1047,504 1147,403 1147,259 1147,116 1045,14 944,-88 800,-88 656,-88 554,14 453,116 453,259 q 0,147 101,247 102,100 246,100 z"
                   transform="scale(0.015625)" />
              </defs>
              <use
                 xlink:href="#TimesNewRomanPSMT-30"
                 id="use26" />
              <use
                 xlink:href="#TimesNewRomanPSMT-2e"
                 x="50"
                 id="use28" />
              <use
                 xlink:href="#TimesNewRomanPSMT-30"
                 x="75"
                 id="use30" />
            </g>
          </g>
        </g>
        <g
           id="xtick_2">
          <g
             id="line2d_2">
            <g
               id="g38">
              <use
                 xlink:href="#m09844ff85f"
                 x="130.09091"
                 y="252"
                 style="stroke:#000000;stroke-width:0.8"
                 id="use36" />
            </g>
          </g>
          <g
             id="text_2">
            <!-- 0.5 -->
            <g
               transform="matrix(0.12,0,0,-0.12,122.59091,267.3325)"
               id="g50">
              <defs
                 id="defs42">
                <path
                   id="TimesNewRomanPSMT-35"
                   d="M 2778,4238 2534,3706 H 1259 L 981,3138 q 828,-122 1313,-616 415,-425 415,-1000 0,-334 -136,-619 Q 2438,619 2231,419 2025,219 1772,97 1413,-75 1034,-75 653,-75 479,54 306,184 306,341 q 0,87 72,154 72,68 181,68 82,0 143,-25 61,-25 207,-129 235,-162 475,-162 366,0 642,276 277,277 277,674 0,384 -247,717 -247,333 -681,514 -341,141 -928,163 l 812,1647 z"
                   transform="scale(0.015625)" />
              </defs>
              <use
                 xlink:href="#TimesNewRomanPSMT-30"
                 id="use44" />
              <use
                 xlink:href="#TimesNewRomanPSMT-2e"
                 x="50"
                 id="use46" />
              <use
                 xlink:href="#TimesNewRomanPSMT-35"
                 x="75"
                 id="use48" />
            </g>
          </g>
        </g>
        <g
           id="xtick_3">
          <g
             id="line2d_3">
            <g
               id="g56">
              <use
                 xlink:href="#m09844ff85f"
                 x="190.96364"
                 y="252"
                 style="stroke:#000000;stroke-width:0.8"
                 id="use54" />
            </g>
          </g>
          <g
             id="text_3">
            <!-- 1.0 -->
            <g
               transform="matrix(0.12,0,0,-0.12,183.46364,267.3325)"
               id="g68">
              <defs
                 id="defs60">
                <path
                   id="TimesNewRomanPSMT-31"
                   d="m 750,3822 1031,503 h 103 V 747 q 0,-356 30,-444 30,-87 123,-134 94,-47 382,-53 V 0 H 825 v 116 q 300,6 387,51 88,46 122,122 35,77 35,458 v 2287 q 0,463 -31,594 -22,100 -80,147 -58,47 -139,47 -116,0 -322,-97 z"
                   transform="scale(0.015625)" />
              </defs>
              <use
                 xlink:href="#TimesNewRomanPSMT-31"
                 id="use62" />
              <use
                 xlink:href="#TimesNewRomanPSMT-2e"
                 x="50"
                 id="use64" />
              <use
                 xlink:href="#TimesNewRomanPSMT-30"
                 x="75"
                 id="use66" />
            </g>
          </g>
        </g>
        <g
           id="xtick_4">
          <g
             id="line2d_4">
            <g
               id="g74">
              <use
                 xlink:href="#m09844ff85f"
                 x="251.83636"
                 y="252"
                 style="stroke:#000000;stroke-width:0.8"
                 id="use72" />
            </g>
          </g>
          <g
             id="text_4">
            <!-- 1.5 -->
            <g
               transform="matrix(0.12,0,0,-0.12,244.33636,267.3325)"
               id="g83">
              <use
                 xlink:href="#TimesNewRomanPSMT-31"
                 id="use77" />
              <use
                 xlink:href="#TimesNewRomanPSMT-2e"
                 x="50"
                 id="use79" />
              <use
                 xlink:href="#TimesNewRomanPSMT-35"
                 x="75"
                 id="use81" />
            </g>
          </g>
        </g>
        <g
           id="xtick_5">
          <g
             id="line2d_5">
            <g
               id="g89">
              <use
                 xlink:href="#m09844ff85f"
                 x="312.70908"
                 y="252"
                 style="stroke:#000000;stroke-width:0.8"
                 id="use87" />
            </g>
          </g>
          <g
             id="text_5">
            <!-- 2.0 -->
            <g
               transform="matrix(0.12,0,0,-0.12,305.20909,267.3325)"
               id="g101">
              <defs
                 id="defs93">
                <path
                   id="TimesNewRomanPSMT-32"
                   d="M 2934,816 2638,0 H 138 v 116 q 1103,1006 1553,1643 450,638 450,1166 0,403 -247,662 -247,260 -591,260 -312,0 -561,-183 Q 494,3481 375,3128 H 259 q 79,578 402,887 323,310 808,310 515,0 860,-331 346,-331 346,-781 0,-322 -150,-644 Q 2294,2063 1775,1497 997,647 803,472 h 1106 q 338,0 474,25 136,25 245,101 110,77 191,218 z"
                   transform="scale(0.015625)" />
              </defs>
              <use
                 xlink:href="#TimesNewRomanPSMT-32"
                 id="use95" />
              <use
                 xlink:href="#TimesNewRomanPSMT-2e"
                 x="50"
                 id="use97" />
              <use
                 xlink:href="#TimesNewRomanPSMT-30"
                 x="75"
                 id="use99" />
            </g>
          </g>
        </g>
        <g
           id="xtick_6">
          <g
             id="line2d_6">
            <g
               id="g107">
              <use
                 xlink:href="#m09844ff85f"
                 x="373.58182"
                 y="252"
                 style="stroke:#000000;stroke-width:0.8"
                 id="use105" />
            </g>
          </g>
          <g
             id="text_6">
            <!-- 2.5 -->
            <g
               transform="matrix(0.12,0,0,-0.12,366.08182,267.3325)"
               id="g116">
              <use
                 xlink:href="#TimesNewRomanPSMT-32"
                 id="use110" />
              <use
                 xlink:href="#TimesNewRomanPSMT-2e"
                 x="50"
                 id="use112" />
              <use
                 xlink:href="#TimesNewRomanPSMT-35"
                 x="75"
                 id="use114" />
            </g>
          </g>
        </g>
        <g
           id="text_7">
          <!-- Time (Seconds) - Going Backwards Since $F_3$ -->
          <g
             transform="matrix(0.12,0,0,-0.12,112.68,282.29937)"
             id="g227">
            <defs
               id="defs143">
              <path
                 id="TimesNewRomanPSMT-54"
                 d="m 3703,4238 47,-994 h -119 q -34,262 -93,375 -97,181 -258,267 -161,86 -424,86 H 2259 V 734 q 0,-390 85,-487 119,-131 365,-131 h 147 V 0 H 1059 v 116 h 150 q 269,0 382,162 68,100 68,456 V 3972 H 1150 Q 853,3972 728,3928 566,3869 450,3700 334,3531 313,3244 H 194 l 50,994 z"
                 transform="scale(0.015625)" />
              <path
                 id="TimesNewRomanPSMT-69"
                 d="m 928,4444 q 131,0 223,-93 93,-92 93,-223 0,-131 -93,-225 -92,-94 -223,-94 -131,0 -225,94 -94,94 -94,225 0,131 92,223 93,93 227,93 z M 1188,2947 V 647 q 0,-269 39,-358 39,-89 115,-133 77,-43 280,-43 V 0 H 231 v 113 q 210,0 281,40 72,41 114,134 43,94 43,360 v 1103 q 0,466 -28,603 -22,100 -69,139 -47,39 -128,39 -88,0 -213,-47 l -43,113 862,350 z"
                 transform="scale(0.015625)" />
              <path
                 id="TimesNewRomanPSMT-6d"
                 d="m 1050,2338 q 313,312 369,359 140,119 302,184 163,66 323,66 269,0 462,-157 194,-156 260,-452 322,375 543,492 222,117 457,117 228,0 404,-117 177,-117 280,-383 69,-181 69,-569 V 647 q 0,-269 40,-369 32,-69 116,-117 84,-48 275,-48 V 0 H 3538 v 113 h 59 q 184,0 287,71 72,50 104,160 12,53 12,303 v 1231 q 0,350 -84,494 -122,200 -391,200 -166,0 -333,-83 -167,-83 -404,-308 l -7,-34 7,-134 V 647 q 0,-294 32,-366 33,-72 123,-120 91,-48 310,-48 V 0 H 1806 v 113 q 238,0 327,56 89,56 123,169 16,53 16,309 v 1231 q 0,350 -103,503 -138,200 -385,200 -168,0 -334,-90 -259,-138 -400,-310 V 647 q 0,-281 39,-366 39,-84 115,-126 77,-42 312,-42 V 0 H 100 v 113 q 197,0 275,42 78,42 118,134 41,92 41,358 v 1094 q 0,472 -28,609 -22,103 -69,142 -46,39 -128,39 -87,0 -209,-47 l -47,113 863,350 h 134 z"
                 transform="scale(0.015625)" />
              <path
                 id="TimesNewRomanPSMT-65"
                 d="m 681,1784 q -3,-637 310,-1000 312,-362 734,-362 281,0 489,154 208,155 349,530 l 96,-62 Q 2594,616 2278,264 1963,-88 1488,-88 972,-88 605,314 238,716 238,1394 q 0,734 376,1145 377,411 945,411 482,0 791,-317 309,-317 309,-849 z m 0,182 h 1325 q -15,275 -65,387 -78,175 -233,275 -155,100 -324,100 -259,0 -464,-202 -204,-201 -239,-560 z"
                 transform="scale(0.015625)" />
              <path
                 id="TimesNewRomanPSMT-20"
                 transform="scale(0.015625)"
                 d="" />
              <path
                 id="TimesNewRomanPSMT-28"
                 d="m 1988,-1253 v -116 q -472,238 -788,556 -450,454 -694,1069 -243,616 -243,1278 0,969 478,1767 478,799 1247,1143 V 4313 Q 1603,4100 1356,3731 1109,3363 987,2797 866,2231 866,1616 866,947 969,400 q 81,-431 196,-692 116,-261 311,-501 196,-241 512,-460 z"
                 transform="scale(0.015625)" />
              <path
                 id="TimesNewRomanPSMT-53"
                 d="M 2934,4334 V 2869 h -115 q -56,422 -202,672 -145,250 -414,396 -269,147 -556,147 -325,0 -538,-198 -212,-198 -212,-452 0,-193 134,-353 194,-234 922,-625 594,-318 811,-489 217,-170 334,-402 118,-231 118,-484 0,-481 -374,-830 -373,-348 -961,-348 -184,0 -347,28 -96,16 -401,114 Q 828,144 747,144 669,144 623,97 578,50 556,-97 H 441 v 1453 h 115 q 82,-456 219,-683 138,-226 420,-376 283,-150 621,-150 390,0 616,206 227,206 227,488 0,156 -86,315 -85,160 -267,297 -122,94 -666,398 -543,305 -773,486 -229,182 -348,400 -119,219 -119,482 0,456 350,785 350,330 891,330 337,0 715,-165 175,-78 247,-78 81,0 133,48 52,49 83,195 z"
                 transform="scale(0.015625)" />
              <path
                 id="TimesNewRomanPSMT-63"
                 d="M 2631,1088 Q 2516,522 2178,217 1841,-88 1431,-88 944,-88 581,321 219,731 219,1428 q 0,675 401,1097 402,422 964,422 422,0 694,-224 272,-223 272,-464 0,-118 -77,-192 -76,-73 -214,-73 -184,0 -278,119 -53,65 -70,249 -17,185 -127,282 -109,94 -303,94 -312,0 -503,-232 -253,-306 -253,-809 0,-513 251,-905 252,-392 680,-392 307,0 550,209 172,144 335,522 z"
                 transform="scale(0.015625)" />
              <path
                 id="TimesNewRomanPSMT-6f"
                 d="m 1600,2947 q 650,0 1044,-494 334,-422 334,-969 0,-384 -185,-778 Q 2609,313 2286,112 1963,-88 1566,-88 919,-88 538,428 216,863 216,1403 q 0,394 195,783 195,389 514,575 319,186 675,186 z m -97,-203 q -165,0 -333,-99 -167,-98 -270,-345 -103,-247 -103,-634 0,-625 248,-1079 249,-453 655,-453 303,0 500,250 197,250 197,860 0,762 -328,1200 -222,300 -566,300 z"
                 transform="scale(0.015625)" />
              <path
                 id="TimesNewRomanPSMT-6e"
                 d="m 1034,2341 q 504,606 960,606 234,0 403,-117 169,-117 269,-386 68,-188 68,-575 V 647 q 0,-272 44,-369 35,-78 111,-122 77,-43 283,-43 V 0 H 1756 v 113 h 60 q 200,0 279,60 80,61 111,180 13,47 13,294 v 1172 q 0,390 -102,567 -101,177 -342,177 -372,0 -741,-407 V 647 q 0,-291 35,-359 44,-91 120,-133 77,-42 311,-42 V 0 H 84 v 113 h 63 q 219,0 295,110 77,111 77,424 v 1062 q 0,516 -24,628 -23,113 -72,153 -48,41 -129,41 -88,0 -210,-47 l -46,113 862,350 h 134 z"
                 transform="scale(0.015625)" />
              <path
                 id="TimesNewRomanPSMT-64"
                 d="M 2222,322 Q 2013,103 1813,7 1613,-88 1381,-88 913,-88 563,304 213,697 213,1313 q 0,615 387,1126 388,511 997,511 378,0 625,-241 v 529 q 0,490 -24,602 -23,113 -73,153 -50,41 -125,41 -81,0 -216,-50 l -40,110 853,350 h 141 V 1134 q 0,-503 23,-614 23,-111 75,-155 52,-43 120,-43 85,0 225,53 l 35,-109 -850,-354 h -144 z m 0,219 v 1475 q -19,212 -113,387 -93,175 -248,264 -155,89 -302,89 -275,0 -490,-247 -285,-325 -285,-950 0,-631 275,-967 275,-336 613,-336 284,0 550,285 z"
                 transform="scale(0.015625)" />
              <path
                 id="TimesNewRomanPSMT-73"
                 d="m 2050,2947 v -975 h -103 q -119,459 -305,625 -186,166 -473,166 -219,0 -354,-116 -134,-116 -134,-256 0,-175 100,-300 97,-128 394,-272 l 456,-222 Q 2266,1288 2266,781 2266,391 1970,151 1675,-88 1309,-88 1047,-88 709,6 606,38 541,38 469,38 428,-44 H 325 V 978 H 428 Q 516,541 762,319 1009,97 1316,97 q 215,0 351,126 136,127 136,305 0,216 -152,363 -151,147 -604,372 -453,225 -594,406 -140,178 -140,450 0,353 242,590 242,238 626,238 169,0 410,-72 159,-47 212,-47 50,0 78,22 28,22 66,97 z"
                 transform="scale(0.015625)" />
              <path
                 id="TimesNewRomanPSMT-29"
                 d="m 144,4313 v 131 q 475,-235 790,-553 447,-457 691,-1071 244,-614 244,-1279 0,-969 -477,-1767 -476,-799 -1248,-1143 v 116 q 384,215 632,583 249,367 369,934 121,567 121,1183 0,666 -103,1216 -79,431 -196,690 -117,260 -311,500 -193,241 -512,460 z"
                 transform="scale(0.015625)" />
              <path
                 id="TimesNewRomanPSMT-2d"
                 d="M 259,1672 H 1875 V 1200 H 259 Z"
                 transform="scale(0.015625)" />
              <path
                 id="TimesNewRomanPSMT-47"
                 d="m 3928,4334 110,-1337 h -110 q -165,500 -428,753 -378,366 -972,366 -809,0 -1231,-641 -353,-541 -353,-1287 0,-607 234,-1107 235,-500 614,-733 380,-232 780,-232 234,0 453,59 219,59 422,175 v 1225 q 0,319 -49,417 -48,99 -150,150 -101,52 -357,52 v 119 h 1640 v -119 h -78 q -244,0 -334,-163 -63,-115 -63,-456 V 278 Q 3697,84 3347,-6 2997,-97 2569,-97 1341,-97 703,691 225,1281 225,2053 q 0,560 269,1072 319,609 875,938 465,271 1100,271 231,0 420,-38 189,-37 536,-165 175,-65 234,-65 60,0 102,54 42,55 52,214 z"
                 transform="scale(0.015625)" />
              <path
                 id="TimesNewRomanPSMT-67"
                 d="m 966,1044 q -263,128 -404,357 -140,230 -140,508 0,425 320,731 321,307 821,307 409,0 709,-200 h 606 q 135,0 156,-8 22,-8 32,-26 18,-29 18,-100 0,-82 -15,-113 -10,-16 -33,-25 -23,-9 -158,-9 h -372 q 175,-225 175,-575 0,-400 -306,-685 -306,-284 -822,-284 -212,0 -434,62 Q 981,866 932,777 884,688 884,625 q 0,-53 52,-103 52,-50 202,-72 87,-12 437,-22 644,-15 834,-44 291,-40 464,-215 174,-175 174,-432 0,-353 -331,-662 -488,-456 -1272,-456 -603,0 -1019,272 -234,156 -234,325 0,75 34,150 53,115 219,321 22,29 319,338 -163,97 -230,173 -67,77 -67,174 0,109 89,256 89,147 411,416 z m 543,1753 q -231,0 -387,-185 -156,-184 -156,-565 0,-494 212,-766 163,-206 413,-206 237,0 390,178 153,178 153,560 0,496 -215,778 -160,206 -410,206 z M 934,0 q -146,-159 -221,-296 -75,-138 -75,-254 0,-150 181,-263 312,-193 903,-193 562,0 829,199 268,198 268,423 0,162 -160,231 -162,69 -643,81 -703,19 -1082,72 z"
                 transform="scale(0.015625)" />
              <path
                 id="TimesNewRomanPSMT-42"
                 d="m 2956,2163 q 441,-94 660,-300 303,-288 303,-704 0,-315 -200,-604 Q 3519,266 3170,133 2822,0 2106,0 H 106 v 116 h 160 q 265,0 381,168 72,110 72,466 v 2738 q 0,393 -91,496 -122,138 -362,138 H 106 v 116 h 1832 q 512,0 821,-75 469,-113 716,-399 247,-286 247,-658 0,-318 -194,-570 -194,-252 -572,-373 z m -1637,168 q 115,-22 263,-33 149,-10 327,-10 457,0 686,98 230,98 352,301 122,204 122,444 0,372 -303,634 -303,263 -885,263 -312,0 -562,-69 z m 0,-2025 q 362,-84 715,-84 566,0 863,254 297,255 297,630 0,247 -135,475 -134,228 -437,359 -303,132 -750,132 -194,0 -332,-7 -137,-6 -221,-21 z"
                 transform="scale(0.015625)" />
              <path
                 id="TimesNewRomanPSMT-61"
                 d="M 1822,413 Q 1381,72 1269,19 1100,-59 909,-59 613,-59 420,144 228,347 228,678 q 0,210 94,363 128,212 445,399 317,188 1055,457 v 112 q 0,429 -136,588 -136,159 -395,159 -197,0 -313,-106 -119,-106 -119,-244 l 7,-181 q 0,-144 -74,-222 -73,-78 -192,-78 -116,0 -189,81 -73,82 -73,222 0,269 275,494 275,225 771,225 382,0 625,-128 185,-97 272,-303 57,-135 57,-550 V 994 q 0,-410 15,-502 16,-92 52,-123 36,-31 83,-31 50,0 87,21 66,41 253,229 V 413 q -350,-469 -669,-469 -153,0 -244,106 -90,106 -93,363 z m 0,203 V 1706 Q 1350,1519 1213,1441 966,1303 859,1153 753,1003 753,825 q 0,-225 134,-374 135,-148 310,-148 237,0 625,313 z"
                 transform="scale(0.015625)" />
              <path
                 id="TimesNewRomanPSMT-6b"
                 d="M 1047,4444 V 1594 l 728,665 q 231,213 269,269 25,38 25,75 0,63 -52,108 -51,45 -170,52 v 100 h 1244 v -100 q -257,-7 -427,-79 -170,-71 -373,-256 l -735,-678 735,-928 q 306,-384 412,-488 150,-146 263,-190 78,-31 272,-31 V 0 H 1847 v 113 q 119,3 161,35 42,33 42,93 0,72 -125,231 L 1047,1594 V 644 q 0,-278 39,-366 39,-87 111,-125 72,-37 312,-40 V 0 H 53 v 113 q 219,0 328,53 66,34 100,106 47,103 47,356 v 2606 q 0,497 -22,608 -22,111 -72,153 -50,43 -131,43 -65,0 -197,-54 l -53,110 850,350 z"
                 transform="scale(0.015625)" />
              <path
                 id="TimesNewRomanPSMT-77"
                 d="m 41,2863 h 1200 v -116 q -166,-13 -218,-60 -51,-46 -51,-134 0,-97 53,-234 l 613,-1647 615,1341 -162,421 q -75,188 -197,260 -69,44 -256,53 v 116 h 1362 v -116 q -225,-9 -319,-81 -62,-50 -62,-160 0,-62 25,-128 l 650,-1644 603,1585 q 62,169 62,269 0,59 -61,106 -60,47 -239,53 v 116 h 904 v -116 q -272,-41 -400,-369 L 3206,-88 H 3078 L 2363,1741 1528,-88 H 1413 L 494,2319 q -91,228 -179,307 -87,80 -274,121 z"
                 transform="scale(0.015625)" />
              <path
                 id="TimesNewRomanPSMT-72"
                 d="m 1038,2947 v -644 q 359,644 737,644 172,0 284,-105 113,-104 113,-242 0,-122 -82,-207 -81,-84 -193,-84 -109,0 -245,108 -136,108 -202,108 -56,0 -122,-62 -140,-129 -290,-422 V 669 q 0,-238 59,-360 41,-84 144,-140 103,-56 297,-56 V 0 H 72 v 113 q 219,0 325,68 78,50 109,160 16,53 16,303 v 1109 q 0,500 -21,595 -20,96 -75,139 -54,44 -135,44 -97,0 -219,-47 l -31,113 865,350 z"
                 transform="scale(0.015625)" />
              <path
                 id="STIXGeneral-Italic-46"
                 d="m 4128,4179 -205,-985 -134,12 q 19,141 19,212 0,249 -90,354 -89,106 -345,151 -256,45 -839,45 -224,0 -314,-42 -89,-41 -121,-163 L 1690,2310 q 313,7 457,7 144,0 310,28 167,29 221,51 55,23 144,109 90,87 128,160 39,74 122,247 l 115,-32 -486,-1504 -109,32 q 51,262 51,390 0,180 -112,231 -112,51 -368,51 -179,0 -531,19 L 1254,736 q -89,-320 -89,-384 0,-115 108,-173 109,-57 385,-77 V 0 H 51 v 102 q 263,20 359,122 96,102 172,378 l 788,2828 q 64,231 64,391 0,134 -87,182 -86,48 -400,74 v 102 z"
                 transform="scale(0.015625)" />
              <path
                 id="STIXGeneral-Regular-33"
                 d="m 390,3264 -102,26 q 147,480 460,758 314,278 794,278 448,0 723,-243 276,-243 276,-633 0,-525 -595,-884 352,-153 531,-339 281,-313 281,-825 0,-512 -294,-896 Q 2246,211 1840,60 1434,-90 979,-90 q -717,0 -717,365 0,103 77,167 77,64 186,64 160,0 390,-167 282,-198 551,-198 352,0 592,284 240,285 240,695 0,736 -666,928 -198,64 -653,64 v 90 q 359,121 538,230 518,294 518,858 0,320 -183,486 -182,166 -508,166 -576,0 -954,-678 z"
                 transform="scale(0.015625)" />
            </defs>
            <use
               xlink:href="#TimesNewRomanPSMT-54"
               transform="translate(0,0.5625)"
               id="use145" />
            <use
               xlink:href="#TimesNewRomanPSMT-69"
               transform="translate(61.083984,0.5625)"
               id="use147" />
            <use
               xlink:href="#TimesNewRomanPSMT-6d"
               transform="translate(88.867188,0.5625)"
               id="use149" />
            <use
               xlink:href="#TimesNewRomanPSMT-65"
               transform="translate(166.65039,0.5625)"
               id="use151" />
            <use
               xlink:href="#TimesNewRomanPSMT-20"
               transform="translate(211.03516,0.5625)"
               id="use153" />
            <use
               xlink:href="#TimesNewRomanPSMT-28"
               transform="translate(236.03516,0.5625)"
               id="use155" />
            <use
               xlink:href="#TimesNewRomanPSMT-53"
               transform="translate(269.33594,0.5625)"
               id="use157" />
            <use
               xlink:href="#TimesNewRomanPSMT-65"
               transform="translate(324.95117,0.5625)"
               id="use159" />
            <use
               xlink:href="#TimesNewRomanPSMT-63"
               transform="translate(369.33594,0.5625)"
               id="use161" />
            <use
               xlink:href="#TimesNewRomanPSMT-6f"
               transform="translate(413.7207,0.5625)"
               id="use163" />
            <use
               xlink:href="#TimesNewRomanPSMT-6e"
               transform="translate(463.7207,0.5625)"
               id="use165" />
            <use
               xlink:href="#TimesNewRomanPSMT-64"
               transform="translate(513.7207,0.5625)"
               id="use167" />
            <use
               xlink:href="#TimesNewRomanPSMT-73"
               transform="translate(563.7207,0.5625)"
               id="use169" />
            <use
               xlink:href="#TimesNewRomanPSMT-29"
               transform="translate(602.63672,0.5625)"
               id="use171" />
            <use
               xlink:href="#TimesNewRomanPSMT-20"
               transform="translate(635.9375,0.5625)"
               id="use173" />
            <use
               xlink:href="#TimesNewRomanPSMT-2d"
               transform="translate(660.9375,0.5625)"
               id="use175" />
            <use
               xlink:href="#TimesNewRomanPSMT-20"
               transform="translate(694.23828,0.5625)"
               id="use177" />
            <use
               xlink:href="#TimesNewRomanPSMT-47"
               transform="translate(719.23828,0.5625)"
               id="use179" />
            <use
               xlink:href="#TimesNewRomanPSMT-6f"
               transform="translate(791.45508,0.5625)"
               id="use181" />
            <use
               xlink:href="#TimesNewRomanPSMT-69"
               transform="translate(841.45508,0.5625)"
               id="use183" />
            <use
               xlink:href="#TimesNewRomanPSMT-6e"
               transform="translate(869.23828,0.5625)"
               id="use185" />
            <use
               xlink:href="#TimesNewRomanPSMT-67"
               transform="translate(919.23828,0.5625)"
               id="use187" />
            <use
               xlink:href="#TimesNewRomanPSMT-20"
               transform="translate(969.23828,0.5625)"
               id="use189" />
            <use
               xlink:href="#TimesNewRomanPSMT-42"
               transform="translate(994.23828,0.5625)"
               id="use191" />
            <use
               xlink:href="#TimesNewRomanPSMT-61"
               transform="translate(1060.9375,0.5625)"
               id="use193" />
            <use
               xlink:href="#TimesNewRomanPSMT-63"
               transform="translate(1105.3223,0.5625)"
               id="use195" />
            <use
               xlink:href="#TimesNewRomanPSMT-6b"
               transform="translate(1149.707,0.5625)"
               id="use197" />
            <use
               xlink:href="#TimesNewRomanPSMT-77"
               transform="translate(1199.707,0.5625)"
               id="use199" />
            <use
               xlink:href="#TimesNewRomanPSMT-61"
               transform="translate(1271.9238,0.5625)"
               id="use201" />
            <use
               xlink:href="#TimesNewRomanPSMT-72"
               transform="translate(1316.3086,0.5625)"
               id="use203" />
            <use
               xlink:href="#TimesNewRomanPSMT-64"
               transform="translate(1349.6094,0.5625)"
               id="use205" />
            <use
               xlink:href="#TimesNewRomanPSMT-73"
               transform="translate(1399.6094,0.5625)"
               id="use207" />
            <use
               xlink:href="#TimesNewRomanPSMT-20"
               transform="translate(1438.5254,0.5625)"
               id="use209" />
            <use
               xlink:href="#TimesNewRomanPSMT-53"
               transform="translate(1463.5254,0.5625)"
               id="use211" />
            <use
               xlink:href="#TimesNewRomanPSMT-69"
               transform="translate(1519.1406,0.5625)"
               id="use213" />
            <use
               xlink:href="#TimesNewRomanPSMT-6e"
               transform="translate(1546.9238,0.5625)"
               id="use215" />
            <use
               xlink:href="#TimesNewRomanPSMT-63"
               transform="translate(1596.9238,0.5625)"
               id="use217" />
            <use
               xlink:href="#TimesNewRomanPSMT-65"
               transform="translate(1641.3086,0.5625)"
               id="use219" />
            <use
               xlink:href="#TimesNewRomanPSMT-20"
               transform="translate(1685.6934,0.5625)"
               id="use221" />
            <use
               xlink:href="#STIXGeneral-Italic-46"
               transform="translate(1710.6934,0.5625)"
               id="use223" />
            <use
               xlink:href="#STIXGeneral-Regular-33"
               transform="matrix(0.7,0,0,0.7,1771.7934,-12.665625)"
               id="use225" />
          </g>
        </g>
      </g>
      <g
         id="matplotlib.axis_2">
        <g
           id="ytick_1">
          <g
             id="line2d_7">
            <defs
               id="defs232">
              <path
                 id="m4cdcc738a2"
                 d="M 0,0 H -3.5"
                 style="stroke:#000000;stroke-width:0.8" />
            </defs>
            <g
               id="g236">
              <use
                 xlink:href="#m4cdcc738a2"
                 x="54"
                 y="252"
                 style="stroke:#000000;stroke-width:0.8"
                 id="use234" />
            </g>
          </g>
          <g
             id="text_8">
            <!-- 0 -->
            <g
               transform="matrix(0.12,0,0,-0.12,41,256.16625)"
               id="g241">
              <use
                 xlink:href="#TimesNewRomanPSMT-30"
                 id="use239" />
            </g>
          </g>
        </g>
        <g
           id="ytick_2">
          <g
             id="line2d_8">
            <g
               id="g247">
              <use
                 xlink:href="#m4cdcc738a2"
                 x="54"
                 y="220.93715"
                 style="stroke:#000000;stroke-width:0.8"
                 id="use245" />
            </g>
          </g>
          <g
             id="text_9">
            <!-- 1 -->
            <g
               transform="matrix(0.12,0,0,-0.12,41,225.10339)"
               id="g252">
              <use
                 xlink:href="#TimesNewRomanPSMT-31"
                 id="use250" />
            </g>
          </g>
        </g>
        <g
           id="ytick_3">
          <g
             id="line2d_9">
            <g
               id="g258">
              <use
                 xlink:href="#m4cdcc738a2"
                 x="54"
                 y="189.87428"
                 style="stroke:#000000;stroke-width:0.8"
                 id="use256" />
            </g>
          </g>
          <g
             id="text_10">
            <!-- 2 -->
            <g
               transform="matrix(0.12,0,0,-0.12,41,194.04054)"
               id="g263">
              <use
                 xlink:href="#TimesNewRomanPSMT-32"
                 id="use261" />
            </g>
          </g>
        </g>
        <g
           id="ytick_4">
          <g
             id="line2d_10">
            <g
               id="g269">
              <use
                 xlink:href="#m4cdcc738a2"
                 x="54"
                 y="158.81143"
                 style="stroke:#000000;stroke-width:0.8"
                 id="use267" />
            </g>
          </g>
          <g
             id="text_11">
            <!-- 3 -->
            <g
               transform="matrix(0.12,0,0,-0.12,41,162.97768)"
               id="g277">
              <defs
                 id="defs273">
                <path
                   id="TimesNewRomanPSMT-33"
                   d="m 325,3431 q 181,428 457,661 277,233 690,233 509,0 781,-331 206,-247 206,-528 0,-463 -581,-957 391,-153 591,-437 200,-284 200,-669 0,-550 -350,-953 Q 1863,-75 997,-75 569,-75 414,31 259,138 259,259 q 0,91 73,160 74,69 177,69 79,0 160,-25 53,-16 240,-115 188,-98 260,-117 115,-34 247,-34 318,0 554,247 236,247 236,584 0,247 -109,481 -81,175 -178,266 -135,125 -369,226 -234,102 -478,102 H 972 v 94 q 247,31 495,178 249,147 361,353 113,206 113,453 0,322 -202,520 -201,199 -501,199 -485,0 -810,-519 z"
                   transform="scale(0.015625)" />
              </defs>
              <use
                 xlink:href="#TimesNewRomanPSMT-33"
                 id="use275" />
            </g>
          </g>
        </g>
        <g
           id="ytick_5">
          <g
             id="line2d_11">
            <g
               id="g283">
              <use
                 xlink:href="#m4cdcc738a2"
                 x="54"
                 y="127.74857"
                 style="stroke:#000000;stroke-width:0.8"
                 id="use281" />
            </g>
          </g>
          <g
             id="text_12">
            <!-- 4 -->
            <g
               transform="matrix(0.12,0,0,-0.12,41,131.91482)"
               id="g291">
              <defs
                 id="defs287">
                <path
                   id="TimesNewRomanPSMT-34"
                   d="M 2978,1563 V 1119 H 2409 V 0 H 1894 V 1119 H 100 v 400 l 1966,2806 h 343 V 1563 Z m -1084,0 V 3666 L 406,1563 Z"
                   transform="scale(0.015625)" />
              </defs>
              <use
                 xlink:href="#TimesNewRomanPSMT-34"
                 id="use289" />
            </g>
          </g>
        </g>
        <g
           id="ytick_6">
          <g
             id="line2d_12">
            <g
               id="g297">
              <use
                 xlink:href="#m4cdcc738a2"
                 x="54"
                 y="96.685715"
                 style="stroke:#000000;stroke-width:0.8"
                 id="use295" />
            </g>
          </g>
          <g
             id="text_13">
            <!-- 5 -->
            <g
               transform="matrix(0.12,0,0,-0.12,41,100.85196)"
               id="g302">
              <use
                 xlink:href="#TimesNewRomanPSMT-35"
                 id="use300" />
            </g>
          </g>
        </g>
        <g
           id="ytick_7">
          <g
             id="line2d_13">
            <g
               id="g308">
              <use
                 xlink:href="#m4cdcc738a2"
                 x="54"
                 y="65.622856"
                 style="stroke:#000000;stroke-width:0.8"
                 id="use306" />
            </g>
          </g>
          <g
             id="text_14">
            <!-- 6 -->
            <g
               transform="matrix(0.12,0,0,-0.12,41,69.789107)"
               id="g316">
              <defs
                 id="defs312">
                <path
                   id="TimesNewRomanPSMT-36"
                   d="m 2869,4325 v -116 q -413,-40 -674,-164 -261,-123 -516,-376 -254,-253 -421,-564 -167,-311 -280,-739 450,309 903,309 435,0 753,-350 319,-350 319,-900 0,-531 -322,-969 -387,-531 -1025,-531 -434,0 -737,288 -594,559 -594,1450 0,568 228,1080 228,513 651,910 424,397 811,534 388,138 723,138 z M 925,2138 q -56,-422 -56,-682 0,-300 111,-652 111,-351 329,-557 160,-147 388,-147 272,0 486,256 214,257 214,732 0,534 -213,924 -212,391 -603,391 -118,0 -254,-50 -136,-50 -402,-215 z"
                   transform="scale(0.015625)" />
              </defs>
              <use
                 xlink:href="#TimesNewRomanPSMT-36"
                 id="use314" />
            </g>
          </g>
        </g>
        <g
           id="ytick_8">
          <g
             id="line2d_14">
            <g
               id="g322">
              <use
                 xlink:href="#m4cdcc738a2"
                 x="54"
                 y="34.560001"
                 style="stroke:#000000;stroke-width:0.8"
                 id="use320" />
            </g>
          </g>
          <g
             id="text_15">
            <!-- 7 -->
            <g
               transform="matrix(0.12,0,0,-0.12,41,38.72625)"
               id="g330">
              <defs
                 id="defs326">
                <path
                   id="TimesNewRomanPSMT-37"
                   d="M 644,4238 H 2916 V 4119 L 1503,-88 H 1153 L 2419,3728 H 1253 q -353,0 -503,-84 -262,-144 -422,-444 l -90,34 z"
                   transform="scale(0.015625)" />
              </defs>
              <use
                 xlink:href="#TimesNewRomanPSMT-37"
                 id="use328" />
            </g>
          </g>
        </g>
        <g
           id="text_16">
          <!-- Absolute Sum of Difference -->
          <g
             transform="matrix(0,-0.12,-0.12,0,21.86725,210.98906)"
             id="g395">
            <defs
               id="defs341">
              <path
                 id="TimesNewRomanPSMT-41"
                 d="M 2928,1419 H 1288 L 1000,750 Q 894,503 894,381 q 0,-97 92,-170 92,-73 398,-95 V 0 H 50 v 116 q 266,47 344,122 159,150 353,609 l 1491,3487 h 109 L 3822,809 Q 4000,384 4145,257 4291,131 4550,116 V 0 H 2878 v 116 q 253,12 342,84 89,72 89,175 0,138 -125,434 z m -87,231 -719,1713 -738,-1713 z"
                 transform="scale(0.015625)" />
              <path
                 id="TimesNewRomanPSMT-62"
                 d="m 984,2369 q 416,578 897,578 441,0 769,-377 328,-376 328,-1029 Q 2978,778 2472,313 2038,-88 1503,-88 1253,-88 995,3 738,94 469,275 v 2966 q 0,487 -24,599 -23,113 -73,153 -50,41 -125,41 -88,0 -219,-50 l -44,110 860,350 h 140 z m 0,-200 V 456 q 160,-156 330,-236 170,-79 349,-79 284,0 529,312 246,313 246,910 0,550 -246,845 -245,295 -558,295 -165,0 -331,-84 -125,-63 -319,-250 z"
                 transform="scale(0.015625)" />
              <path
                 id="TimesNewRomanPSMT-6c"
                 d="M 1184,4444 V 647 q 0,-269 39,-357 40,-87 121,-132 81,-45 303,-45 V 0 H 244 v 113 q 197,0 268,40 72,41 113,134 41,94 41,360 v 2600 q 0,484 -22,595 -22,111 -71,151 -48,41 -123,41 -81,0 -206,-50 l -53,110 853,350 z"
                 transform="scale(0.015625)" />
              <path
                 id="TimesNewRomanPSMT-75"
                 d="M 2709,2863 V 1128 q 0,-497 23,-608 24,-111 75,-155 52,-43 121,-43 97,0 219,53 L 3191,266 2334,-88 H 2194 V 519 Q 1825,119 1631,15 1438,-88 1222,-88 981,-88 804,51 628,191 559,409 491,628 491,1028 v 1278 q 0,203 -44,281 -44,79 -130,121 -86,42 -311,39 v 116 H 1009 V 947 q 0,-400 139,-525 140,-125 336,-125 135,0 305,84 170,85 405,322 v 1622 q 0,244 -89,330 -89,86 -371,92 v 116 z"
                 transform="scale(0.015625)" />
              <path
                 id="TimesNewRomanPSMT-74"
                 d="m 1031,3803 v -940 h 669 V 2644 H 1031 V 788 q 0,-279 80,-376 80,-96 205,-96 103,0 200,64 97,64 150,189 h 122 Q 1678,263 1478,108 1278,-47 1066,-47 922,-47 784,33 647,113 581,261 516,409 516,719 V 2644 H 63 v 103 q 171,69 351,233 180,164 320,389 72,119 200,434 z"
                 transform="scale(0.015625)" />
              <path
                 id="TimesNewRomanPSMT-66"
                 d="M 1319,2638 V 756 q 0,-400 87,-506 116,-137 310,-137 h 259 V 0 H 266 v 113 h 128 q 125,0 228,62 103,63 142,169 39,106 39,412 V 2638 H 247 v 225 h 556 v 187 q 0,428 137,725 138,297 421,480 283,183 636,183 328,0 603,-213 181,-141 181,-316 0,-93 -81,-176 -81,-83 -175,-83 -72,0 -152,51 -79,52 -195,222 -115,171 -212,230 -97,60 -216,60 -144,0 -244,-77 -100,-77 -144,-238 -43,-160 -43,-829 v -206 h 737 v -225 z"
                 transform="scale(0.015625)" />
              <path
                 id="TimesNewRomanPSMT-44"
                 d="m 109,0 v 116 h 160 q 269,0 381,172 69,103 69,462 v 2738 q 0,396 -88,496 -122,138 -362,138 H 109 v 116 h 1725 q 950,0 1445,-216 496,-216 797,-719 302,-503 302,-1162 0,-885 -537,-1478 Q 3238,0 2003,0 Z m 1210,306 q 397,-87 665,-87 725,0 1203,509 479,510 479,1381 0,879 -479,1385 -478,506 -1228,506 -281,0 -640,-91 z"
                 transform="scale(0.015625)" />
            </defs>
            <use
               xlink:href="#TimesNewRomanPSMT-41"
               id="use343" />
            <use
               xlink:href="#TimesNewRomanPSMT-62"
               x="72.216797"
               id="use345" />
            <use
               xlink:href="#TimesNewRomanPSMT-73"
               x="122.2168"
               id="use347" />
            <use
               xlink:href="#TimesNewRomanPSMT-6f"
               x="161.13281"
               id="use349" />
            <use
               xlink:href="#TimesNewRomanPSMT-6c"
               x="211.13281"
               id="use351" />
            <use
               xlink:href="#TimesNewRomanPSMT-75"
               x="238.91602"
               id="use353" />
            <use
               xlink:href="#TimesNewRomanPSMT-74"
               x="288.91602"
               id="use355" />
            <use
               xlink:href="#TimesNewRomanPSMT-65"
               x="316.69922"
               id="use357" />
            <use
               xlink:href="#TimesNewRomanPSMT-20"
               x="361.08398"
               id="use359" />
            <use
               xlink:href="#TimesNewRomanPSMT-53"
               x="386.08398"
               id="use361" />
            <use
               xlink:href="#TimesNewRomanPSMT-75"
               x="441.69922"
               id="use363" />
            <use
               xlink:href="#TimesNewRomanPSMT-6d"
               x="491.69922"
               id="use365" />
            <use
               xlink:href="#TimesNewRomanPSMT-20"
               x="569.48242"
               id="use367" />
            <use
               xlink:href="#TimesNewRomanPSMT-6f"
               x="594.48242"
               id="use369" />
            <use
               xlink:href="#TimesNewRomanPSMT-66"
               x="644.48242"
               id="use371" />
            <use
               xlink:href="#TimesNewRomanPSMT-20"
               x="677.7832"
               id="use373" />
            <use
               xlink:href="#TimesNewRomanPSMT-44"
               x="702.7832"
               id="use375" />
            <use
               xlink:href="#TimesNewRomanPSMT-69"
               x="775"
               id="use377" />
            <use
               xlink:href="#TimesNewRomanPSMT-66"
               x="802.7832"
               id="use379" />
            <use
               xlink:href="#TimesNewRomanPSMT-66"
               x="834.33398"
               id="use381" />
            <use
               xlink:href="#TimesNewRomanPSMT-65"
               x="867.63477"
               id="use383" />
            <use
               xlink:href="#TimesNewRomanPSMT-72"
               x="912.01953"
               id="use385" />
            <use
               xlink:href="#TimesNewRomanPSMT-65"
               x="945.32031"
               id="use387" />
            <use
               xlink:href="#TimesNewRomanPSMT-6e"
               x="989.70508"
               id="use389" />
            <use
               xlink:href="#TimesNewRomanPSMT-63"
               x="1039.7051"
               id="use391" />
            <use
               xlink:href="#TimesNewRomanPSMT-65"
               x="1084.0898"
               id="use393" />
          </g>
          <!-- Between $F_3$ and Shifted Frames -->
          <g
             transform="matrix(0,-0.12,-0.12,0,34.433125,219.96)"
             id="g459">
            <defs
               id="defs399">
              <path
                 id="TimesNewRomanPSMT-68"
                 d="M 1041,4444 V 2350 q 347,381 550,489 203,108 406,108 244,0 419,-135 175,-134 259,-421 59,-200 59,-732 V 647 q 0,-272 44,-372 31,-75 106,-119 75,-43 275,-43 V 0 H 1753 v 113 h 66 q 200,0 278,60 78,61 109,180 10,50 10,294 v 1012 q 0,469 -49,616 -48,147 -155,220 -106,74 -256,74 -153,0 -319,-82 -165,-81 -396,-328 V 647 q 0,-294 32,-366 33,-72 122,-120 89,-48 308,-48 V 0 H 84 v 113 q 191,0 300,59 63,31 100,118 38,88 38,357 v 2591 q 0,490 -24,602 -23,113 -72,153 -48,41 -129,41 -66,0 -213,-50 l -43,110 856,350 z"
                 transform="scale(0.015625)" />
              <path
                 id="TimesNewRomanPSMT-46"
                 d="M 1309,4006 V 2341 h 772 q 266,0 389,117 124,117 164,464 h 116 V 1488 h -116 q -3,246 -64,362 -61,116 -169,173 -107,58 -320,58 H 1309 V 750 q 0,-322 41,-425 31,-78 131,-134 138,-75 288,-75 h 153 V 0 H 103 v 116 h 150 q 263,0 381,153 75,100 75,481 v 2738 q 0,321 -40,425 -31,78 -128,134 -135,75 -288,75 H 103 v 116 h 3153 l 41,-932 h -109 q -82,297 -190,436 -107,139 -265,201 -158,63 -489,63 z"
                 transform="scale(0.015625)" />
            </defs>
            <use
               xlink:href="#TimesNewRomanPSMT-42"
               transform="translate(0,0.5625)"
               id="use401" />
            <use
               xlink:href="#TimesNewRomanPSMT-65"
               transform="translate(66.699219,0.5625)"
               id="use403" />
            <use
               xlink:href="#TimesNewRomanPSMT-74"
               transform="translate(111.08398,0.5625)"
               id="use405" />
            <use
               xlink:href="#TimesNewRomanPSMT-77"
               transform="translate(138.86719,0.5625)"
               id="use407" />
            <use
               xlink:href="#TimesNewRomanPSMT-65"
               transform="translate(211.08398,0.5625)"
               id="use409" />
            <use
               xlink:href="#TimesNewRomanPSMT-65"
               transform="translate(255.46875,0.5625)"
               id="use411" />
            <use
               xlink:href="#TimesNewRomanPSMT-6e"
               transform="translate(299.85352,0.5625)"
               id="use413" />
            <use
               xlink:href="#TimesNewRomanPSMT-20"
               transform="translate(349.85352,0.5625)"
               id="use415" />
            <use
               xlink:href="#STIXGeneral-Italic-46"
               transform="translate(374.85352,0.5625)"
               id="use417" />
            <use
               xlink:href="#STIXGeneral-Regular-33"
               transform="matrix(0.7,0,0,0.7,435.95351,-12.665625)"
               id="use419" />
            <use
               xlink:href="#TimesNewRomanPSMT-20"
               transform="translate(475.36287,0.5625)"
               id="use421" />
            <use
               xlink:href="#TimesNewRomanPSMT-61"
               transform="translate(500.36287,0.5625)"
               id="use423" />
            <use
               xlink:href="#TimesNewRomanPSMT-6e"
               transform="translate(544.74764,0.5625)"
               id="use425" />
            <use
               xlink:href="#TimesNewRomanPSMT-64"
               transform="translate(594.74764,0.5625)"
               id="use427" />
            <use
               xlink:href="#TimesNewRomanPSMT-20"
               transform="translate(644.74764,0.5625)"
               id="use429" />
            <use
               xlink:href="#TimesNewRomanPSMT-53"
               transform="translate(669.74764,0.5625)"
               id="use431" />
            <use
               xlink:href="#TimesNewRomanPSMT-68"
               transform="translate(725.36287,0.5625)"
               id="use433" />
            <use
               xlink:href="#TimesNewRomanPSMT-69"
               transform="translate(775.36287,0.5625)"
               id="use435" />
            <use
               xlink:href="#TimesNewRomanPSMT-66"
               transform="translate(803.14607,0.5625)"
               id="use437" />
            <use
               xlink:href="#TimesNewRomanPSMT-74"
               transform="translate(836.44686,0.5625)"
               id="use439" />
            <use
               xlink:href="#TimesNewRomanPSMT-65"
               transform="translate(864.23006,0.5625)"
               id="use441" />
            <use
               xlink:href="#TimesNewRomanPSMT-64"
               transform="translate(908.61482,0.5625)"
               id="use443" />
            <use
               xlink:href="#TimesNewRomanPSMT-20"
               transform="translate(958.61482,0.5625)"
               id="use445" />
            <use
               xlink:href="#TimesNewRomanPSMT-46"
               transform="translate(983.61482,0.5625)"
               id="use447" />
            <use
               xlink:href="#TimesNewRomanPSMT-72"
               transform="translate(1039.2301,0.5625)"
               id="use449" />
            <use
               xlink:href="#TimesNewRomanPSMT-61"
               transform="translate(1072.5308,0.5625)"
               id="use451" />
            <use
               xlink:href="#TimesNewRomanPSMT-6d"
               transform="translate(1116.9156,0.5625)"
               id="use453" />
            <use
               xlink:href="#TimesNewRomanPSMT-65"
               transform="translate(1194.6988,0.5625)"
               id="use455" />
            <use
               xlink:href="#TimesNewRomanPSMT-73"
               transform="translate(1239.0836,0.5625)"
               id="use457" />
          </g>
        </g>
      </g>
      <g
         id="line2d_15">
        <path
           d="m 69.218182,122.12711 2.871355,-50.375585 2.871355,1.037493 2.871355,-24.305429 2.871355,-6.795261 2.871355,5.044178 2.871355,-7.587622 2.871355,3.35087 2.871355,3.694213 2.871355,-0.463496 2.871355,8.274053 2.871358,2.29428 2.87135,-2.984652 2.87136,12.100293 2.87135,21.023628 2.87136,-22.751805 2.87135,1.279436 2.87136,-2.044844 2.87135,23.041419 2.87136,15.235851 2.87135,27.85944 2.87136,-9.33102 2.87135,14.48238 2.87136,-23.23154 2.87135,-25.54398 2.87136,-19.711254 2.87135,-4.765797 2.87136,-0.08445 2.87135,-0.263165 2.87136,3.547904 2.87135,-2.603087 2.87136,2.304618 2.87135,2.052503 2.87136,4.12963 2.87135,9.812257 2.87136,19.838237 2.87135,-6.640769 2.87136,-12.504009 2.87135,2.178139 2.87136,3.54789 2.87135,4.56513 2.87136,-9.745395 2.87135,15.341871 2.87136,52.440387 2.87135,8.24411 2.87136,-51.66293 2.87135,11.01016 2.87136,-26.577767 2.87135,-3.532359 2.87136,-2.10299 2.87135,-5.915442 2.87136,3.851012 2.87135,-1.494716 2.87136,-2.800206 2.87135,8.87081 2.87136,8.607011 2.87135,-6.626926 2.87136,-5.280015 2.87135,25.557958 2.87136,-20.29224 2.87135,-26.910231 2.87136,5.165281 2.87136,-2.14391 2.87135,6.661284 2.87136,3.613402 2.87135,35.000354 2.87136,24.06958 2.87135,0.6303 2.87136,-13.96262 2.87135,-31.122157 2.87136,-21.050085 2.87135,-2.60877 2.87136,-0.327935 2.87135,1.211649 2.87136,1.914992 2.87135,-5.286944 2.87136,4.62817 2.87135,2.811769 2.87136,0.937769 2.87135,-4.84972 2.87136,6.639073 2.87135,-7.063636 2.87136,-21.027433 2.87135,-0.229843 2.87136,5.485889 2.87135,0.778784 2.87136,-1.830937 2.87135,53.788265 2.87136,39.54905 2.87135,-55.389199 2.87136,-17.669543 2.87135,6.609576 2.87136,-19.852863 2.87135,-7.635691 2.87136,-1.521918 2.87135,-1.842084 2.87136,2.253811 2.87135,2.055829 2.87136,-1.750799 2.87135,4.17931 2.87136,6.609581 2.87135,-0.857336 2.87136,19.67993 2.87135,23.089106 2.87136,0.13601 2.87135,0.74502 2.87136,-0.0723"
           clip-path="url(#p493fa662b6)"
           style="fill:none;stroke:#1f77b4;stroke-width:1.5;stroke-linecap:square"
           id="path463" />
      </g>
      <g
         id="patch_3">
        <path
           d="M 54,252 V 34.56"
           style="fill:none;stroke:#000000;stroke-width:0.8;stroke-linecap:square;stroke-linejoin:miter"
           id="path466" />
      </g>
      <g
         id="patch_4">
        <path
           d="M 388.8,252 V 34.56"
           style="fill:none;stroke:#000000;stroke-width:0.8;stroke-linecap:square;stroke-linejoin:miter"
           id="path469" />
      </g>
      <g
         id="patch_5">
        <path
           d="M 54,252 H 388.8"
           style="fill:none;stroke:#000000;stroke-width:0.8;stroke-linecap:square;stroke-linejoin:miter"
           id="path472" />
      </g>
      <g
         id="patch_6">
        <path
           d="M 54,34.56 H 388.8"
           style="fill:none;stroke:#000000;stroke-width:0.8;stroke-linecap:square;stroke-linejoin:miter"
           id="path475" />
      </g>
    </g>
  </g>
  <defs
     id="defs483">
    <clipPath
       id="p493fa662b6">
      <rect
         x="54"
         y="34.560001"
         width="334.79999"
         height="217.44"
         id="rect480" />
    </clipPath>
  </defs>
</svg>
